<svg width="2816" height="728" viewBox="0 0 2816 728" fill="none" xmlns="http://www.w3.org/2000/svg">
<path d="M113.02 446.955V166.212H0.719971V446.955C0.719971 601.924 126.5 727.697 281.47 727.697C436.44 727.697 562.21 601.924 562.21 446.955V166.212H449.91V446.955C449.91 540.161 374.67 615.4 281.47 615.4C188.26 615.4 113.02 540.161 113.02 446.955Z" fill="#0E0E0E"/>
<path d="M705.929 446.955V166.212H818.226V446.955C818.226 601.924 692.454 727.697 537.484 727.697V615.4C630.69 615.4 705.929 540.161 705.929 446.955Z" fill="#0E0E0E"/>
<path d="M426.59 727.697H538.618V615.668H426.59V727.697Z" fill="#0E0E0E"/>
<path d="M314.56 727.697H469.9V615.668H314.56V727.697Z" fill="#0E0E0E"/>
<path d="M287.42 727.697H314.78V700.34H287.42V727.697Z" fill="#0E0E0E"/>
<path d="M616.325 222.417C616.325 253.359 641.589 278.623 672.53 278.623H840.862C871.804 278.623 897.068 253.359 897.068 222.417C897.068 191.476 871.804 166.212 840.862 166.212H672.53C641.589 166.212 616.325 191.476 616.325 222.417Z" fill="#0E0E0E"/>
<path d="M798.486 278.623H910.515V166.594H798.486V278.623Z" fill="#0E0E0E"/>
<path d="M603.999 166.594V278.623H716.028V166.594H603.999Z" fill="#0E0E0E"/>
<path d="M1028.72 384.085C1052.48 316.869 1115.64 269.354 1190.97 269.354C1265.72 269.354 1329.46 316.869 1353.21 384.085H1472C1445.92 253.709 1330.04 155.203 1191.55 155.203C1053.06 155.203 937.17 253.709 911.095 384.085H1028.72ZM1353.21 498.815C1329.46 566.031 1266.3 613.546 1190.97 613.546C1116.22 613.546 1052.48 566.031 1028.72 498.815H910.515C936.59 629.191 1052.48 727.697 1190.97 727.697C1329.46 727.697 1445.35 629.191 1471.42 498.815H1353.21Z" fill="#0E0E0E"/>
<path d="M1537.13 716.247H1651.63V159.142H1537.13V716.247Z" fill="#0E0E0E"/>
<path d="M2063.79 716.247H2178.29V159.142H2063.79V716.247Z" fill="#0E0E0E"/>
<path d="M2121.04 115.006C2152.68 115.006 2178.29 89.394 2178.29 57.756C2178.29 26.118 2152.68 0.506958 2121.04 0.506958C2089.4 0.506958 2063.79 26.118 2063.79 57.756C2063.79 89.394 2089.4 115.006 2121.04 115.006Z" fill="#0E0E0E"/>
<path d="M2529.66 143.753C2371.66 143.753 2243.42 271.992 2243.42 430C2243.42 588.008 2371.66 716.247 2529.66 716.247H2815.91V430C2815.91 271.992 2687.67 143.753 2529.66 143.753ZM2357.91 430C2357.91 334.966 2434.63 258.252 2529.66 258.252C2624.7 258.252 2701.41 334.966 2701.41 430C2701.41 525.034 2624.7 601.748 2529.66 601.748C2434.63 601.748 2357.91 525.034 2357.91 430Z" fill="#0E0E0E"/>
<path d="M2769.42 430.544C2768.87 563.197 2661.77 670.842 2528.58 670.842C2395.38 670.842 2288.28 563.197 2288.28 430C2288.28 296.803 2395.92 189.158 2529.12 189.158V214.167C2410.06 214.167 2313.29 310.938 2313.29 430.544C2313.29 549.062 2409.51 646.921 2529.66 646.921C2648.18 646.921 2746.04 550.693 2746.04 430.544H2771.05H2769.42ZM2528.03 602.884C2432.35 602.884 2355.15 526.228 2355.15 430C2355.15 333.772 2432.35 257.66 2528.03 257.66C2623.72 257.66 2701.46 333.772 2701.46 430H2722.12C2721.58 325.073 2635.13 238.631 2529.66 238.631C2424.19 238.631 2337.75 325.073 2337.75 430C2337.75 534.927 2422.56 621.912 2529.66 621.912V602.34L2528.03 602.884ZM2395.38 430C2395.38 357.149 2455.18 297.347 2528.03 297.347C2601.97 297.347 2660.69 357.149 2660.69 430C2660.69 502.85 2600.88 562.653 2528.03 562.653V578.419C2609.58 578.419 2675.91 512.636 2675.91 430.544C2675.91 348.995 2610.12 283.212 2528.03 283.212C2445.94 283.212 2380.16 347.907 2380.16 430H2395.38ZM2528.58 334.316C2581.31 334.316 2624.26 377.265 2624.26 430C2624.26 483.822 2581.31 525.684 2528.58 525.684C2475.84 525.684 2432.89 482.735 2432.89 430H2422.02C2422.02 488.715 2469.86 536.557 2528.58 536.557C2587.29 536.557 2635.68 489.259 2635.68 430C2635.68 370.741 2587.29 323.443 2528.58 323.443V334.316Z" fill="#0E0E0E"/>
<path d="M1594.38 553.462H1870.73C1936.26 553.462 1989.16 465.491 1989.16 356.512C1989.16 247.533 1936.26 159.562 1870.73 159.562H1594.38V290.862H1870.73C1892.44 290.862 1910.21 320.404 1910.21 356.512C1910.21 392.619 1892.44 422.162 1870.73 422.162H1594.38V553.462Z" fill="#0E0E0E"/>
</svg>
