<svg width="2531" height="2072" viewBox="0 0 2531 2072" fill="none" xmlns="http://www.w3.org/2000/svg">
<g clip-path="url(#clip0_11_712)" filter="url(#filter0_d_11_712)">
<path d="M1755.77 1117.46H262.543C229.099 1117.46 195.785 1140.62 188.138 1169.19L5.57653 1851.05C-2.0705 1879.62 18.8408 1902.78 52.2848 1902.78H1545.51C1578.95 1902.78 1612.27 1879.62 1619.91 1851.05L1802.47 1169.18C1810.12 1140.62 1789.21 1117.46 1755.77 1117.46Z" fill="#00826F" stroke="#00826F" stroke-width="1.5" stroke-miterlimit="10" stroke-linecap="round" stroke-linejoin="round"/>
<path d="M1799.28 1117.46H306.047C272.603 1117.46 239.289 1140.62 231.642 1169.19L49.0867 1851.05C41.4397 1879.62 62.351 1902.78 95.795 1902.78H1589.02C1622.46 1902.78 1655.78 1879.62 1663.42 1851.05L1845.98 1169.18C1853.63 1140.62 1832.72 1117.46 1799.28 1117.46Z" fill="#303030" stroke="#303030" stroke-width="1.5" stroke-miterlimit="10" stroke-linecap="round" stroke-linejoin="round"/>
<path d="M1744.24 907.866H182.461C149.017 907.866 125.427 931.255 129.77 960.111L269.541 1888.6C273.883 1917.45 304.519 1940.85 337.963 1940.85H1899.74C1933.19 1940.85 1956.78 1917.46 1952.44 1888.6L1812.67 960.111C1808.32 931.26 1777.69 907.866 1744.24 907.866Z" fill="#00826F" stroke="#00826F" stroke-width="1.5" stroke-miterlimit="10" stroke-linecap="round" stroke-linejoin="round"/>
<path d="M1792.6 909.207H230.822C197.378 909.207 173.788 932.596 178.13 961.452L317.895 1889.94C322.238 1918.79 352.873 1942.19 386.317 1942.19H1948.1C1981.54 1942.19 2005.13 1918.8 2000.79 1889.94L1861.02 961.452C1856.68 932.596 1826.05 909.207 1792.6 909.207Z" fill="#303030" stroke="#303030" stroke-width="1.5" stroke-miterlimit="10" stroke-linecap="round" stroke-linejoin="round"/>
<path d="M1726.74 957.585H311.245C280.935 957.585 259.551 978.783 263.487 1004.94L390.164 1846.46C394.1 1872.61 421.862 1893.81 452.178 1893.81H1867.68C1897.99 1893.81 1919.37 1872.61 1915.43 1846.46L1788.76 1004.94C1784.82 978.783 1757.05 957.585 1726.74 957.585Z" fill="white" stroke="#303030" stroke-width="1.5" stroke-miterlimit="10" stroke-linecap="round" stroke-linejoin="round"/>
<path d="M1726.74 957.585H311.245C280.935 957.585 259.551 978.783 263.487 1004.94L390.164 1846.46C394.1 1872.61 421.862 1893.81 452.178 1893.81H1867.68C1897.99 1893.81 1919.37 1872.61 1915.43 1846.46L1788.76 1004.94C1784.82 978.783 1757.05 957.585 1726.74 957.585Z" fill="white" stroke="#303030" stroke-width="1.5" stroke-miterlimit="10" stroke-linecap="round" stroke-linejoin="round"/>
<path d="M1726.74 957.585H311.245C280.935 957.585 259.551 978.783 263.487 1004.94L390.164 1846.46C394.1 1872.61 421.862 1893.81 452.178 1893.81H1867.68C1897.99 1893.81 1919.37 1872.61 1915.43 1846.46L1788.76 1004.94C1784.82 978.783 1757.05 957.585 1726.74 957.585Z" fill="white" stroke="#303030" stroke-width="1.5" stroke-miterlimit="10" stroke-linecap="round" stroke-linejoin="round"/>
<path d="M160.807 1228.22L182.951 1375.35" stroke="#303030" stroke-width="1.5" stroke-miterlimit="10" stroke-linecap="round" stroke-linejoin="round"/>
<path d="M580.13 1205.72C565.969 1205.72 554.487 1215.8 554.487 1228.23C554.487 1240.65 565.969 1250.73 580.13 1250.73C594.292 1250.73 605.774 1240.65 605.774 1228.23C605.774 1215.8 594.292 1205.72 580.13 1205.72Z" fill="#FF95FB"/>
<path d="M390.164 1846.45C394.1 1872.6 421.862 1893.8 452.178 1893.8H1867.68C1897.99 1893.8 1919.37 1872.61 1915.43 1846.45L1820.51 1216.08C1809.41 1213.83 1789.73 1213.14 1780.13 1213.14C1669.12 1213.14 1575.14 1276.98 1543.16 1365.1C1521.74 1344.13 1490.73 1330.86 1456.12 1330.86C1400.81 1330.86 1354.58 1364.58 1342.38 1409.85C1225.09 1364.85 1144.06 1265.67 1135.64 1151.05L1116.51 890.872H1014.37L995.165 1152.48C987.665 1254.59 922.524 1344.49 825.39 1394.72C800.325 1356.57 753.404 1330.87 699.615 1330.87C665.752 1330.87 634.621 1341.07 609.934 1358.14C575.634 1273.64 483.711 1213.14 375.649 1213.14C347.982 1213.14 321.394 1217.15 296.541 1224.48L390.164 1846.45Z" fill="#FF95FB"/>
<path d="M297.078 1228.07L390.164 1846.45C394.1 1872.6 421.862 1893.8 452.178 1893.8H1867.68C1897.99 1893.8 1919.37 1872.61 1915.43 1846.45L1820.32 1214.59" stroke="#303030" stroke-width="1.5" stroke-miterlimit="10" stroke-linecap="round" stroke-linejoin="round"/>
<path d="M616.401 1291.05C622.272 1291.05 627.033 1286.87 627.033 1281.72C627.033 1276.56 622.272 1272.38 616.401 1272.38C610.53 1272.38 605.768 1276.56 605.768 1281.72C605.768 1286.87 610.53 1291.05 616.401 1291.05Z" fill="#FF95FB"/>
<path d="M1568.76 1264.21C1574.64 1264.21 1579.4 1260.04 1579.4 1254.88C1579.4 1249.73 1574.64 1245.55 1568.76 1245.55C1562.89 1245.55 1558.13 1249.73 1558.13 1254.88C1558.13 1260.04 1562.89 1264.21 1568.76 1264.21Z" fill="#FF95FB"/>
<path d="M1522.78 1313.55C1536.94 1313.55 1548.42 1303.47 1548.42 1291.05C1548.42 1278.62 1536.94 1268.54 1522.78 1268.54C1508.62 1268.54 1497.14 1278.62 1497.14 1291.05C1497.14 1303.47 1508.62 1313.55 1522.78 1313.55Z" fill="#FF95FB"/>
<path d="M926.495 692.3C899.241 692.3 875.81 709.268 870.647 732.755L817.501 974.516H846.944L901.453 856.719C912.871 832.041 943.819 819.05 972.879 826.734L926.495 692.3Z" fill="#00826F" stroke="#303030" stroke-width="1.5" stroke-miterlimit="10" stroke-linecap="round" stroke-linejoin="round"/>
<path d="M1204.66 692.3C1231.92 692.3 1255.34 709.268 1260.5 732.755L1313.65 974.516H1284.21L1229.7 856.719C1218.28 832.041 1187.33 819.05 1158.27 826.734L1204.66 692.3Z" fill="#00826F" stroke="#303030" stroke-width="1.5" stroke-miterlimit="10" stroke-linecap="round" stroke-linejoin="round"/>
<path d="M1134.53 898.339C1133.33 921.909 997.82 921.909 996.616 898.339L1007.48 803.107H1123.67L1134.53 898.339Z" fill="#303030" stroke="#303030" stroke-width="1.5" stroke-miterlimit="10" stroke-linecap="round" stroke-linejoin="round"/>
<path d="M1234.15 366.818C1193.43 94.8022 1065.56 -0.11898 1065.58 0.000111902C1065.59 -0.11898 937.718 94.8022 896.998 366.818C851.547 670.444 989.784 860.457 989.784 860.457C1040.31 875.261 1090.84 875.261 1141.37 860.457C1141.37 860.457 1279.6 670.444 1234.15 366.818Z" fill="white" stroke="#303030" stroke-width="1.5" stroke-miterlimit="10" stroke-linecap="round" stroke-linejoin="round"/>
<path d="M1190.91 195.497C1137.74 53.4878 1065.57 -0.0930807 1065.58 0.000121358C1065.59 -0.0879029 993.406 53.4878 940.237 195.497C977.817 204.325 1020.39 209.358 1065.58 209.358C1110.76 209.358 1153.33 204.325 1190.91 195.497Z" fill="#F55571" stroke="#303030" stroke-width="1.5" stroke-miterlimit="10" stroke-linecap="round" stroke-linejoin="round"/>
<path d="M914.405 574.187C959.549 585.061 1010.97 591.238 1065.58 591.238C1120.18 591.238 1171.6 585.056 1216.75 574.187" stroke="#303030" stroke-width="1.5" stroke-miterlimit="10" stroke-linecap="round" stroke-linejoin="round"/>
<path d="M1065.58 184.608C1071.79 184.608 1076.83 180.184 1076.83 174.728C1076.83 169.272 1071.79 164.849 1065.58 164.849C1059.36 164.849 1054.32 169.272 1054.32 174.728C1054.32 180.184 1059.36 184.608 1065.58 184.608Z" fill="white" stroke="#303030" stroke-width="1.5" stroke-miterlimit="10" stroke-linecap="round" stroke-linejoin="round"/>
<path d="M1137.63 178.068C1143.85 178.068 1148.89 173.645 1148.89 168.188C1148.89 162.732 1143.85 158.309 1137.63 158.309C1131.41 158.309 1126.37 162.732 1126.37 168.188C1126.37 173.645 1131.41 178.068 1137.63 178.068Z" fill="white" stroke="#303030" stroke-width="1.5" stroke-miterlimit="10" stroke-linecap="round" stroke-linejoin="round"/>
<path d="M1004.78 168.188C1004.78 173.641 999.738 178.063 993.519 178.063C987.305 178.063 982.26 173.641 982.26 168.188C982.26 162.731 987.299 158.309 993.519 158.309C999.738 158.314 1004.78 162.736 1004.78 168.188Z" fill="white" stroke="#303030" stroke-width="1.5" stroke-miterlimit="10" stroke-linecap="round" stroke-linejoin="round"/>
<path d="M1134.23 470.029C1174.87 434.393 1174.87 376.615 1134.23 340.979C1093.59 305.342 1027.7 305.342 987.056 340.979C946.415 376.615 946.415 434.393 987.056 470.029C1027.7 505.665 1093.59 505.665 1134.23 470.029Z" fill="#303030" stroke="#303030" stroke-width="1.5" stroke-miterlimit="10" stroke-linecap="round" stroke-linejoin="round"/>
<path d="M1171.8 426.573C1185.01 377.489 1150.37 328.302 1094.44 316.712C1038.5 305.122 982.45 335.517 969.243 384.602C956.035 433.686 990.672 482.872 1046.61 494.462C1102.54 506.053 1158.59 475.658 1171.8 426.573Z" fill="#00826F" stroke="#303030" stroke-width="1.5" stroke-miterlimit="10" stroke-linecap="round" stroke-linejoin="round"/>
<path d="M1100.39 468.734C1140.19 454.268 1159.09 414.227 1142.6 379.302C1126.12 344.377 1080.49 327.792 1040.69 342.259C1000.89 356.726 981.992 396.766 998.478 431.691C1014.96 466.616 1060.59 483.201 1100.39 468.734Z" fill="white" stroke="#303030" stroke-width="1.5" stroke-miterlimit="10" stroke-linecap="round" stroke-linejoin="round"/>
<path d="M1104.87 375.346L1036.14 435.658" stroke="#FF95FB" stroke-width="1.5" stroke-miterlimit="10" stroke-linecap="round" stroke-linejoin="round"/>
<path d="M1111.86 417.204L1086.45 439.5" stroke="#FF95FB" stroke-width="1.5" stroke-miterlimit="10" stroke-linecap="round" stroke-linejoin="round"/>
<path d="M1055.82 370.323L1030.41 392.624" stroke="#FF95FB" stroke-width="1.5" stroke-miterlimit="10" stroke-linecap="round" stroke-linejoin="round"/>
<path d="M1079.46 711.712H1051.7V1022.52H1079.46V711.712Z" fill="#00826F" stroke="#303030" stroke-width="1.5" stroke-miterlimit="10" stroke-linecap="round" stroke-linejoin="round"/>
<path d="M1568.57 1807.07H691.835C668.999 1807.07 649.81 1792.7 647.244 1773.69C644.235 1751.4 665.055 1731.87 691.835 1731.87H1568.57C1591.4 1731.87 1610.59 1746.23 1613.16 1765.24C1616.16 1787.54 1595.34 1807.07 1568.57 1807.07Z" fill="white" stroke="#303030" stroke-width="1.5" stroke-miterlimit="10" stroke-linecap="round" stroke-linejoin="round"/>
<path d="M1541.98 1780.96C1552.09 1780.96 1560.29 1774.09 1560.29 1765.63C1560.29 1757.16 1552.09 1750.29 1541.98 1750.29C1531.88 1750.29 1523.68 1757.16 1523.68 1765.63C1523.68 1774.09 1531.88 1780.96 1541.98 1780.96Z" fill="white" stroke="#00826F" stroke-width="1.5" stroke-miterlimit="10" stroke-linecap="round" stroke-linejoin="round"/>
<path d="M1554.93 1776.46L1569.46 1788.65" stroke="#00826F" stroke-width="1.5" stroke-miterlimit="10" stroke-linecap="round" stroke-linejoin="round"/>
<path d="M914.915 1681.85C898.25 1681.85 883.688 1679.56 871.254 1674.99C864.995 1672.69 858.93 1669.79 853.063 1666.3C843.399 1660.54 841.961 1648.96 850.007 1641.66L850.165 1641.52C857.002 1635.32 868.127 1634.69 876.384 1639.52C879.569 1641.39 882.847 1643.02 886.218 1644.42C894.516 1647.88 903.941 1649.6 914.477 1649.6C924.054 1649.6 931.323 1648.15 936.301 1645.27C941.268 1642.38 943.495 1638.36 942.969 1633.22C942.489 1628.57 940.38 1624.8 936.634 1621.91C932.889 1619.03 928.086 1616.54 922.225 1614.45C916.358 1612.37 909.925 1610.36 902.93 1608.43C895.93 1606.51 888.953 1604.3 881.994 1601.82C875.028 1599.32 868.531 1596.2 862.495 1592.43C856.458 1588.65 851.421 1583.92 847.39 1578.22C843.358 1572.53 840.898 1565.34 840.009 1556.67C838.94 1546.24 841.032 1537.26 846.291 1529.72C851.55 1522.17 859.339 1516.44 869.664 1512.51C879.984 1508.58 892.143 1506.61 906.126 1506.61C920.297 1506.61 933.491 1508.7 945.703 1512.86C950.027 1514.34 954.112 1516.01 957.963 1517.87C968.697 1523.07 970.537 1535.47 962.123 1543.1C955.742 1548.89 945.236 1550.22 937.359 1545.92C934.916 1544.58 932.48 1543.43 930.061 1542.48C923.569 1539.91 916.399 1538.62 908.546 1538.62C900.692 1538.62 894.598 1539.87 890.25 1542.35C885.909 1544.84 883.974 1548.42 884.454 1553.07C884.898 1557.4 886.984 1560.89 890.7 1563.54C894.417 1566.19 899.202 1568.47 905.051 1570.4C910.895 1572.33 917.322 1574.25 924.323 1576.18C931.317 1578.1 938.3 1580.35 945.277 1582.92C952.242 1585.49 958.751 1588.74 964.805 1592.67C970.859 1596.6 975.919 1601.58 979.986 1607.59C984.047 1613.61 986.536 1621.03 987.442 1629.86C989.107 1646.06 983.515 1658.79 970.672 1668.01C957.834 1677.24 939.241 1681.85 914.915 1681.85Z" fill="#303030" stroke="#303030" stroke-miterlimit="10"/>
<path d="M1021.24 1679.2L1003.8 1509.25H1048.91L1066.35 1679.2H1021.24ZM1041.62 1541.75L1038.28 1509.25H1130.77C1140.54 1509.25 1148.68 1515.51 1149.52 1523.67L1149.62 1524.63C1150.56 1533.83 1141.9 1541.75 1130.87 1541.75H1041.62V1541.75ZM1048.43 1608.19L1045.2 1576.65H1129.07C1138.84 1576.65 1146.98 1582.91 1147.82 1591.07C1148.76 1600.27 1140.09 1608.18 1129.07 1608.18H1048.43V1608.19ZM1055.72 1679.2L1052.36 1646.47H1146.29C1156.06 1646.47 1164.2 1652.73 1165.04 1660.88L1165.16 1662.08C1166.11 1671.29 1157.44 1679.2 1146.41 1679.2H1055.72Z" fill="#303030" stroke="#303030" stroke-miterlimit="10"/>
<path d="M1291.35 1682.09C1276.03 1682.09 1261.67 1679.84 1248.28 1675.35C1234.88 1670.86 1222.89 1664.6 1212.3 1656.57C1201.7 1648.55 1193.18 1639.2 1186.72 1628.52C1180.26 1617.85 1176.4 1606.34 1175.14 1593.98C1173.85 1581.47 1175.35 1569.91 1179.62 1559.32C1183.89 1548.72 1190.42 1539.46 1199.18 1531.51C1207.94 1523.56 1218.56 1517.39 1231.04 1512.98C1243.52 1508.57 1257.42 1506.35 1272.75 1506.35C1287.88 1506.35 1302.14 1508.57 1315.52 1512.98C1328.9 1517.39 1340.84 1523.56 1351.33 1531.51C1361.82 1539.46 1370.29 1548.77 1376.75 1559.44C1383.21 1570.11 1387.08 1581.71 1388.36 1594.22C1389.63 1606.58 1388.13 1618.09 1383.86 1628.76C1379.59 1639.44 1373.08 1648.75 1364.32 1656.69C1355.55 1664.64 1344.94 1670.85 1332.47 1675.34C1320 1679.84 1306.29 1682.09 1291.35 1682.09ZM1287.24 1647.66C1299.32 1647.66 1309.67 1645.42 1318.3 1640.92C1326.94 1636.43 1333.33 1630.14 1337.49 1622.02C1341.63 1613.92 1343.17 1604.57 1342.08 1593.98C1341.25 1585.96 1339.07 1578.7 1335.53 1572.2C1331.99 1565.7 1327.29 1560.08 1321.45 1555.34C1315.59 1550.62 1308.85 1547 1301.22 1544.52C1293.59 1542.02 1285.27 1540.78 1276.27 1540.78C1264.2 1540.78 1253.84 1542.99 1245.2 1547.4C1236.55 1551.82 1230.15 1557.99 1225.99 1565.93C1221.82 1573.88 1220.29 1583.22 1221.4 1593.97C1222.22 1602 1224.41 1609.31 1227.95 1615.88C1231.5 1622.46 1236.15 1628.12 1241.91 1632.85C1247.66 1637.59 1254.41 1641.24 1262.14 1643.81C1269.87 1646.39 1278.24 1647.66 1287.24 1647.66Z" fill="#303030" stroke="#303030" stroke-miterlimit="10"/>
<path d="M92.8979 1033.9C57.4773 1033.9 28.6593 1008.61 28.6593 977.525V510.546C28.6593 479.463 57.4773 454.174 92.8979 454.174H509.649C545.07 454.174 573.888 479.463 573.888 510.546V977.525C573.888 1008.61 545.07 1033.9 509.649 1033.9H92.8979Z" fill="white"/>
<path d="M509.654 458.057C542.638 458.057 569.467 481.606 569.467 510.546V977.519C569.467 1006.46 542.632 1030.01 509.654 1030.01H92.9029C59.9192 1030.01 33.0896 1006.46 33.0896 977.519V510.551C33.0896 481.606 59.9192 458.063 92.9029 458.063H509.654M509.654 450.291H92.9029C54.9804 450.291 24.2389 477.267 24.2389 510.546V977.519C24.2389 1010.8 54.9804 1037.77 92.9029 1037.77H509.654C547.577 1037.77 578.318 1010.8 578.318 977.519V510.551C578.318 477.273 547.577 450.291 509.654 450.291Z" fill="#FF95FB"/>
<path d="M512.027 450.291H90.5258C53.9133 450.291 24.2339 476.335 24.2339 508.464V527.943H578.319V508.464C578.319 476.341 548.64 450.291 512.027 450.291Z" fill="white" stroke="#FF95FB" stroke-width="1.5" stroke-miterlimit="10" stroke-linecap="round" stroke-linejoin="round"/>
<path d="M268.16 489.12C268.16 498.693 259.315 506.46 248.399 506.46C237.489 506.46 228.639 498.699 228.639 489.12C228.639 479.54 237.483 471.779 248.399 471.779C259.315 471.779 268.16 479.54 268.16 489.12Z" fill="#00826F"/>
<path d="M196.257 489.12C196.257 498.693 187.412 506.46 176.496 506.46C165.58 506.46 156.735 498.699 156.735 489.12C156.735 479.54 165.58 471.779 176.496 471.779C187.412 471.779 196.257 479.54 196.257 489.12Z" fill="#F55571"/>
<path d="M124.347 489.12C124.347 498.693 115.503 506.46 104.587 506.46C93.6709 506.46 84.826 498.699 84.826 489.12C84.826 479.54 93.6709 471.779 104.587 471.779C115.503 471.779 124.347 479.54 124.347 489.12Z" fill="#303030"/>
<path d="M208.819 747.999L100.598 710.05V678.232L208.819 640.283C222.85 635.364 238.103 644.431 238.103 657.686C238.103 665.484 232.604 672.464 224.296 675.218L137.7 703.93V684.347L224.296 713.058C232.604 715.813 238.103 722.798 238.103 730.591C238.103 743.851 222.844 752.918 208.819 747.999Z" fill="#00826F"/>
<path d="M255.893 769.979L303.787 601.868C306.165 593.527 314.709 587.67 324.51 587.67H325.938C339.833 587.67 350.029 599.129 346.66 610.961L298.766 779.071C296.388 787.413 287.844 793.269 278.043 793.269H276.615C262.72 793.269 252.524 781.805 255.893 769.979Z" fill="#00826F"/>
<path d="M364.45 657.691C364.45 644.431 379.709 635.364 393.734 640.283L501.949 678.232V710.05L393.734 747.999C379.703 752.918 364.45 743.851 364.45 730.596C364.45 722.798 369.949 715.818 378.257 713.064L464.853 684.352V703.935L378.257 675.223C369.949 672.469 364.45 665.484 364.45 657.691Z" fill="#00826F"/>
<path d="M100.598 866.868H501.955" stroke="#303030" stroke-width="1.5" stroke-miterlimit="10" stroke-linecap="round" stroke-linejoin="round"/>
<path d="M100.598 916.954H501.955" stroke="#303030" stroke-width="1.5" stroke-miterlimit="10" stroke-linecap="round" stroke-linejoin="round"/>
<path d="M100.598 967.039H501.955" stroke="#303030" stroke-width="1.5" stroke-miterlimit="10" stroke-linecap="round" stroke-linejoin="round"/>
<path d="M2130.75 1876.01C2129.42 1859.69 2093.25 1500.37 2073.24 1374.54C2046.02 1203.42 2042.05 950.128 2096.44 776.627L2376.34 777.249C2458.01 870.746 2467.8 1013.72 2275.96 1162.53L2269.63 1494.98C2260.53 1562.24 2299.9 1590.67 2279.08 1727.73C2271.44 1778 2259.77 1870.35 2257.38 1876.01C2253.3 1928.38 2135.85 1938.44 2130.75 1876.01Z" fill="#FFC4B0"/>
<path d="M1926.25 1925.56C1955.02 1918.9 1971.54 1913.33 1996.39 1900.67C2025.18 1886 2076.45 1849.91 2088.15 1841.34C2103.37 1830.19 2141.24 1831.97 2159.58 1855.26C2165.89 1852.74 2172.58 1850.75 2179.29 1851.83C2185.67 1852.87 2191.02 1856.55 2196.08 1860.12C2205.48 1866.74 2219.29 1880.54 2239.88 1873.84C2258.74 1867.69 2261.64 1851.5 2261.64 1851.5L2264.3 1832.72C2276.96 1834.46 2277.41 1842.19 2278.3 1849.53C2280.44 1867.01 2282.51 1872.55 2287.49 1896.22C2291.09 1913.38 2299.95 1934.13 2290.55 1973.16C2286.99 1994.53 2262.48 1998.47 2224.61 1998.47C2175.88 1998.47 2011.28 1998.47 2011.28 1998.47C1976.34 1998.47 1922.25 1998.47 1901.15 1998.47C1880.06 1998.47 1863.63 1983.5 1864.02 1977.08C1865.68 1948.78 1878.96 1936.51 1926.25 1925.56Z" fill="#00826F"/>
<path d="M2035.9 1938.45C2021.6 1922.3 1991.08 1906.99 1964.2 1914.86" stroke="#303030" stroke-width="1.5" stroke-miterlimit="10" stroke-linecap="round" stroke-linejoin="round"/>
<path d="M2009.66 1893.36C2022.46 1899.5 2029.63 1907.32 2038.3 1919.95" stroke="#303030" stroke-width="1.5" stroke-miterlimit="10" stroke-linecap="round" stroke-linejoin="round"/>
<path d="M1996.39 1900.67C2012.84 1900.04 2036.12 1904.2 2075.4 1910.01" stroke="#303030" stroke-width="1.5" stroke-miterlimit="10" stroke-linecap="round" stroke-linejoin="round"/>
<path d="M2042.11 1874.35C2054.9 1880.48 2060.95 1886.7 2069.63 1899.32" stroke="#303030" stroke-width="1.5" stroke-miterlimit="10" stroke-linecap="round" stroke-linejoin="round"/>
<path d="M2028.83 1881.65C2045.28 1881.03 2068.56 1885.19 2107.84 1891" stroke="#303030" stroke-width="1.5" stroke-miterlimit="10" stroke-linecap="round" stroke-linejoin="round"/>
<path d="M2073.86 1852.29C2086.65 1858.42 2094.51 1869.29 2103.18 1881.92" stroke="#303030" stroke-width="1.5" stroke-miterlimit="10" stroke-linecap="round" stroke-linejoin="round"/>
<path d="M2061.27 1862.64C2077.72 1862.01 2101 1866.18 2140.28 1871.98" stroke="#303030" stroke-width="1.5" stroke-miterlimit="10" stroke-linecap="round" stroke-linejoin="round"/>
<path d="M2285.02 1906.67C2281.34 1911.22 2276.69 1915.05 2270.75 1917.75C2258.87 1923.13 2244.55 1924.23 2231.78 1920.75C2211.66 1915.26 2196.16 1899.25 2175.3 1896.61C2160.13 1894.69 2145.14 1900.28 2131.37 1906.19C2105.93 1917.11 2066.02 1937.5 2060.88 1944.41C2055.73 1951.33 2051.53 1972.96 2047.49 1993.81" stroke="#303030" stroke-width="1.5" stroke-miterlimit="10" stroke-linecap="round" stroke-linejoin="round"/>
<path d="M1878.49 2019.93C1897.24 2024.37 2000.86 2023.73 2000.86 2023.73C2000.86 2023.73 2173.19 2023.73 2212.61 2023.73C2252.03 2023.73 2273.02 2022.64 2283.06 2010.43C2288.99 2003.23 2292.25 1991.66 2290.55 1973.16C2274.17 1985.84 2278.36 1989.44 2211 1989.44C2143.65 1989.44 1979.28 1989.9 1943.57 1989.44C1918.7 1989.12 1880.05 1992.06 1864.01 1977.08C1858.13 1983.96 1849.89 2013.16 1878.49 2019.93Z" fill="white" stroke="#303030" stroke-width="1.5" stroke-miterlimit="10" stroke-linecap="round" stroke-linejoin="round"/>
<path d="M2102.46 776.627L2376.35 777.249C2406.43 914.919 2473.83 1112.87 2480.2 1278.45C2483.38 1361.08 2489.84 1420.63 2506.97 1482.06C2536.29 1587.22 2549.04 1612.95 2554.4 1715.87C2556.13 1749.06 2554.48 1892.98 2554.4 1920.79C2469.59 2027.76 2426.65 1920.79 2426.65 1920.79C2426.65 1920.79 2395.2 1818.64 2385.86 1786.35C2355.34 1680.86 2337.41 1589.46 2305.02 1523.45C2242.59 1396.24 2185.41 1153.94 2185.41 1153.94C2185.41 1153.94 2093.01 901.979 2102.46 776.627Z" fill="#FFC4B0"/>
<path d="M2582.78 1965.77C2589.31 1984.34 2601.8 2004.8 2604.75 2024.06C2607.7 2043.32 2608.04 2061.58 2590.8 2073.78C2581.65 2080.26 2570.03 2083.38 2558.52 2085.43C2524.68 2091.48 2488.41 2091.32 2455.81 2081.31C2444.41 2077.81 2433.64 2071.19 2425.5 2063.37C2411.85 2050.26 2412.31 2031.44 2411.51 2013.7C2410.77 1997.66 2413.17 1977.3 2413.42 1961.25C2413.71 1942.38 2412.57 1929.31 2411.56 1914.52C2409.9 1890.07 2395.98 1870.68 2410.21 1867.14L2413.78 1878.56C2413.78 1878.56 2429.68 1871.54 2444.26 1878.56C2449.4 1858.2 2476.17 1849.48 2489.89 1848.08C2513.83 1845.65 2532.02 1847.51 2548.83 1858.99C2564.43 1869.65 2563.64 1884.45 2565.56 1899.98C2569.31 1930.28 2573.01 1938.05 2582.78 1965.77Z" fill="#00826F"/>
<path d="M2562.37 1987.36C2527.77 1978.55 2490.09 1979.29 2455.98 1989.46" stroke="#303030" stroke-width="1.5" stroke-miterlimit="10" stroke-linecap="round" stroke-linejoin="round"/>
<path d="M2562.37 1973.81C2538.41 1962.97 2503.8 1954.84 2454.54 1954.48" stroke="#303030" stroke-width="1.5" stroke-miterlimit="10" stroke-linecap="round" stroke-linejoin="round"/>
<path d="M2556.94 1951.24C2536.86 1954.48 2491.01 1958.89 2455.97 1973.81" stroke="#303030" stroke-width="1.5" stroke-miterlimit="10" stroke-linecap="round" stroke-linejoin="round"/>
<path d="M2555 1940.18C2532.8 1929.25 2500.77 1920.99 2455.25 1920.45" stroke="#303030" stroke-width="1.5" stroke-miterlimit="10" stroke-linecap="round" stroke-linejoin="round"/>
<path d="M2549.88 1917.6C2531.33 1920.76 2488.99 1925 2456.68 1939.77" stroke="#303030" stroke-width="1.5" stroke-miterlimit="10" stroke-linecap="round" stroke-linejoin="round"/>
<path d="M2548.54 1906.96C2527.75 1895.96 2497.79 1887.6 2455.26 1886.9" stroke="#303030" stroke-width="1.5" stroke-miterlimit="10" stroke-linecap="round" stroke-linejoin="round"/>
<path d="M2543.66 1884.37C2526.34 1887.47 2486.8 1891.56 2456.67 1906.23" stroke="#303030" stroke-width="1.5" stroke-miterlimit="10" stroke-linecap="round" stroke-linejoin="round"/>
<path d="M2409.65 1895.3C2409.65 1895.3 2423 1909.91 2426.33 1915C2433.13 1925.39 2431.61 1937.6 2431.3 1949.58C2430.98 1961.55 2429.69 1973.72 2432.82 1985.38C2434.61 1992.06 2437.83 1998.45 2438.76 2005.26C2439.89 2013.55 2437.55 2021.87 2435.23 2029.97C2431.38 2043.4 2430.18 2049.23 2426.33 2062.67" stroke="#303030" stroke-width="1.5" stroke-miterlimit="10" stroke-linecap="round" stroke-linejoin="round"/>
<path d="M2410.84 2072.03C2411.74 2081.78 2423.32 2107.85 2484.25 2115.63C2532.65 2121.81 2573.14 2113.31 2593.86 2098.22C2608.14 2087.75 2609.49 2062.11 2606.32 2034.73L2605.96 2034.62C2607.23 2049.9 2604.82 2063.83 2590.79 2073.76C2581.68 2080.23 2570.05 2083.39 2558.5 2085.44C2524.68 2091.49 2488.43 2091.33 2455.82 2081.32C2444.44 2077.81 2433.61 2071.22 2425.52 2063.38C2411.85 2050.25 2412.3 2031.43 2411.53 2013.72C2411.43 2011.76 2411.39 2009.74 2411.4 2007.68C2409.59 2036.72 2408.91 2050.97 2410.84 2072.03Z" fill="white" stroke="#303030" stroke-width="1.5" stroke-miterlimit="10" stroke-linecap="round" stroke-linejoin="round"/>
<path d="M2559.59 1696.31C2559.59 1629.48 2553.79 1611.45 2538.27 1558.35C2513.55 1473.76 2500.1 1428.45 2490.64 1322.67C2473.97 1136.26 2539.46 924.663 2391.57 791.265L2088.8 790.763C2018.02 923.032 2019.55 1133.17 2043.78 1334.42C2056.5 1440.15 2064.67 1444.92 2072.63 1505.11C2084.67 1596.09 2089.78 1614.65 2103.07 1703.95C2164.7 1735.58 2242.37 1733.53 2288.22 1704.04C2299.62 1653.87 2293.87 1600.79 2289.08 1557.12C2283.98 1510.62 2282.24 1488.73 2282.24 1488.73C2282.24 1488.73 2284.78 1497.59 2304.19 1548.3C2309.01 1560.89 2330 1616.39 2355.13 1712.06C2406.36 1743.35 2522.49 1739.08 2559.59 1696.31Z" fill="#00826F"/>
<path d="M2099.87 1682.68C2078.91 1686.16 2088.41 1706.12 2091.27 1726.23C2094.13 1746.34 2087.36 1768.45 2103.77 1780.88C2120.18 1793.31 2155.09 1801.88 2200.21 1802.89C2245.32 1803.9 2288.04 1785.29 2294.34 1774.97C2304.82 1757.79 2298.6 1730.04 2303.16 1713.65C2307.72 1697.26 2304.41 1687.41 2291.64 1685.81L2288.69 1702.02C2288.69 1702.02 2259.66 1725.73 2194.18 1723.22C2128.7 1720.72 2102.45 1699.69 2102.45 1699.69L2099.87 1682.68Z" fill="#00826F"/>
<path d="M2288.68 1702.02C2288.68 1702.02 2259.66 1725.73 2194.17 1723.22C2128.69 1720.72 2102.44 1699.69 2102.44 1699.69" stroke="#303030" stroke-width="1.5" stroke-miterlimit="10" stroke-linecap="round" stroke-linejoin="round"/>
<path d="M2350.94 1696.31C2328.49 1702.13 2340.63 1721.81 2346.44 1741.46C2352.24 1761.12 2347.77 1783.84 2367.38 1794.33C2386.97 1804.82 2426.29 1809.38 2475.74 1805.29C2525.2 1801.19 2569.41 1777.89 2574.92 1766.93C2584.09 1748.69 2573.59 1721.83 2576.39 1705.04C2579.19 1688.25 2573.59 1678.15 2559.41 1678.01L2559.58 1696.32C2559.58 1696.32 2530.45 1721.94 2458.52 1726.85C2386.6 1731.77 2355.13 1712.07 2355.13 1712.07L2350.94 1696.31Z" fill="#00826F"/>
<path d="M2559.59 1696.31C2559.59 1696.31 2530.45 1721.94 2458.53 1726.85C2386.61 1731.76 2355.14 1712.06 2355.14 1712.06" stroke="#303030" stroke-width="1.5" stroke-miterlimit="10" stroke-linecap="round" stroke-linejoin="round"/>
<path d="M2356.2 795.651C2391.46 840.549 2458.03 924.265 2460.04 1068.78C2461.82 1197.33 2463.36 1321.54 2490.42 1438.5C2512.96 1535.97 2564.01 1598.15 2559.59 1696.31" stroke="#303030" stroke-width="1.5" stroke-miterlimit="10" stroke-linecap="round" stroke-linejoin="round"/>
<path d="M2430.15 918.771C2386.36 933.197 2368.45 909.394 2348.44 872.418C2328.42 835.438 2305.24 798.359 2305.24 798.359" stroke="#303030" stroke-width="1.5" stroke-miterlimit="10" stroke-linecap="round" stroke-linejoin="round"/>
<path d="M2163.76 796.293C2163.05 810.491 2150.21 905.914 2150.21 954.307C2150.21 996.662 2166.51 1037.37 2178.93 1069.04C2214.08 1158.64 2216.83 1275.44 2255.04 1402.99C2264.67 1435.12 2283.72 1505.11 2283.72 1505.11" stroke="#303030" stroke-width="1.5" stroke-miterlimit="10" stroke-linecap="round" stroke-linejoin="round"/>
<path d="M2150.21 967.816C2163.84 962.032 2186.9 958.051 2191.02 898.966C2195.13 839.881 2200.9 798.359 2200.9 798.359" stroke="#303030" stroke-width="1.5" stroke-miterlimit="10" stroke-linecap="round" stroke-linejoin="round"/>
<path d="M2237.36 442.897C2241.28 442.834 2244.2 443.87 2250.1 444.139C2255.33 444.372 2261.24 442.99 2266.24 441.757C2267.53 441.442 2283.15 435.213 2281.84 434.488C2295.53 442.053 2311.25 447.81 2327.41 447.049C2343.56 446.288 2359.96 437.688 2364.78 424.137C2371.43 433.659 2385.39 438.744 2397.78 436.155C2391.85 429.248 2391.64 418.975 2397.28 411.886C2400.45 407.904 2405.96 401.214 2409.58 397.543C2417.96 389.067 2422.07 375.392 2420.25 364.291C2418.23 351.973 2411.54 342.766 2401.22 334.259C2390.43 325.364 2382.44 317.462 2379.32 307.117C2372.43 284.23 2372.82 266.455 2337.12 255.555C2327.93 250.274 2288.82 224.954 2227.02 240.254C2165.22 255.555 2152.42 293.618 2152.42 293.618C2094.1 302.783 2102.45 335.926 2106.26 344.454C2109.71 352.185 2117.63 359.403 2115.32 367.455C2113.47 373.891 2105.87 377.443 2100.66 382.263C2090.9 391.304 2089.84 406.113 2096.7 417.007C2103.57 427.901 2117.22 434.814 2131.31 436.295C2127.69 430.49 2127.86 423.008 2131.75 417.333C2133.38 426.918 2141.5 434.969 2151.23 439.557C2167.82 447.381 2190.13 448.711 2208.46 447.365C2216.12 446.806 2223.33 445.853 2230.69 443.911C2233.42 443.202 2235.51 442.928 2237.36 442.897Z" fill="#303030"/>
<path d="M2370.45 292.712C2373.06 315.655 2399.42 325.037 2414.85 340.519C2430.04 355.753 2429.2 380.032 2412.33 394.079C2402.58 402.193 2388.63 408.919 2388.75 422.33C2388.78 425.659 2394.68 425.67 2394.65 422.33C2394.54 410.198 2409.48 404.104 2417.87 396.565C2425.35 389.839 2429.83 380.953 2431.2 371.68C2432.54 362.504 2430.71 352.925 2425.55 344.817C2419.52 335.331 2409.41 328.693 2399.97 321.982C2389.43 314.485 2377.78 305.32 2376.35 292.712C2375.98 289.429 2370.07 289.398 2370.45 292.712Z" fill="#303030"/>
<path d="M2136.89 287.125C2120.16 291.174 2101.45 299.324 2096.94 315.427C2094.54 323.991 2096.65 333.022 2101.01 340.82C2105.28 348.441 2115.89 355.804 2114.16 365.052C2112.19 375.563 2097.77 379.731 2088.91 372.544C2086.13 370.287 2081.95 373.937 2084.74 376.205C2091.47 381.668 2101.85 383.149 2109.92 378.996C2118.05 374.812 2122.1 365.715 2119.36 357.813C2117.86 353.469 2114.75 349.839 2111.77 346.215C2108.37 342.098 2105.44 337.785 2103.68 332.913C2100.34 323.629 2101.51 313.61 2109.05 306.159C2116.62 298.677 2127.69 294.721 2138.45 292.116C2142.11 291.231 2140.56 286.234 2136.89 287.125Z" fill="#303030"/>
<path d="M2271.67 419.909C2333.2 411.144 2374.99 360.259 2365.01 306.254C2355.02 252.248 2297.03 215.573 2235.5 224.338C2173.96 233.102 2132.17 283.987 2142.15 337.992C2152.14 391.998 2210.13 428.673 2271.67 419.909Z" fill="#303030"/>
<path d="M2307.14 254.67C2304.76 320.807 2343.23 335.667 2343.23 335.667C2338.03 344.154 2334.03 353.158 2331.35 362.432C2339.83 352.905 2352.49 345.36 2366.64 344.563C2380.8 343.766 2395.93 351.134 2399.37 362.681C2402.78 374.093 2393.89 386.364 2381.31 391.553C2368.73 396.741 2351.59 396.891 2336.25 389.761L2336.23 389.751C2330.26 401.018 2317.78 412.202 2300.08 419.461L2302.15 470.873L2318.81 474.777L2193.46 550.172L2195.92 475.657L2215.72 471.411L2221.62 430.029C2197.96 427.622 2129.36 407.842 2142.27 328.833C2144.86 312.973 2151.11 298.459 2159.71 285.991H2159.72C2192.38 241.538 2256.15 236.77 2307.14 254.67Z" fill="#FFC4B0"/>
<path d="M2382.1 363.53C2378.82 361.562 2370.82 360.107 2362.79 362.075C2354.76 364.042 2348.15 369.645 2345.87 376.392" stroke="#303030" stroke-width="1.5" stroke-miterlimit="10" stroke-linecap="round" stroke-linejoin="round"/>
<path d="M2368.44 371.328C2366.02 369.893 2357.56 366.269 2349.39 370.235" stroke="#303030" stroke-width="1.5" stroke-miterlimit="10" stroke-linecap="round" stroke-linejoin="round"/>
<path d="M2248.71 348.783C2248.75 350.585 2250.46 352.014 2252.52 351.973C2254.57 351.931 2256.2 350.435 2256.15 348.628C2256.1 346.826 2254.4 345.397 2252.34 345.438C2250.29 345.48 2248.66 346.981 2248.71 348.783Z" fill="#D48983"/>
<path d="M2266.25 361.107C2266.3 362.908 2268.01 364.337 2270.07 364.296C2272.12 364.255 2273.75 362.758 2273.7 360.951C2273.65 359.144 2271.95 357.72 2269.89 357.762C2267.83 357.803 2266.21 359.299 2266.25 361.107Z" fill="#D48983"/>
<path d="M2282.91 350.87C2282.96 352.672 2284.66 354.101 2286.72 354.059C2288.78 354.018 2290.4 352.522 2290.36 350.714C2290.31 348.913 2288.6 347.483 2286.55 347.525C2284.49 347.566 2282.86 349.068 2282.91 350.87Z" fill="#D48983"/>
<path d="M2182.17 344.724C2182.22 346.526 2183.92 347.955 2185.98 347.913C2188.04 347.872 2189.66 346.375 2189.62 344.568C2189.57 342.766 2187.87 341.337 2185.81 341.379C2183.75 341.42 2182.12 342.922 2182.17 344.724Z" fill="#D48983"/>
<path d="M2165.53 356.043C2165.58 357.844 2167.28 359.274 2169.34 359.232C2171.4 359.191 2173.03 357.694 2172.98 355.887C2172.93 354.08 2171.23 352.656 2169.17 352.698C2167.11 352.744 2165.48 354.241 2165.53 356.043Z" fill="#D48983"/>
<path d="M2152.78 342.932C2152.82 344.734 2154.53 346.163 2156.59 346.122C2158.64 346.08 2160.27 344.584 2160.22 342.777C2160.17 340.975 2158.47 339.546 2156.41 339.587C2154.36 339.629 2152.73 341.125 2152.78 342.932Z" fill="#D48983"/>
<path d="M2271.37 426.571C2271.37 426.571 2252.5 433.11 2221.61 430.019L2219.96 441.592C2219.96 441.592 2249.95 443.554 2271.37 426.571Z" fill="#303030"/>
<path d="M2228.08 309.975C2227.55 316.789 2225.37 325.042 2216.19 337.609C2215.12 339.069 2213.97 340.54 2213.51 342.228C2212.84 344.76 2213.86 347.458 2215.6 349.565C2217.33 351.672 2219.72 353.288 2222.11 354.831" stroke="#303030" stroke-width="1.5" stroke-miterlimit="10" stroke-linecap="round" stroke-linejoin="round"/>
<path d="M2160.1 317.664C2164.28 310.715 2173.6 306.428 2182.84 307.21C2192.09 307.992 2204.42 313.801 2204.55 325.363C2198.89 336.097 2169.3 334.968 2160.1 317.664Z" fill="white"/>
<path d="M2165.76 321.444C2167.8 327.222 2175.06 330.417 2181.97 328.579C2188.87 326.741 2192.81 320.569 2190.76 314.79C2188.72 309.012 2181.46 305.817 2174.55 307.655C2167.65 309.493 2163.71 315.665 2165.76 321.444Z" fill="#303030"/>
<path d="M2191.71 314.604L2178.26 318.114L2192.38 320.885L2191.71 314.604Z" fill="white"/>
<path d="M2204.56 325.363C2200.42 315.132 2192.17 311.58 2184.16 309.711C2175.38 307.665 2168.38 308.846 2160.25 314.894" stroke="#303030" stroke-width="1.5" stroke-miterlimit="10" stroke-linecap="round" stroke-linejoin="round"/>
<path d="M2152.41 308.898C2153.51 311.922 2156.68 314.278 2160.26 314.733" stroke="#303030" stroke-width="1.5" stroke-miterlimit="10" stroke-linecap="round" stroke-linejoin="round"/>
<path d="M2200.91 285.1C2187.69 282.677 2174.75 285.483 2164.62 291.919" stroke="#303030" stroke-width="1.5" stroke-miterlimit="10" stroke-linecap="round" stroke-linejoin="round"/>
<path d="M2292.63 326.461C2289.41 319.129 2280.73 313.915 2271.44 313.739C2262.15 313.563 2249.13 318.063 2247.45 329.532C2251.64 340.768 2281.19 342.699 2292.63 326.461Z" fill="white"/>
<path d="M2250.98 329.464C2253.16 335.201 2260.49 338.267 2267.35 336.304C2274.21 334.342 2278 328.097 2275.82 322.36C2273.63 316.623 2266.31 313.558 2259.44 315.52C2252.59 317.483 2248.79 323.727 2250.98 329.464Z" fill="#303030"/>
<path d="M2276.76 322.153L2263.4 325.912L2277.58 328.424L2276.76 322.153Z" fill="white"/>
<path d="M2247.45 329.532C2252.93 319.797 2261.6 317.12 2269.81 316.09C2278.8 314.961 2285.59 316.851 2292.86 323.701" stroke="#303030" stroke-width="1.5" stroke-miterlimit="10" stroke-linecap="round" stroke-linejoin="round"/>
<path d="M2301.44 318.544C2299.95 321.433 2296.48 323.448 2292.86 323.53" stroke="#303030" stroke-width="1.5" stroke-miterlimit="10" stroke-linecap="round" stroke-linejoin="round"/>
<path d="M2259.03 288.222C2275.38 287.088 2285.67 289.424 2297.14 299.282" stroke="#303030" stroke-width="1.5" stroke-miterlimit="10" stroke-linecap="round" stroke-linejoin="round"/>
<path d="M2234.95 374.854C2227.63 375.496 2218.78 377.117 2216.45 382.833C2212.44 376.216 2206.56 374.46 2206.56 374.46C2206.56 374.46 2213.37 370.81 2220.96 371.219C2228.55 371.623 2234.95 374.854 2234.95 374.854Z" fill="#303030"/>
<path d="M2247.27 377.412C2245.09 380.575 2236.03 388.275 2221.06 386.923C2217.8 386.54 2217.59 384.764 2216.45 382.828C2216.85 380.109 2221.66 374.833 2234.95 374.849C2238.52 376.723 2243.71 377.427 2247.27 377.412Z" fill="white"/>
<path d="M2199.46 374.941C2206.79 374.951 2213.63 371.037 2220.96 371.213C2226.68 371.353 2231.88 373.942 2237.27 375.625C2242.66 377.307 2249.26 377.918 2253.59 374.636" stroke="#303030" stroke-width="1.5" stroke-miterlimit="10" stroke-linecap="round" stroke-linejoin="round"/>
<path d="M2205.9 374.662C2210.82 376.744 2214.85 379.664 2217.13 384.024C2217.49 384.728 2218.09 386.452 2221.06 386.929C2226.49 387.804 2241.33 386.023 2247.54 377.034" stroke="#303030" stroke-width="1.5" stroke-miterlimit="10" stroke-linecap="round" stroke-linejoin="round"/>
<path d="M2233.59 235.662C2213.33 254.271 2212.07 287.596 2222.51 295.373C2232.96 303.15 2323.47 307.137 2323.47 307.137C2323.47 307.137 2336.76 267.878 2316.19 251.496C2295.62 235.108 2233.59 235.662 2233.59 235.662Z" fill="#303030"/>
<path d="M2233.59 235.662C2207.87 239.317 2194.83 266.967 2189.62 280.523C2184.4 294.079 2176.99 299.075 2148.57 299.288C2120.15 299.495 2146.25 220.076 2233.59 235.662Z" fill="#303030"/>
<path d="M2045.82 715.829C2082.74 679.557 2133.15 624.827 2133.15 624.827L2144.75 491.589C2107.98 497.14 2079.11 509.878 2049.92 542.312C2030.26 564.152 1940.07 662.786 1940.07 662.786C1940.07 662.786 1845.44 686.936 1834.17 688.355C1822.91 689.773 1803.9 692.295 1792.63 686.304C1784.8 682.141 1780.51 680.339 1772.48 676.59C1755.15 668.503 1735.18 669.398 1716.17 668.456C1712.71 668.285 1709.17 668.119 1705.84 668.984C1702.52 669.849 1699.4 671.956 1698.54 674.902C1697.48 678.532 1700.1 682.276 1703.44 684.606C1706.78 686.936 1710.85 688.324 1714.35 690.467C1721.72 694.982 1707.25 693.781 1704.81 693.771C1689.65 693.698 1674.56 692.228 1659.47 691.177C1639.13 689.763 1635.33 690.69 1629.96 694.195C1619.22 701.201 1624.41 706.286 1624.41 706.286C1624.41 706.286 1612.12 702.537 1608.63 710.915C1605.13 719.293 1617.79 723.927 1617.79 723.927C1617.79 723.927 1617.81 738.161 1630.29 744.328C1646.67 752.416 1660.62 757.656 1682.16 760.55C1703.7 763.45 1734.31 768.995 1779.58 767.752C1824.84 766.505 1893.74 765.189 1949.83 760.483C1998.93 756.366 2008.9 752.1 2045.82 715.829Z" fill="#FFC4B0"/>
<path d="M1680.18 749.853C1674.49 747.616 1670.52 744.587 1652.05 733.304C1649.92 731.999 1647.59 730.358 1647.45 728.074C1647.34 726.179 1648.86 724.47 1650.65 723.409C1655.65 720.452 1662.39 721.374 1668.03 723.217C1686.96 729.405 1706.1 744.763 1726.42 733.335C1731.05 730.731 1735.2 727.489 1739.99 725.128C1753.52 718.449 1771.73 720.054 1783.48 728.954" stroke="#303030" stroke-width="1.5" stroke-miterlimit="10" stroke-linecap="round" stroke-linejoin="round"/>
<path d="M1617.8 723.932C1623.37 721.001 1630.49 723.497 1647.65 726.723" stroke="#303030" stroke-width="1.5" stroke-miterlimit="10" stroke-linecap="round" stroke-linejoin="round"/>
<path d="M1624.41 706.291C1634.33 707.57 1681.72 713.001 1681.72 713.001" stroke="#303030" stroke-width="1.5" stroke-miterlimit="10" stroke-linecap="round" stroke-linejoin="round"/>
<path d="M2092.8 500.304C2063.91 512.777 2050.55 530.853 2022.18 562.273C1998.08 588.965 1981.8 608.688 1981.8 608.688C1981.8 608.688 1994.21 635.509 2031.82 660.86C2064.79 683.094 2099.68 685.005 2099.68 685.005L2153.55 627.861L2092.8 500.304Z" fill="white" stroke="#303030" stroke-width="1.5" stroke-miterlimit="10" stroke-linecap="round" stroke-linejoin="round"/>
<path d="M1994.01 594.257L1977.24 613.622C1977.24 613.622 1983.07 633.671 2025.47 660.907C2064.66 686.076 2098.73 685.947 2098.73 685.947L2116.39 667.281C2116.39 667.281 2082.56 669.01 2041.11 641.66C2013.29 623.305 1994.01 594.257 1994.01 594.257Z" fill="#F55571" stroke="#303030" stroke-width="1.5" stroke-miterlimit="10" stroke-linecap="round" stroke-linejoin="round"/>
<path d="M2089.32 759.768L2087.55 795.786C2087.55 795.786 2111.86 816.772 2183.42 821.08C2254.99 825.382 2348.95 811.076 2391.59 791.276L2388.7 750.919L2089.32 759.768Z" fill="#303030"/>
<path d="M2291.63 825.538L2275.29 826.076L2266.64 773.547L2282.98 773.008L2291.63 825.538Z" fill="#00826F"/>
<path d="M2101.72 814.354L2114.85 814.39L2120.17 761.627L2107.05 761.591L2101.72 814.354Z" fill="#00826F"/>
<path d="M2170.42 784.819C2138.11 782.276 2133.23 812.117 2168.18 815.327C2192.43 817.553 2195.98 816.963 2196.49 803.216C2197.13 785.062 2192.69 786.569 2170.42 784.819Z" stroke="white" stroke-width="1.5" stroke-miterlimit="10" stroke-linecap="round" stroke-linejoin="round"/>
<path d="M2196.44 802.284L2179.33 801.279" stroke="white" stroke-width="1.5" stroke-miterlimit="10" stroke-linecap="round" stroke-linejoin="round"/>
<path d="M2092.8 500.304C2138.76 483.279 2172.98 474.932 2172.98 474.932C2189.62 456.323 2200.98 448.385 2215.14 446.795L2215.7 471.401C2208.29 494.178 2210.69 524.412 2210.69 524.412C2210.69 524.412 2276.77 480.654 2305.03 463.235L2305.82 441.664C2305.82 441.664 2315.89 445.843 2330.74 474.932C2351.5 479.116 2416.88 499.077 2444.36 510.064C2444.36 510.064 2455.39 535.669 2415 643.659C2391.59 706.286 2409.75 741.946 2390.32 755.864C2370.88 769.787 2327.72 784.28 2219.96 783.643C2147.42 783.214 2093.93 761.332 2087.46 754.818C2071.58 738.844 2076.82 678.801 2076.82 678.801C2076.82 678.801 2056.35 650.126 2060.18 622.041C2063.97 594.293 2073.26 579.748 2088.87 557.83L2092.8 500.304Z" fill="white" stroke="#303030" stroke-width="1.5" stroke-miterlimit="10" stroke-linecap="round" stroke-linejoin="round"/>
<path d="M2195.02 552.782C2186.04 569.279 2175.14 589.928 2170.96 607.838C2160.11 654.382 2163.28 690.074 2163.28 757.852" stroke="#303030" stroke-width="1.5" stroke-miterlimit="10" stroke-linecap="round" stroke-linejoin="round"/>
<path d="M2215.14 534.556L2247.54 525.318L2268.89 564.116C2268.89 564.116 2330.73 522.854 2330.73 474.932" stroke="#303030" stroke-width="1.5" stroke-miterlimit="10" stroke-linecap="round" stroke-linejoin="round"/>
<path d="M2199.46 531.982L2193.45 513.016C2193.45 513.016 2161.14 533.018 2154.63 543.016C2148.12 518.732 2172.98 474.932 2172.98 474.932" stroke="#303030" stroke-width="1.5" stroke-miterlimit="10" stroke-linecap="round" stroke-linejoin="round"/>
<path d="M2088.86 557.835C2103.79 537.89 2114.7 528.197 2114.7 528.197" stroke="#303030" stroke-width="1.5" stroke-miterlimit="10" stroke-linecap="round" stroke-linejoin="round"/>
<path d="M2285.57 880.247C2306.96 874.417 2316.99 861.897 2317.37 843.676C2317.47 838.866 2314.76 834.33 2310.43 831.368L2298.35 823.104L2256.75 869.395L2268.86 877.679C2273.59 880.915 2279.84 881.806 2285.57 880.247Z" fill="#F55571" stroke="#303030" stroke-width="2" stroke-miterlimit="10" stroke-linecap="round" stroke-linejoin="round"/>
<path d="M2008.49 695.479C2012.08 675.529 2024.47 661.595 2045.64 653.678C2047.89 652.839 2050.33 653.119 2052.07 654.31L2293.3 819.583C2297.05 822.151 2299.22 826.309 2298.78 830.886C2297.1 848.217 2286.98 860.68 2266.92 867.417C2261.54 869.218 2255.87 868.727 2251.76 865.915L2010.75 700.792C2009.02 699.606 2008.11 697.602 2008.49 695.479Z" fill="#303030" stroke="#303030" stroke-width="2" stroke-miterlimit="10" stroke-linecap="round" stroke-linejoin="round"/>
<path d="M1952.76 639.035C1954.58 628.933 1960.85 621.876 1971.58 617.868C1972.72 617.443 1973.95 617.583 1974.83 618.189L2135.96 728.452C2137.86 729.752 2138.96 731.859 2138.74 734.179C2137.89 742.956 2132.76 749.267 2122.61 752.68C2119.89 753.591 2117.01 753.342 2114.93 751.919L1953.91 641.728C1953.03 641.122 1952.57 640.107 1952.76 639.035Z" fill="#303030" stroke="#303030" stroke-width="2" stroke-miterlimit="10" stroke-linecap="round" stroke-linejoin="round"/>
<path d="M2057.36 669.279L2258.93 806.701" stroke="white" stroke-width="2" stroke-miterlimit="10" stroke-linecap="round" stroke-linejoin="round"/>
<path d="M1763.74 211.367C1603.71 193.793 1457.72 293.4 1437.69 433.835C1417.66 574.265 1531.17 702.382 1691.2 719.955C1851.23 737.534 1997.17 637.917 2017.21 497.482C2037.23 357.052 1923.77 228.941 1763.74 211.367ZM1696.53 682.638C1559.96 667.638 1463.13 558.348 1480.21 438.506C1497.3 318.705 1621.84 233.73 1758.41 248.731C1894.93 263.726 1991.76 373.016 1974.68 492.811C1957.58 612.654 1833.05 697.628 1696.53 682.638Z" fill="#303030" stroke="#303030" stroke-width="2" stroke-miterlimit="10" stroke-linecap="round" stroke-linejoin="round"/>
<path d="M1783.16 213.5C1623.13 195.921 1477.13 295.534 1457.11 435.968C1437.08 576.398 1550.59 704.515 1710.62 722.089C1870.65 739.662 2016.59 640.05 2036.62 499.615C2056.65 359.186 1943.19 231.074 1783.16 213.5ZM1715.94 684.766C1579.38 669.766 1482.54 560.476 1499.63 440.634C1516.72 320.833 1641.26 235.858 1777.83 250.859C1914.35 265.854 2011.18 375.144 1994.09 494.94C1977.01 614.787 1852.46 699.762 1715.94 684.766Z" fill="#F55571" stroke="#303030" stroke-width="2" stroke-miterlimit="10" stroke-linecap="round" stroke-linejoin="round"/>
<path d="M1607.26 365.503L1880.85 565.25" stroke="#FF95FB" stroke-width="2" stroke-miterlimit="10" stroke-linecap="round" stroke-linejoin="round"/>
<path d="M1685.32 315.292L1880.37 457.7" stroke="#FF95FB" stroke-width="2" stroke-miterlimit="10" stroke-linecap="round" stroke-linejoin="round"/>
<path d="M1599.61 473.27L1794.66 615.678" stroke="#FF95FB" stroke-width="2" stroke-miterlimit="10" stroke-linecap="round" stroke-linejoin="round"/>
<path d="M2209.47 822.269C2211.09 818.018 2215.82 814.886 2220.15 812.846C2228.99 808.678 2238.62 806.026 2248.34 803.981C2253.24 802.951 2258.18 802.143 2263.1 801.211C2266.42 800.584 2270.41 798.86 2266.98 795.8C2260.5 790.032 2251.81 786.376 2243.38 783.078C2236.79 780.494 2229.49 778.107 2225.23 772.821C2220.33 766.752 2224.91 761.755 2231.67 762.076C2254.3 763.164 2277.45 773.892 2297.7 782.845C2319.7 792.574 2344.33 803.427 2368.97 794.076C2409.77 778.589 2453.28 726.774 2453.26 726.727C2453.26 726.727 2400.1 648.235 2400.1 638.729C2400.1 638.729 2391.58 552.786 2444.35 510.068C2466.08 519.166 2488.32 554.79 2503.41 584.278C2515.39 607.682 2551.15 670.863 2561.01 689.156C2579.82 724.045 2581.8 746.563 2545.17 776.828C2516.98 800.118 2445.2 845.29 2402.6 860.218C2388.28 865.241 2372.81 868.316 2357.33 868.125C2337.63 867.876 2320.07 858.018 2300.46 858.049C2292.91 858.059 2286.96 857.748 2279.43 858.292C2264.81 859.343 2255.6 862.103 2248.01 857.769C2244.77 855.91 2240.59 851.043 2245.91 844.892C2240.07 847.103 2233.58 847.765 2228.15 844.436C2224.21 842.018 2220 837.083 2227.21 831.305C2223.79 832.62 2219.89 833.216 2216.28 832.372C2210.83 831.093 2207.64 827.038 2209.47 822.269Z" fill="#FFC4B0"/>
<path d="M2280.64 818.563C2259.6 818.258 2244.73 821.049 2227.22 831.301" stroke="#303030" stroke-width="1.5" stroke-miterlimit="10" stroke-linecap="round" stroke-linejoin="round"/>
<path d="M2288.6 837.131C2268.24 836.09 2256.64 838.177 2245.91 844.888" stroke="#303030" stroke-width="1.5" stroke-miterlimit="10" stroke-linecap="round" stroke-linejoin="round"/>
<path d="M2501 705.587C2474.79 705.587 2460.59 720.546 2453.26 726.723" stroke="#303030" stroke-width="1.5" stroke-miterlimit="10" stroke-linecap="round" stroke-linejoin="round"/>
<path d="M2444.35 510.064C2467.22 520.829 2478.82 540.21 2494.01 564.116C2516.46 599.455 2540.94 644.115 2540.94 644.115C2540.94 644.115 2474.08 697.126 2428.92 702.273L2408.33 676.389C2392.56 656.557 2385.11 632.521 2387.53 608.434C2390.77 576.051 2410.38 541.012 2444.35 510.064Z" fill="white" stroke="#303030" stroke-width="1.5" stroke-miterlimit="10" stroke-linecap="round" stroke-linejoin="round"/>
<path d="M2417.12 687.433L2430.65 705.592C2430.65 705.592 2451.16 704.525 2494.03 683.596C2536.9 662.662 2546.37 640.19 2546.37 640.19L2533.56 620.157C2533.56 620.157 2521.31 644.099 2479.56 665.598C2455.81 677.818 2417.12 687.433 2417.12 687.433Z" fill="#F55571" stroke="#303030" stroke-width="1.5" stroke-miterlimit="10" stroke-linecap="round" stroke-linejoin="round"/>
</g>
<defs>
<filter id="filter0_d_11_712" x="0" y="0" width="2531" height="2072" filterUnits="userSpaceOnUse" color-interpolation-filters="sRGB">
<feFlood flood-opacity="0" result="BackgroundImageFix"/>
<feColorMatrix in="SourceAlpha" type="matrix" values="0 0 0 0 0 0 0 0 0 0 0 0 0 0 0 0 0 0 127 0" result="hardAlpha"/>
<feOffset dy="4"/>
<feGaussianBlur stdDeviation="2"/>
<feComposite in2="hardAlpha" operator="out"/>
<feColorMatrix type="matrix" values="0 0 0 0 0 0 0 0 0 0 0 0 0 0 0 0 0 0 0.25 0"/>
<feBlend mode="normal" in2="BackgroundImageFix" result="effect1_dropShadow_11_712"/>
<feBlend mode="normal" in="SourceGraphic" in2="effect1_dropShadow_11_712" result="shape"/>
</filter>
<clipPath id="clip0_11_712">
<rect width="2523" height="2064" fill="white" transform="translate(4)"/>
</clipPath>
</defs>
</svg>
