<svg width="2523" height="2064" viewBox="0 0 2523 2064" fill="none" xmlns="http://www.w3.org/2000/svg">
<g clip-path="url(#clip0_10_511)">
<path d="M499.694 1688.64C544.174 1650.48 559.137 1603.45 564.22 1537.07C566.577 1503.75 563.094 1470.2 554.007 1438.68C544.919 1407.15 530.438 1378.4 511.542 1354.34C479.935 1314.62 436.439 1288.51 412.868 1241.03C387.779 1190.62 388.64 1121.51 353.794 1080.58C329.853 1052.5 294.844 1044.99 265.737 1025.54C242.002 1009.66 222.488 985.967 200.761 966.207C179.034 946.448 153.248 930.066 126.314 932.535C85.6887 936.316 54.0408 985.362 52.114 1035.42C50.1872 1085.47 72.8983 1133.36 103.972 1165.77C126.519 1189.31 154.273 1207.3 169.031 1238.81C196.743 1297.94 167.801 1379.95 197.727 1437.71C219.454 1479.8 268.771 1499.92 275.617 1549.06C278.118 1567.16 273.936 1585.56 274.059 1603.91C274.428 1661.22 318.006 1707.44 363.92 1717.57C409.834 1727.71 456.609 1710.06 499.858 1688.64" fill="#F5F5F5"/>
<path d="M214.371 1134.01C215.795 1136.46 217.431 1138.71 219.249 1140.72L234.008 1158.96C240.526 1166.73 248.397 1176.35 256.924 1188.25C265.451 1200.15 275.904 1212.8 285.989 1228.58C291.195 1236.24 296.648 1244.25 302.387 1252.62C308.126 1260.99 313.332 1270.26 319.113 1279.54C330.919 1297.94 342.029 1318.96 354.081 1340.73C379.164 1388.81 401.452 1439 420.779 1490.94C439.541 1543.28 455.268 1597.18 467.841 1652.25C473.089 1677.8 478.5 1701.95 481.862 1725.03C483.665 1736.53 485.961 1747.52 487.15 1758.3C488.339 1769.09 489.733 1779.32 490.921 1789.2C493.709 1808.86 494.652 1826.86 496.087 1842.63C497.522 1858.41 498.259 1871.97 498.669 1882.96C499.079 1893.95 499.612 1902.06 499.94 1908.62C499.966 1911.64 500.255 1914.64 500.801 1917.59C501.126 1914.62 501.223 1911.61 501.088 1908.62C501.088 1902.01 501.088 1893.49 500.842 1882.86C500.596 1872.22 500.432 1857.96 499.202 1842.13C497.973 1826.3 497.399 1808.21 494.857 1788.4C493.736 1778.31 492.575 1767.93 491.372 1757.24C490.143 1746.46 488.093 1735.32 486.371 1723.77C483.214 1700.49 478.172 1676.19 472.802 1650.43C460.409 1594.97 444.679 1540.72 425.74 1488.12C406.285 1435.75 383.732 1385.21 358.263 1336.9C345.964 1315.12 334.732 1294.1 322.679 1275.76C316.776 1266.48 311.365 1257.26 305.625 1248.94L288.981 1225.05C278.651 1209.57 268.074 1196.92 259.178 1185.38C250.282 1173.83 242.289 1164.36 235.524 1156.85L220.028 1139.51C218.278 1137.47 216.384 1135.64 214.371 1134.01Z" fill="#E0E0E0"/>
<path d="M2493.39 707.922C2493.39 707.922 2454.28 676.115 2406.6 791.144C2358.93 906.173 2341.01 972.609 2341.01 972.609C2341.01 972.609 2328.39 996.704 2314.94 980.926C2301.49 965.149 2283.05 920.438 2260.17 928.553C2236.44 936.871 2228.61 969.433 2233.11 1017.32C2237.62 1065.21 2244.43 1170.46 2245.04 1179.98C2245.66 1189.51 2241.23 1203.12 2230.7 1194.2C2220.16 1185.28 2159.32 1102 2128.91 1139.86C2098.49 1177.72 2128.91 1308.47 2132.02 1322.84C2135.14 1337.2 2132.84 1343.35 2127.27 1346.93C2121.69 1350.51 2103.45 1320.12 2085.37 1297.28C2067.29 1274.45 2043.06 1251.91 2026.99 1275.56C2010.92 1299.2 2005.8 1397.34 2081.76 1556.73L2120.87 1627.75L2190.85 1622.96C2340.07 1601.54 2400.66 1537.27 2406.36 1507.43C2412.06 1477.59 2382.79 1467.1 2357.16 1463.22C2331.54 1459.34 2300.76 1459.49 2299.77 1451.93C2298.79 1444.37 2301.33 1438.37 2312.52 1432.77C2323.71 1427.18 2426.98 1378.28 2433.21 1325.66C2439.44 1273.03 2348.8 1263.46 2336.67 1258.47C2324.53 1253.48 2330.8 1240.88 2337.24 1235.83C2343.68 1230.79 2416.2 1173.88 2450.02 1149.54C2483.84 1125.19 2500.24 1097.87 2491.38 1069.54C2482.81 1042.22 2442.68 1051.04 2424.35 1047.31C2406.03 1043.58 2414.07 1016.72 2414.07 1016.72C2414.07 1016.72 2446.04 958.848 2492 842.912C2537.95 726.976 2492.57 707.367 2492.57 707.367" fill="#EBEBEB"/>
<path d="M2450.55 810.853C2450.55 810.853 2450.3 811.71 2449.69 813.323C2449.07 814.936 2448.13 817.406 2446.98 820.531C2444.48 826.933 2440.88 836.157 2436.28 848.053C2426.94 871.997 2413.29 906.475 2396.27 948.867C2362.21 1033.95 2314.28 1151 2261.28 1280.04C2208.27 1409.08 2160.06 1526.03 2125.71 1610.91L2085.08 1711.42C2080.29 1723.22 2076.6 1732.44 2074.01 1738.8C2072.74 1741.82 2071.8 1744.14 2071.1 1745.85L2070.04 1748.22C2070.04 1748.22 2070.28 1747.36 2070.9 1745.75L2073.6 1738.54C2076.1 1732.14 2079.71 1722.87 2084.3 1710.97C2093.61 1687.08 2107.3 1652.6 2124.31 1610.16C2158.38 1525.07 2206.3 1408.02 2259.35 1278.93C2312.4 1149.84 2360.49 1033 2394.88 948.162L2435.51 847.6L2446.57 820.279C2447.85 817.255 2448.79 814.885 2449.48 813.222C2450.18 811.559 2450.55 810.853 2450.55 810.853Z" fill="#E0E0E0"/>
<path d="M2283.78 992.217C2284.55 994.08 2285.14 996.041 2285.55 998.065C2286.57 1001.85 2287.88 1007.39 2289.65 1014.25C2292.8 1027.96 2296.78 1047.01 2300.84 1068.18C2304.9 1089.35 2308.38 1107.9 2311.09 1122.37L2314.28 1138.75C2314.82 1140.73 2315.15 1142.77 2315.27 1144.85C2314.51 1142.99 2313.91 1141.03 2313.51 1139C2312.48 1135.22 2311.17 1129.68 2309.61 1122.82C2306.58 1109.06 2302.81 1089.91 2298.75 1068.79C2294.69 1047.67 2290.96 1029.12 2288.17 1014.7C2286.86 1008.2 2285.75 1002.75 2284.89 998.316C2284.33 996.344 2283.96 994.297 2283.78 992.217Z" fill="#E0E0E0"/>
<path d="M2321.54 1146.36C2321.54 1145.66 2352.98 1133.86 2392.17 1120C2431.36 1106.14 2463.22 1095.5 2463.38 1096.21C2463.55 1096.91 2431.94 1108.71 2392.75 1122.57C2353.56 1136.43 2321.7 1147.07 2321.54 1146.36Z" fill="#E0E0E0"/>
<path d="M2232.62 1340.03C2234.33 1339.73 2236.06 1339.63 2237.79 1339.72H2251.77C2263.61 1339.72 2279.93 1339.72 2297.93 1338.82C2315.92 1337.91 2332.2 1336.6 2344.01 1335.44L2357.94 1334.08C2359.66 1333.87 2361.39 1333.87 2363.11 1334.08C2361.47 1334.72 2359.78 1335.14 2358.07 1335.34C2354.79 1335.94 2349.87 1336.7 2344.13 1337.51C2332.36 1339.17 2316.09 1340.88 2298.01 1341.69C2279.93 1342.5 2263.57 1342.29 2251.77 1341.69C2245.82 1341.39 2241.07 1341.08 2237.75 1340.78C2236.02 1340.77 2234.3 1340.52 2232.62 1340.03Z" fill="#E0E0E0"/>
<path d="M2173.39 1209.87C2174.45 1211.32 2175.36 1212.93 2176.09 1214.66L2182.86 1228.27C2188.47 1239.77 2196.1 1255.8 2204.42 1273.64C2212.74 1291.48 2220.16 1307.61 2225.45 1319.36L2231.6 1333.37C2232.44 1335.03 2233.1 1336.8 2233.57 1338.66C2232.52 1337.2 2231.61 1335.59 2230.86 1333.88L2224.1 1320.32C2218.48 1308.77 2210.85 1292.74 2202.53 1274.95C2194.21 1257.16 2186.79 1241.03 2181.54 1229.23C2179.12 1223.74 2177.03 1219.15 2175.39 1215.22C2174.55 1213.55 2173.87 1211.75 2173.39 1209.87Z" fill="#E0E0E0"/>
<path d="M2077.42 1368.61C2078.72 1370.54 2079.87 1372.61 2080.86 1374.81L2089.55 1392.15C2096.81 1406.87 2106.73 1427.43 2117.55 1449.96C2128.37 1472.5 2138.05 1493.21 2145.02 1508.13C2148.3 1515.34 2151 1521.34 2153.22 1525.93C2154.3 1528.06 2155.21 1530.32 2155.92 1532.68C2154.63 1530.74 2153.48 1528.67 2152.48 1526.48L2143.79 1509.09C2136.53 1494.37 2126.61 1473.81 2115.79 1451.32C2104.97 1428.84 2095.29 1408.08 2088.32 1393.1L2080.12 1375.31C2079.04 1373.19 2078.14 1370.94 2077.42 1368.61Z" fill="#E0E0E0"/>
<path d="M2154.86 1528.09C2157.01 1527.65 2159.19 1527.46 2161.37 1527.54L2179.12 1526.78C2194.13 1526.18 2214.83 1525.22 2237.62 1523.41C2260.42 1521.59 2281.08 1519.27 2296 1517.46L2313.71 1515.34C2315.87 1514.95 2318.05 1514.8 2320.23 1514.89C2318.12 1515.62 2315.97 1516.13 2313.79 1516.4C2309.69 1517.21 2303.63 1518.21 2296.21 1519.37C2281.28 1521.64 2260.66 1524.41 2237.79 1526.03C2214.91 1527.64 2194.17 1528.55 2179.17 1528.7C2171.66 1528.7 2165.6 1528.7 2161.37 1528.7C2159.19 1528.75 2157.01 1528.55 2154.86 1528.09Z" fill="#E0E0E0"/>
<path d="M1650.58 129.199H1932.01C1937.89 129.199 1943.53 132.072 1947.69 137.186C1951.85 142.3 1954.19 149.236 1954.19 156.469V385.77C1954.19 393.003 1951.85 399.939 1947.69 405.053C1943.53 410.168 1937.89 413.041 1932.01 413.041H1783.94L1713.47 499.69V413.041H1650.58C1646.23 413.041 1642.06 410.916 1638.98 407.135C1635.91 403.354 1634.18 398.225 1634.18 392.878V149.412C1634.18 146.76 1634.6 144.133 1635.42 141.68C1636.24 139.228 1637.45 137 1638.97 135.122C1640.49 133.244 1642.3 131.755 1644.3 130.738C1646.29 129.722 1648.42 129.199 1650.58 129.199Z" fill="#E0E0E0"/>
<path d="M1743.97 275.934C1743.97 279.921 1743 283.82 1741.2 287.135C1739.4 290.451 1736.84 293.035 1733.84 294.562C1730.85 296.088 1727.55 296.487 1724.37 295.709C1721.19 294.931 1718.27 293.011 1715.97 290.191C1713.68 287.371 1712.12 283.778 1711.49 279.867C1710.85 275.956 1711.18 271.902 1712.42 268.218C1713.66 264.533 1715.76 261.384 1718.46 259.169C1721.15 256.953 1724.32 255.771 1727.57 255.771C1731.92 255.771 1736.09 257.895 1739.16 261.676C1742.24 265.458 1743.97 270.586 1743.97 275.934Z" fill="#FAFAFA"/>
<path d="M1809.48 275.934C1809.48 279.921 1808.51 283.82 1806.71 287.135C1804.91 290.451 1802.35 293.035 1799.35 294.562C1796.36 296.088 1793.06 296.487 1789.88 295.709C1786.7 294.931 1783.78 293.011 1781.48 290.191C1779.19 287.371 1777.63 283.778 1776.99 279.867C1776.36 275.956 1776.69 271.902 1777.93 268.218C1779.17 264.533 1781.27 261.384 1783.97 259.169C1786.66 256.953 1789.83 255.771 1793.08 255.771C1797.43 255.771 1801.6 257.895 1804.67 261.676C1807.75 265.458 1809.48 270.586 1809.48 275.934Z" fill="#FAFAFA"/>
<path d="M1874.94 275.934C1874.94 279.921 1873.98 283.82 1872.18 287.135C1870.38 290.451 1867.82 293.035 1864.82 294.562C1861.82 296.088 1858.53 296.487 1855.35 295.709C1852.17 294.931 1849.24 293.011 1846.95 290.191C1844.66 287.371 1843.1 283.778 1842.46 279.867C1841.83 275.956 1842.16 271.902 1843.4 268.218C1844.64 264.533 1846.74 261.384 1849.44 259.169C1852.13 256.953 1855.3 255.771 1858.55 255.771C1862.9 255.771 1867.07 257.895 1870.14 261.676C1873.22 265.458 1874.94 270.586 1874.94 275.934Z" fill="#FAFAFA"/>
<path d="M2107.79 1860.53C2037.37 1776.3 2036.14 1646 2054.5 1532.88C2057.53 1513.98 2058.6 1493.62 2068.07 1478.39C2077.54 1463.17 2096.32 1455.21 2109.06 1465.99C2119.68 1474.97 2122.51 1492.41 2127.14 1507.28C2133.33 1527.11 2143.95 1544.39 2157.77 1557.13C2166.79 1565.35 2178.26 1571.65 2189.05 1567.21C2203.56 1560.81 2208.15 1538.48 2210.57 1519.58C2215.02 1484.29 2219.5 1449.01 2224.01 1413.72C2226.43 1394.82 2228.97 1375.46 2236.11 1358.27C2243.24 1341.08 2256.07 1326.77 2271.36 1324.65C2286.65 1322.53 2303.38 1336.55 2304.16 1355.65C2304.45 1363.62 2302.11 1371.38 2301.49 1379.29C2300.88 1387.21 2302.68 1396.53 2308.46 1399.91C2314.24 1403.29 2321.17 1399.25 2326.5 1394.62C2344.91 1378.69 2358.93 1356.26 2372.25 1333.83C2385.57 1311.39 2398.65 1288.46 2415.79 1270.36C2432.92 1252.27 2455.06 1240.12 2477.28 1242.79C2499.5 1245.46 2520.77 1267.09 2522.82 1294.81C2524.87 1322.53 2508.64 1347.08 2492 1365.88C2467.35 1393.82 2439.54 1417.22 2409.43 1435.35C2404.02 1438.62 2398.16 1442.15 2395.37 1448.75C2390.37 1460.7 2398.45 1475.17 2408 1481.32C2418.86 1488.32 2431.49 1489.33 2443.25 1493.52C2455.02 1497.7 2467.11 1506.72 2469.82 1521.59C2473.55 1542.16 2457.73 1559.8 2443.01 1570.49C2413.58 1591.87 2381.38 1606.86 2347.82 1614.79C2335.85 1617.62 2323.22 1619.84 2312.93 1627.65C2302.64 1635.46 2294.73 1651.49 2298.5 1665.91C2302.27 1680.32 2315.8 1687.43 2328.02 1687.13C2340.23 1686.83 2351.88 1680.98 2363.85 1678.01C2386.31 1672.46 2413.37 1679.72 2423.9 1704.87C2430.87 1721.41 2428.91 1742.12 2422.06 1758.86C2415.21 1775.59 2404.1 1788.85 2392.58 1800.9C2352.25 1842.99 2303.67 1873.63 2251.85 1884.67C2200.03 1895.71 2153.87 1892.34 2108.08 1860.68" fill="#BA68C8"/>
<path d="M2095.5 1944.71C2106.8 1892.75 2122.13 1842.25 2141.29 1793.89C2164.88 1734.95 2191.21 1677.72 2220.16 1622.51L2242.71 1578.85C2250.13 1564.54 2257.51 1550.37 2265.42 1537.07C2280.61 1511.5 2296.96 1487 2314.37 1463.67C2330.76 1441.24 2347.16 1420.73 2362.58 1401.67C2377.99 1382.62 2392.63 1365.28 2406.52 1350.11C2428.31 1326.04 2451.61 1304.13 2476.21 1284.58C2484.95 1277.67 2491.83 1272.58 2496.71 1269.46L2502.08 1265.63C2502.68 1265.17 2503.31 1264.79 2503.97 1264.47C2503.42 1265.01 2502.84 1265.52 2502.25 1265.98L2497 1270.06C2492.41 1273.59 2485.6 1278.88 2476.99 1285.94C2452.65 1305.82 2429.54 1327.91 2407.88 1352.02C2394.1 1367.14 2379.59 1384.74 2364.3 1403.84C2349.01 1422.95 2332.77 1443.51 2316.38 1465.94C2299.07 1489.19 2282.81 1513.59 2267.67 1539.03C2259.84 1552.29 2252.55 1566.4 2245.09 1580.72C2237.62 1595.03 2230.2 1609.6 2222.58 1624.22C2193.71 1679.37 2167.37 1736.45 2143.66 1795.2C2124.48 1843.33 2109.01 1893.57 2097.46 1945.26" fill="#263238"/>
<path d="M2266.28 1537.02C2265.89 1534.25 2265.74 1531.45 2265.83 1528.65C2265.83 1523.26 2265.83 1515.49 2265.83 1505.81C2266.12 1486.56 2267.3 1459.99 2268.7 1430.71C2270.09 1401.42 2270.99 1374.86 2271.08 1355.65C2271.08 1346.02 2271.08 1338.26 2271.08 1332.87C2270.89 1330.08 2270.98 1327.27 2271.32 1324.5C2271.86 1327.22 2272.15 1330.01 2272.18 1332.82C2272.59 1338.16 2272.92 1345.97 2273.13 1355.6C2273.58 1374.86 2273.13 1401.52 2271.61 1430.86C2270.09 1460.2 2268.86 1485.95 2267.88 1505.92C2267.47 1514.94 2267.14 1522.55 2266.89 1528.7C2266.92 1531.49 2266.72 1534.28 2266.28 1537.02Z" fill="#263238"/>
<path d="M2470.02 1531.22C2467.28 1531.38 2464.54 1531.23 2461.82 1530.77C2456.66 1530.31 2449.2 1529.61 2440.02 1529.1C2421.57 1527.84 2396.07 1527.29 2367.91 1528.14C2339.74 1529 2314.28 1531.22 2295.88 1533.44C2286.69 1534.45 2279.48 1535.55 2274.15 1536.26C2271.44 1536.83 2268.7 1537.09 2265.95 1537.02C2268.51 1535.98 2271.15 1535.26 2273.82 1534.85C2278.91 1533.74 2286.12 1532.28 2295.51 1530.92C2313.92 1528.04 2339.41 1525.47 2367.7 1524.57C2391.8 1523.73 2415.93 1524.4 2439.97 1526.58C2449.2 1527.44 2456.66 1528.5 2461.78 1529.41C2464.57 1529.66 2467.34 1530.26 2470.02 1531.22Z" fill="#263238"/>
<path d="M2144.36 1789.91C2144.36 1789.91 2143.91 1788.85 2143.38 1786.68C2142.84 1784.52 2142.07 1780.99 2141.16 1777.21C2139.28 1768.99 2136.78 1757.04 2133.87 1741.92C2128 1712.18 2120.99 1670.75 2113.74 1624.93C2106.48 1579.11 2099.8 1537.62 2094.47 1507.73C2091.85 1493.21 2089.67 1481.27 2088.03 1472.45C2087.38 1468.56 2086.8 1465.39 2086.35 1462.82C2086.1 1461.7 2085.96 1460.55 2085.94 1459.39C2085.94 1459.39 2086.39 1460.45 2086.93 1462.62C2087.46 1464.78 2088.24 1468.31 2089.14 1472.09C2091.03 1480.31 2093.53 1492.26 2096.44 1507.38C2102.26 1537.12 2109.31 1578.55 2116.57 1624.42C2123.82 1670.29 2130.51 1711.68 2135.83 1741.57L2142.23 1776.85C2142.93 1780.68 2143.5 1783.91 2143.95 1786.48C2144.21 1787.6 2144.35 1788.75 2144.36 1789.91Z" fill="#263238"/>
<path d="M2420.87 1738.44C2419.97 1738.85 2419.04 1739.12 2418.08 1739.25L2409.88 1740.86L2380.24 1746.41C2355.24 1751.15 2320.76 1758.15 2282.68 1765.91C2244.59 1773.68 2210.28 1780.48 2185.07 1784.41C2172.52 1786.48 2162.36 1787.99 2155.31 1788.85L2147.11 1789.81C2146.17 1790 2145.22 1790 2144.28 1789.81C2145.18 1789.39 2146.11 1789.12 2147.07 1789L2155.27 1787.39L2184.86 1781.84C2209.87 1777.11 2244.39 1770.1 2282.47 1762.34C2320.56 1754.57 2355.12 1747.92 2380.24 1743.84C2392.79 1741.77 2402.96 1740.26 2410.01 1739.4L2418.21 1738.44C2419.09 1738.31 2419.99 1738.31 2420.87 1738.44Z" fill="#263238"/>
<path d="M216.38 1462.92C238.558 1455.61 262.827 1462.51 282.34 1477.33C301.576 1493.05 317.621 1513.99 329.238 1538.53C352.81 1584.85 360.886 1646.9 361.665 1701.55C312.472 1698.72 270.493 1650.79 250.488 1624.83C218.881 1583.79 181.944 1486.06 216.38 1463.12" fill="#BA68C8"/>
<path d="M440.826 1738.34C420.657 1718.89 411.761 1684.61 416.229 1653.56C418.782 1638.06 423.82 1623.34 431.048 1610.27C438.277 1597.19 447.552 1586.01 458.331 1577.39C468.128 1569.18 480.304 1562.72 491.659 1566.96C496.898 1569.33 501.522 1573.39 505.049 1578.71C508.575 1584.03 510.874 1590.42 511.706 1597.2C513.27 1610.85 511.855 1624.77 507.606 1637.53C494.939 1681.63 476.122 1721.46 440.826 1738.75" fill="#BA68C8"/>
<path d="M485.592 1911.19C483.59 1908.23 481.934 1904.93 480.673 1901.41C477.844 1894.96 473.827 1885.48 469.195 1873.63C456.588 1842.77 447.405 1809.96 441.892 1776.1C436.071 1735.77 440.334 1698.17 448.533 1673.52C451.568 1663.68 455.618 1654.36 460.586 1645.79C462.228 1642.5 464.29 1639.56 466.694 1637.07C467.555 1637.73 458.782 1650.43 451.813 1675.03C443.343 1707.32 441.623 1741.72 446.811 1775.04C452.306 1808.39 460.888 1840.87 472.392 1871.82C480.878 1895.91 486.248 1910.78 485.592 1911.19Z" fill="#263238"/>
<path d="M249.832 1534.29C253.719 1538.43 257.3 1542.99 260.531 1547.9C267.172 1556.93 276.601 1570.18 288.121 1586.72C311.119 1619.73 342.316 1666.06 375.767 1718.23C409.219 1770.4 438.448 1818.54 459.192 1853.82C469.563 1871.47 477.844 1885.83 483.419 1895.91C486.519 1900.92 489.262 1906.25 491.618 1911.84C488.039 1907.32 484.762 1902.45 481.821 1897.28L456.322 1856.4C434.882 1821.82 405.161 1774.13 371.791 1722.01C338.421 1669.89 307.675 1623.21 285.374 1589.49L258.932 1549.42C255.568 1544.69 252.525 1539.63 249.832 1534.29Z" fill="#263238"/>
<path d="M407.538 1805.69C386.21 1785.08 361.196 1771.03 334.569 1764.68C307.941 1758.33 280.467 1759.88 254.423 1769.19C241.264 1774.23 226.629 1783.96 225.317 1800.8C224.005 1817.63 236.836 1831.04 249.217 1838.45C275.233 1853.63 304.322 1859.01 332.817 1853.89C361.313 1848.78 387.94 1833.41 409.342 1809.72" fill="#BA68C8"/>
<path d="M287.178 1800.04C289.894 1798.48 292.78 1797.41 295.746 1796.86C299.142 1795.8 302.594 1795.03 306.076 1794.55C310.651 1793.64 315.263 1793.05 319.891 1792.78C331.981 1791.93 344.109 1792.59 356.09 1794.75C385.573 1800.03 413.647 1813.7 438.079 1834.67C448.004 1843.19 457.206 1852.92 465.546 1863.7C468.804 1867.77 471.857 1872.08 474.688 1876.61C476.965 1879.88 479.048 1883.35 480.919 1886.99C482.77 1889.87 484.275 1893.06 485.387 1896.47C484.608 1897.17 477.557 1884.12 463.045 1866.73C454.537 1856.61 445.319 1847.43 435.497 1839.31C423.372 1829.54 410.508 1821.23 397.085 1814.51C383.573 1808.11 369.58 1803.36 355.311 1800.34C343.62 1797.97 331.78 1796.89 319.933 1797.12C299.927 1797.62 287.383 1801.2 287.178 1800.04Z" fill="#263238"/>
<path d="M961.541 163.274L927.146 198.559L910.42 189.385L906.977 171.944C906.977 171.944 943.872 138.423 942.519 136.659C939.072 132.588 934.609 130.066 929.852 129.501C920.988 128.093 912.03 131.046 904.927 137.718L898.45 143.716C892.512 149.077 887.9 156.359 885.128 164.751C882.356 173.143 881.533 182.316 882.749 191.25C882.809 191.776 882.891 192.297 882.995 192.812L781.041 297.004C774.169 294.199 766.735 294.27 759.899 297.205C753.063 300.14 747.209 305.774 743.25 313.228C739.291 320.683 737.45 329.539 738.014 338.416C738.577 347.292 741.514 355.689 746.366 362.298C751.218 368.907 757.712 373.355 764.836 374.95C771.96 376.544 779.312 375.195 785.747 371.113C792.182 367.031 797.337 360.445 800.409 352.383C803.48 344.32 804.295 335.234 802.727 326.542L903.533 222.502C907.537 226.79 912.696 229.09 918.004 228.954C923.073 229.073 928.109 227.928 932.808 225.589C937.508 223.25 941.773 219.765 945.348 215.344L953.875 205.263C958.107 199.76 961.053 192.954 962.402 185.564C963.751 178.174 963.454 170.473 961.541 163.274ZM764.766 352.149C762.045 350.661 759.745 348.213 758.157 345.116C756.568 342.019 755.763 338.412 755.842 334.752C755.922 331.092 756.883 327.543 758.604 324.555C760.326 321.567 762.729 319.274 765.51 317.967C768.292 316.66 771.326 316.397 774.23 317.212C777.133 318.026 779.774 319.882 781.819 322.543C783.864 325.205 785.22 328.553 785.717 332.163C786.213 335.773 785.827 339.483 784.608 342.824C783.801 345.06 782.641 347.078 781.196 348.76C779.751 350.441 778.048 351.754 776.188 352.621C774.327 353.488 772.345 353.893 770.357 353.812C768.368 353.731 766.412 353.166 764.602 352.149H764.766Z" fill="#BA68C8"/>
<path d="M1115.72 403.715L1005.94 415.007L1006.31 414.755C987.58 442.314 964.26 464.609 937.923 480.131C911.585 495.654 882.844 504.043 853.643 504.731C829.451 505.141 805.38 500.453 782.476 490.869C757.706 480.434 734.818 464.189 715.081 443.033C693.484 419.98 676.05 391.624 663.899 359.79C651.749 327.956 645.15 293.348 644.529 258.19C644.242 253.593 644.242 248.976 644.529 244.379C644.529 239.792 644.939 235.154 645.103 230.517C645.336 225.88 645.815 221.266 646.537 216.705L648.382 202.743C649.161 198.156 650.227 193.619 651.129 189.082C652.031 184.546 652.892 179.858 654.162 175.422C655.433 170.986 656.786 166.55 658.262 162.115L660.23 155.41C660.885 153.193 661.869 151.075 662.648 148.908C674.888 115.86 692.705 86.3919 714.917 62.4599C735.713 39.8751 760.058 22.7779 786.444 12.2262C812.83 1.6744 840.696 -2.10747 868.319 1.11453C903.727 5.16047 937.673 20.4435 966.835 45.4673C995.996 70.491 1019.37 104.398 1034.68 143.867C1037.04 149.39 1039.06 155.118 1040.74 161.006C1042.42 166.802 1044.19 172.448 1045.74 178.144C1048.39 189.261 1050.46 200.575 1051.93 212.018C1052.55 217.562 1053.41 222.956 1053.78 228.349C1054.15 233.743 1054.19 239.086 1054.39 244.278C1054.39 246.899 1054.39 249.319 1054.72 252.041C1055.05 254.763 1054.52 257.081 1054.43 259.652C1054.43 264.693 1054.07 269.734 1053.86 274.371V273.917C1092.76 355.174 1113.71 398.876 1115.97 403.665L1052.84 274.724C1053 269.952 1053.16 265.063 1053.33 260.055C1053.33 257.535 1053.53 255.015 1053.57 252.494C1053.61 249.974 1053.37 247.454 1053.25 244.782C1053.04 239.741 1052.79 234.348 1052.59 228.954C1052.39 223.561 1051.28 218.268 1050.66 212.723C1049.19 201.381 1047.12 190.167 1044.47 179.152C1042.92 173.507 1041.15 167.911 1039.43 162.165C1037.75 156.336 1035.73 150.66 1033.4 145.178C1019.97 110.296 1000.13 79.7246 975.456 55.871C950.78 32.0174 921.937 15.5326 891.199 7.71442C860.46 -0.103725 828.666 0.958241 798.318 10.8167C767.97 20.6751 739.897 39.0609 716.31 64.5266C694.357 88.2765 676.751 117.484 664.657 150.219C663.837 152.386 662.894 154.402 662.238 156.62L660.271 163.274L656.171 176.43C654.9 180.866 654.203 185.453 653.178 189.939C652.154 194.425 651.211 198.912 650.432 203.448C649.653 207.985 649.325 212.622 648.751 217.159C648.062 221.691 647.597 226.269 647.357 230.87C647.152 235.457 646.947 239.993 646.783 244.58C646.517 249.128 646.517 253.693 646.783 258.241C647.715 309.231 661.297 358.654 685.71 399.888C710.123 441.122 744.2 472.198 783.378 488.954C806.071 498.465 829.915 503.152 853.889 502.816C882.856 502.193 911.379 493.953 937.541 478.651C963.703 463.349 986.899 441.339 1005.57 414.099H1005.82L1115.72 403.715Z" fill="#263238"/>
<path d="M2071.76 608.469H518.511C485.523 608.469 458.782 641.35 458.782 681.912V1895.16C458.782 1935.72 485.523 1968.6 518.511 1968.6H2071.76C2104.75 1968.6 2131.49 1935.72 2131.49 1895.16V681.912C2131.49 641.35 2104.75 608.469 2071.76 608.469Z" fill="#455A64"/>
<path d="M391.181 1867.99H2203.43V1897.28C2203.43 1921.07 2195.75 1943.89 2182.06 1960.72C2168.38 1977.55 2149.82 1987 2130.46 1987H464.152C454.569 1987 445.081 1984.68 436.227 1980.17C427.374 1975.66 419.33 1969.05 412.554 1960.72C405.778 1952.39 400.403 1942.5 396.736 1931.61C393.069 1920.73 391.181 1909.06 391.181 1897.28V1867.99Z" fill="#455A64"/>
<path d="M2084.26 662.505H506.048V1811.08H2084.26V662.505Z" fill="#F5F5F5"/>
<path d="M1132.57 1867.99H1139.62H1160.12L1236.57 1867.59L1492.26 1866.93H1494.14L1493.2 1868.95C1490 1875.7 1486.52 1882.96 1483.08 1890.32C1479.63 1897.68 1475.78 1905.44 1472.33 1912.9L1472.01 1913.56H1471.39L1154.95 1912.85H1154.67V1912.55L1138.27 1879.43L1134.17 1871.01L1132.82 1868.24L1134.42 1871.16C1135.44 1873.18 1136.92 1875.95 1138.84 1879.58C1142.7 1886.99 1148.39 1897.83 1155.73 1911.94L1155.32 1911.64L1471.76 1910.94L1470.82 1911.59L1481.56 1888.96C1485.04 1881.65 1488.49 1874.34 1491.73 1867.59L1492.63 1869.6L1238.01 1868.9L1160.82 1868.29H1139.87H1134.42L1132.57 1867.99Z" fill="#263238"/>
<path fill-rule="evenodd" clip-rule="evenodd" d="M1083.54 876.18C1086.42 871.466 1089.8 867.245 1093.58 863.629L1091.21 847.549L1111.42 836.913L1119.21 850.17C1123.95 849.388 1128.77 849.388 1133.51 850.17L1141.06 836.762L1161.55 846.844L1159.46 862.974C1163.29 866.527 1166.72 870.678 1169.67 875.323L1182.75 872.4L1191.4 897.251L1180.62 906.828C1181.25 912.666 1181.25 918.582 1180.62 924.42L1191.52 933.745L1183.32 958.949L1170.24 956.378C1167.36 961.097 1163.98 965.333 1160.2 968.98L1162.58 985.009L1142.37 995.645L1134.58 982.388C1129.82 983.17 1124.99 983.17 1120.23 982.388L1112.69 995.847L1092.19 985.765L1094.28 969.635C1090.43 966.096 1086.99 961.943 1084.03 957.285L1071 960.209L1062.43 935.157L1073.21 925.579C1072.55 919.743 1072.55 913.824 1073.21 907.987L1062.43 898.662L1070.63 873.458L1083.75 876.029L1083.54 876.18ZM1105.43 904.106C1103.67 909.409 1103.22 915.237 1104.15 920.852C1105.08 926.467 1107.34 931.618 1110.64 935.654C1113.95 939.691 1118.16 942.431 1122.73 943.528C1127.31 944.626 1132.04 944.032 1136.34 941.822C1140.64 939.612 1144.31 935.884 1146.89 931.11C1149.47 926.336 1150.83 920.73 1150.82 915C1150.81 909.27 1149.41 903.673 1146.81 898.917C1144.22 894.161 1140.53 890.459 1136.22 888.278C1133.35 886.828 1130.28 886.087 1127.18 886.097C1124.08 886.108 1121.02 886.87 1118.16 888.341C1115.3 889.811 1112.7 891.96 1110.52 894.665C1108.33 897.37 1106.61 900.579 1105.43 904.106Z" fill="#E0E0E0"/>
<path fill-rule="evenodd" clip-rule="evenodd" d="M1001.59 1397.39C1009.94 1383.71 1019.71 1371.44 1030.66 1360.89L1023.73 1314.32L1082.31 1283.62L1104.9 1321.98C1118.66 1319.51 1132.62 1319.3 1146.43 1321.38L1168.28 1282.46L1227.39 1311.7L1221.28 1358.37C1232.42 1368.62 1242.4 1380.64 1250.96 1394.11L1288.84 1385.64L1313.81 1457.88L1282.61 1485.6C1284.63 1502.52 1284.78 1519.7 1283.06 1536.66L1314.75 1563.58L1290.97 1636.22L1253.01 1628.71C1244.68 1642.4 1234.91 1654.67 1223.95 1665.2L1230.84 1711.78L1172.25 1742.53L1149.71 1704.17C1135.95 1706.62 1121.98 1706.81 1108.18 1704.72L1086.33 1743.63L1027.21 1714.45L1033.32 1667.72C1022.18 1657.49 1012.19 1645.47 1003.64 1631.98L965.763 1640.5L940.757 1568.47L971.954 1540.7C969.957 1523.79 969.805 1506.64 971.503 1489.68L939.855 1462.92L963.591 1390.23L1001.59 1397.74V1397.39ZM1064.97 1478.34C1059.93 1493.76 1058.72 1510.68 1061.49 1526.94C1064.27 1543.21 1070.9 1558.1 1080.56 1569.73C1090.22 1581.36 1102.47 1589.2 1115.75 1592.27C1129.03 1595.34 1142.76 1593.5 1155.19 1586.98C1167.63 1580.45 1178.21 1569.55 1185.6 1555.63C1192.99 1541.71 1196.85 1525.41 1196.71 1508.79C1196.57 1492.17 1192.42 1475.98 1184.79 1462.26C1177.16 1448.54 1166.39 1437.91 1153.85 1431.72C1145.52 1427.61 1136.61 1425.56 1127.63 1425.68C1118.66 1425.8 1109.79 1428.1 1101.54 1432.44C1093.28 1436.78 1085.81 1443.08 1079.53 1450.97C1073.26 1458.86 1068.31 1468.2 1064.97 1478.44V1478.34Z" fill="#F5F5F5"/>
<path d="M740.62 1539.28C741.53 1535.67 742.915 1532.27 744.72 1529.2C749.647 1520.45 756.892 1514.07 765.217 1511.16C771.432 1508.94 778.004 1508.7 784.315 1510.46C790.625 1512.23 796.468 1515.94 801.292 1521.24C804.122 1524.26 806.556 1527.79 808.508 1531.72C810.577 1535.79 812.113 1540.23 813.058 1544.88C815.158 1554.72 814.626 1565.13 811.54 1574.58C808.454 1584.02 802.978 1591.99 795.922 1597.3C789.409 1602.3 781.825 1604.78 774.154 1604.41C767.213 1604.11 760.469 1601.49 754.64 1596.85C748.479 1591.94 743.599 1584.95 740.582 1576.71C737.565 1568.48 736.54 1559.35 737.628 1550.42C738.052 1546.6 738.98 1542.89 740.374 1539.44C739.575 1543.11 738.932 1546.82 738.448 1550.58C737.486 1560.85 739.332 1571.22 743.695 1580.06C746.886 1586.55 751.35 1591.96 756.678 1595.78C762.007 1599.6 768.029 1601.72 774.195 1601.94C781.428 1602.2 788.561 1599.81 794.692 1595.09C801.381 1590.07 806.584 1582.56 809.536 1573.64C812.488 1564.71 813.033 1554.86 811.09 1545.54C809.319 1536.81 805.481 1528.94 800.063 1522.9C795.152 1517.5 789.172 1513.78 782.722 1512.12C777.087 1510.7 771.261 1510.92 765.709 1512.77C757.536 1515.4 750.318 1521.33 745.212 1529.61C741.973 1535.5 740.866 1539.44 740.62 1539.28Z" fill="#263238"/>
<path d="M705.775 1494.52H704.463L700.363 1493.87L684.621 1490.99L684.99 1490.69L672.036 1531.02L671.831 1530.21L689.418 1544.98L689.705 1545.28V1545.74C688.815 1555.06 688.925 1564.48 690.033 1573.76V1574.27L689.664 1574.62L672.446 1589.99L672.692 1588.89L686.63 1628.66L685.687 1628.05L706.635 1623.31H707.168L707.496 1623.87C712.228 1631.24 717.743 1637.8 723.894 1643.38L724.386 1643.78V1644.48C723.361 1652.5 722.213 1661.32 721.066 1670.34L720.451 1669.03L753.246 1685.16L752.058 1685.62L764.151 1664.04L764.479 1663.44H765.094C772.644 1664.55 780.28 1664.43 787.805 1663.08H788.42L788.789 1663.69L801.292 1684.91L800.021 1684.51L832.448 1667.47L831.792 1668.93C830.562 1660.77 829.292 1651.99 827.98 1643.17V1642.37L828.472 1641.86C834.459 1636.13 839.795 1629.43 844.337 1621.95L844.747 1621.3H845.403L866.433 1625.48L865.244 1626.29C869.671 1612.85 874.058 1599.4 878.403 1585.96L878.772 1587.52L861.267 1572.4L860.735 1571.95V1571.19C861.656 1561.91 861.573 1552.52 860.489 1543.27V1542.51L861.022 1542.06L878.28 1526.94L877.911 1528.45L864.137 1488.58L865.244 1489.33L844.255 1493.97H843.681L843.312 1493.36C838.577 1485.98 833.062 1479.4 826.914 1473.81L826.463 1473.4V1472.7C827.652 1463.83 828.759 1455.26 829.866 1446.84L830.439 1448.05L797.644 1431.82L798.628 1431.46L786.329 1452.94L786.042 1453.44H785.591C778.027 1452.2 770.362 1452.2 762.798 1453.44H762.388L762.142 1453.04C757.633 1445.33 753.533 1438.37 749.844 1431.77L750.582 1432.02L718.073 1449.11L718.36 1448.45C719.836 1458.53 721.066 1467.2 722.049 1474.26V1474.51C717.499 1478.86 713.286 1483.72 709.464 1489.03L706.717 1493.06L705.775 1494.37C705.999 1493.86 706.26 1493.37 706.553 1492.91C707.127 1491.95 707.988 1490.54 709.177 1488.73C712.853 1483.27 716.974 1478.28 721.476 1473.86V1474.26C720.369 1467.25 719.098 1458.78 717.376 1448.5V1448.05H717.745L750.09 1430.86H750.582L750.869 1431.36L763.413 1452.53L762.716 1452.18C770.388 1450.78 778.177 1450.64 785.878 1451.78L785.181 1452.18C788.994 1445.33 792.97 1438.17 797.234 1430.61L797.603 1429.95L798.218 1430.25L831.013 1446.33L831.71 1446.64V1447.49C830.603 1455.91 829.497 1464.48 828.349 1473.35L827.98 1472.24C834.224 1478.04 839.82 1484.82 844.624 1492.41L843.681 1492L864.629 1487.26H865.408L865.736 1488.17C870.191 1501.14 874.809 1514.42 879.592 1527.99L879.92 1528.95L879.223 1529.56L862.005 1544.68L862.415 1543.47C863.543 1552.94 863.626 1562.55 862.661 1572.05L862.21 1570.84L879.756 1585.71L880.453 1586.31L880.125 1587.27L867.007 1627.6L866.679 1628.56H865.818L844.788 1624.42L845.854 1623.87C841.136 1631.52 835.623 1638.39 829.456 1644.28L829.825 1642.97C831.136 1651.84 832.448 1660.61 833.678 1668.73V1669.79L832.858 1669.59L800.431 1686.57L799.652 1686.98L799.161 1686.17L786.862 1664.9L787.846 1665.45C780.141 1666.79 772.325 1666.88 764.602 1665.71L765.586 1665.2L753.287 1686.73L752.836 1687.53L752.099 1687.18L719.303 1670.95L718.565 1670.6V1669.64C719.754 1660.67 720.943 1651.84 721.967 1643.83L722.336 1644.94C716.171 1639.14 710.657 1632.36 705.939 1624.78L706.799 1625.18L685.851 1629.82H685.195L684.908 1629.06C680.071 1615.05 675.493 1601.74 671.175 1589.14L670.929 1588.48L671.421 1588.03L688.721 1572.91L688.434 1573.76C687.344 1564.32 687.275 1554.75 688.229 1545.28L688.516 1546.04L671.052 1530.92L670.683 1530.61V1530.11C676.135 1513.78 680.604 1500.27 684.006 1489.79V1489.48H684.252L699.83 1492.76L703.93 1493.67L705.775 1494.52Z" fill="#263238"/>
<path fill-rule="evenodd" clip-rule="evenodd" d="M625.507 962.578C632.18 940.429 641.253 919.489 652.482 900.325L628.418 842.105L696.018 773.149L738.12 812.97C755.509 803.052 773.902 796.05 792.807 792.152L809.205 730.101L896.646 740.182L903.533 804.905C921.484 813.088 938.469 824.174 954.039 837.871L1001.39 808.333L1057.43 891.454L1025.08 943.171C1033.09 964.539 1038.75 987.116 1041.93 1010.31L1092.35 1030.48L1084.16 1137.99L1031.52 1146.41C1025 1168.56 1016.09 1189.53 1005.04 1208.77L1029.06 1266.99L961.459 1335.94L919.357 1296.17C901.933 1306.01 883.511 1312.93 864.588 1316.74L848.19 1378.79L760.749 1368.71L753.862 1304.04C735.853 1295.97 718.8 1284.98 703.151 1271.37L655.843 1300.91L599.763 1217.79L631.984 1166.07C623.948 1144.68 618.255 1122.06 615.054 1098.83L564.63 1078.67L572.829 971.147L625.425 962.679L625.507 962.578ZM735.168 1038.89C733.421 1061.73 737.224 1084.7 746.096 1104.88C754.968 1125.06 768.51 1141.55 785.008 1152.27C801.506 1162.98 820.219 1167.44 838.777 1165.07C857.334 1162.7 874.904 1153.61 889.26 1138.96C903.617 1124.31 914.116 1104.75 919.428 1082.76C924.739 1060.77 924.625 1037.33 919.1 1015.42C913.575 993.506 902.887 974.102 888.389 959.662C873.891 945.222 856.235 936.396 837.655 934.3C812.79 931.495 788.036 940.932 768.823 960.541C749.61 980.149 737.506 1008.33 735.168 1038.89Z" fill="#E0E0E0"/>
<path d="M2131.49 1867.99C2131.49 1868.69 1757 1869.25 1295.2 1869.25C833.391 1869.25 458.905 1868.69 458.905 1867.99C458.905 1867.28 833.309 1866.78 1295.2 1866.78C1757.08 1866.78 2131.49 1867.33 2131.49 1867.99Z" fill="#263238"/>
<path d="M1231.82 322.661C1206.03 336.573 1191.03 370.8 1185.41 404.724C1179.8 438.647 1181.6 473.731 1179.18 508.26C1176.76 542.788 1169.06 578.829 1148.56 602.571C1129.46 624.75 1101.37 633.773 1085.1 659.128C1079.03 668.568 1075.01 679.749 1073.41 691.623C1071.81 703.497 1072.69 715.675 1075.97 727.015C1079.25 738.355 1084.82 748.486 1092.15 756.458C1099.48 764.43 1108.34 769.982 1117.89 772.594C1105.02 797.798 1111.46 832.629 1127.94 854.253C1144.42 875.878 1168.56 886.211 1192.38 890.647C1234.28 898.511 1278.96 889.841 1314.34 861.159C1349.72 832.477 1374.48 782.675 1374.4 730.605" fill="#263238"/>
<path d="M1120.11 834.695C1118.12 831.264 1116.59 827.471 1115.56 823.455C1112.67 812.487 1112.1 800.792 1113.92 789.48C1115.11 781.664 1117.1 774.061 1119.82 766.848C1123.1 758.695 1127.07 750.991 1131.67 743.862C1142.6 728.12 1154.45 713.379 1167.13 699.756C1179.44 685.781 1190.95 670.792 1201.61 654.894C1210.32 641.936 1217.74 627.737 1223.7 612.602C1227.67 602.389 1230.67 591.649 1232.64 580.594C1233.42 576.712 1233.62 573.587 1233.99 571.52C1234.08 570.437 1234.27 569.371 1234.57 568.345C1234.66 569.417 1234.66 570.498 1234.57 571.571C1234.32 573.688 1234.24 576.864 1233.58 580.795C1231.89 592.044 1229.06 602.985 1225.14 613.358C1219.33 628.742 1211.97 643.17 1203.25 656.305C1192.63 672.418 1181.1 687.579 1168.73 701.671C1156.09 715.202 1144.25 729.824 1133.31 745.425C1128.73 752.351 1124.79 759.873 1121.54 767.856C1118.78 774.854 1116.76 782.256 1115.52 789.884C1113.59 800.952 1113.93 812.435 1116.5 823.303C1117.52 827.185 1118.72 830.989 1120.11 834.695Z" fill="#455A64"/>
<path d="M1540.18 436.53C1540.18 483.107 1557.64 525.801 1573.35 541.528C1595.61 563.707 1628.24 574.444 1649.72 581.854C1681.04 592.591 1707.11 626.313 1711.21 666.034C1715.31 705.754 1693.99 748.147 1662.51 758.127C1682.31 782.978 1676.41 825.723 1660.13 853.901C1629.26 907.786 1567.65 928.503 1516.65 908.542C1465.65 888.581 1426.46 832.931 1411.13 769.771" fill="#263238"/>
<path d="M1618.07 895.335C1622.4 894.182 1626.5 891.971 1630.12 888.833C1634.3 885.074 1637.75 880.218 1640.21 874.618C1643.55 867.27 1645.41 859.04 1645.62 850.624C1645.57 840.434 1643.38 830.432 1639.27 821.59C1634.53 811.405 1628.28 802.396 1620.86 795.025C1605.32 778.945 1584.21 768.914 1563.79 754.699C1553.73 747.743 1544.61 738.918 1536.74 728.538C1533 723.529 1529.82 717.936 1527.27 711.904C1524.85 706.117 1523.06 699.966 1521.94 693.606C1520.11 681.849 1519.67 669.83 1520.63 657.918C1521.32 646.778 1522.47 636.545 1523.25 627.119C1525.02 612.393 1524.83 597.411 1522.68 582.761C1522.14 580.241 1521.65 578.023 1521.2 576.007C1520.75 573.99 1520.09 572.528 1519.72 571.218C1519.27 569.92 1518.87 568.59 1518.54 567.236C1519.16 568.428 1519.68 569.695 1520.09 571.016C1520.54 572.327 1521.24 573.839 1521.77 575.755L1523.46 582.559C1525.95 597.284 1526.36 612.424 1524.69 627.321C1523.99 636.747 1522.92 647.03 1522.31 658.069C1521.43 669.857 1521.92 681.739 1523.78 693.354C1526.04 706.002 1531.02 717.669 1538.21 727.127C1545.96 737.304 1554.93 745.957 1564.82 752.784C1585.03 767.049 1606.26 777.231 1622.21 793.715C1629.78 801.295 1636.13 810.564 1640.91 821.035C1645.14 830.256 1647.32 840.69 1647.22 851.279C1646.94 859.964 1644.93 868.431 1641.36 875.928C1638.73 881.611 1635.1 886.501 1630.74 890.244C1627.97 892.531 1624.91 894.235 1621.68 895.285C1620.48 895.449 1619.27 895.466 1618.07 895.335Z" fill="#455A64"/>
<path d="M1691.86 739.93C1694.13 736.154 1695.46 731.658 1695.72 726.976C1695.85 721.508 1694.83 716.09 1692.76 711.249C1690.14 704.788 1686.13 699.332 1681.16 695.471C1674.91 691.156 1668.05 688.334 1660.95 687.154C1653.33 685.491 1645 684.886 1636.35 683.222C1617.37 679.491 1599.28 670.7 1583.35 657.464C1567.38 644.252 1553.99 626.846 1544.16 606.503C1536.24 589.877 1530.8 571.646 1528.09 552.668C1526.18 539.922 1525.62 526.929 1526.41 514.006C1526.59 510.51 1526.92 507.027 1527.39 503.572C1527.46 502.355 1527.66 501.153 1527.96 499.993C1528.17 499.993 1527.47 505.034 1527.19 514.107C1526.09 546.085 1532.54 577.772 1545.76 605.343C1555.54 625.289 1568.75 642.371 1584.46 655.398C1600.17 668.401 1617.96 677.115 1636.64 680.954C1645.25 682.668 1653.61 683.374 1661.24 685.087C1668.48 686.407 1675.44 689.437 1681.74 694.009C1686.89 698.069 1691.01 703.834 1693.62 710.644C1695.69 715.713 1696.62 721.367 1696.33 727.026C1696.09 730.602 1695.16 734.057 1693.62 737.107C1693.09 738.065 1692.56 738.771 1692.23 739.275L1691.86 739.93Z" fill="#455A64"/>
<path d="M1250.23 982.59C1255.64 912.977 1260.27 839.585 1260.27 839.585C1260.27 839.585 1188.57 815.894 1182.83 697.084C1177.34 583.82 1212.88 328.054 1212.88 328.054C1322.05 288.132 1443.56 338.136 1510.09 450.493L1458.68 1015.05C1452.74 1080.58 1402.15 1126.45 1345.13 1118.03C1287.57 1109.51 1245.1 1048.93 1250.23 982.59Z" fill="#B78876"/>
<path d="M1223.78 532.505C1223.46 536.403 1224.37 540.304 1226.34 543.388C1228.3 546.472 1231.16 548.498 1234.32 549.039C1235.86 549.384 1237.44 549.346 1238.97 548.926C1240.49 548.506 1241.94 547.713 1243.21 546.594C1244.48 545.475 1245.56 544.053 1246.38 542.412C1247.2 540.771 1247.74 538.945 1247.97 537.042C1248.3 533.145 1247.38 529.243 1245.42 526.159C1243.45 523.075 1240.59 521.049 1237.44 520.508C1235.9 520.163 1234.32 520.201 1232.79 520.621C1231.26 521.041 1229.82 521.834 1228.54 522.953C1227.27 524.072 1226.19 525.494 1225.38 527.135C1224.56 528.776 1224.02 530.602 1223.78 532.505Z" fill="#263238"/>
<path d="M1205.34 513.3C1206.69 515.468 1216.61 508.26 1229.73 509.772C1242.85 511.284 1251.82 520.66 1253.42 518.845C1254.2 518.039 1252.93 514.359 1249.04 510.074C1243.74 504.542 1237.18 501.161 1230.26 500.396C1223.46 499.524 1216.61 501.286 1210.67 505.437C1206.32 508.965 1204.68 512.343 1205.34 513.3Z" fill="#263238"/>
<path d="M1357.92 551.61C1357.59 555.515 1358.51 559.423 1360.49 562.508C1362.46 565.593 1365.33 567.614 1368.5 568.143C1370.03 568.489 1371.62 568.45 1373.14 568.03C1374.67 567.61 1376.11 566.817 1377.39 565.698C1378.66 564.579 1379.74 563.157 1380.55 561.516C1381.37 559.875 1381.91 558.049 1382.15 556.146C1382.47 552.249 1381.56 548.347 1379.59 545.263C1377.63 542.179 1374.77 540.154 1371.61 539.613C1370.07 539.267 1368.49 539.305 1366.96 539.724C1365.43 540.144 1363.98 540.936 1362.7 542.055C1361.43 543.173 1360.35 544.595 1359.52 546.236C1358.7 547.877 1358.16 549.705 1357.92 551.61Z" fill="#263238"/>
<path d="M1341.85 535.731C1343.2 537.899 1353.12 530.691 1366.24 532.253C1379.36 533.816 1388.34 543.091 1389.94 541.276C1390.67 540.52 1389.44 536.79 1385.55 532.505C1380.25 526.982 1373.69 523.602 1366.77 522.827C1359.97 521.955 1353.12 523.717 1347.18 527.868C1342.83 531.396 1341.19 534.774 1341.85 535.731Z" fill="#263238"/>
<path d="M1284.62 649.702C1284.62 648.794 1276.75 646.072 1263.67 642.393C1260.35 641.536 1257.28 640.326 1256.91 637.352C1256.98 633.06 1258.11 628.896 1260.15 625.405L1272.44 595.161C1289.79 552.164 1302.7 516.627 1301.14 515.77C1299.58 514.913 1284.54 549.14 1267.2 592.137C1263.1 602.773 1259 612.854 1255.14 622.381C1252.66 627.095 1251.58 632.728 1252.11 638.31C1252.46 639.836 1253.1 641.239 1253.98 642.404C1254.86 643.569 1255.94 644.463 1257.15 645.014C1258.96 645.862 1260.85 646.421 1262.77 646.677C1276.26 649.55 1284.5 650.609 1284.62 649.702Z" fill="#263238"/>
<path d="M1260.27 839.585C1304.99 845.867 1350.25 836.74 1391 813.222C1391 813.222 1353.49 889.841 1259.2 867.359L1260.27 839.585Z" fill="#AA6550"/>
<path d="M1287.08 689.271C1289.88 685.706 1293.38 683.077 1297.24 681.631C1301.1 680.184 1305.19 679.969 1309.13 681.005C1312 681.691 1314.73 683.075 1317.16 685.074C1319.59 687.074 1321.67 689.649 1323.28 692.649C1324.82 695.56 1325.59 698.984 1325.5 702.455C1325.4 705.927 1324.44 709.278 1322.75 712.055C1320.41 714.702 1317.48 716.424 1314.33 716.999C1311.19 717.575 1307.98 716.976 1305.12 715.281C1299.13 711.847 1293.77 706.981 1289.33 700.966C1287.97 699.552 1286.83 697.843 1285.97 695.925C1285.56 694.979 1285.39 693.902 1285.47 692.833C1285.56 691.765 1285.91 690.752 1286.46 689.926" fill="#AA6550"/>
<path d="M1322.38 665.529C1320.24 665.126 1318.81 682.617 1305.61 693.606C1292.41 704.595 1277.41 700.814 1277.12 703.234C1276.83 704.292 1280.23 707.065 1286.63 708.275C1294.96 709.435 1303.35 706.935 1310.32 701.218C1317.04 695.748 1321.75 687.262 1323.44 677.577C1324.8 670.066 1323.36 665.529 1322.38 665.529Z" fill="#263238"/>
<path d="M1464.83 575.301C1475.24 573.852 1485.76 575.963 1495.25 581.4C1499.98 584.133 1504.23 587.989 1507.75 592.747C1511.27 597.504 1513.99 603.07 1515.75 609.124C1518.75 621.561 1517.78 634.935 1513.04 646.526C1508.28 658.011 1501.51 668.049 1493.2 675.913C1487.56 682.032 1480.81 686.42 1473.52 688.717C1469.87 689.836 1466.05 689.818 1462.41 688.665C1458.77 687.512 1455.42 685.26 1452.66 682.113" fill="#B78876"/>
<path d="M1464.38 651.819C1463.19 652.121 1467.01 660.237 1476.68 658.271C1481.78 656.738 1486.2 652.812 1488.98 647.333C1492.28 641.219 1494.58 634.369 1495.74 627.17C1497.07 619.525 1496.17 611.551 1493.2 604.638C1491.93 601.707 1490.14 599.166 1487.96 597.203C1485.78 595.239 1483.27 593.904 1480.62 593.296C1471.06 591.885 1467.42 599.698 1468.32 600.051C1469.22 600.404 1473.07 597.329 1479.18 600.051C1485.29 602.773 1490.17 613.005 1487.87 625.254C1485.58 637.503 1480.74 649.248 1474.92 651.516C1469.1 653.785 1465.12 650.861 1464.38 651.819Z" fill="#AA6550"/>
<path d="M1258.88 378.058C1251.71 398.082 1240.91 415.821 1227.3 429.914C1213.69 444.008 1197.64 454.083 1180.37 459.365C1178.36 430.482 1176.97 401.245 1180.82 372.614C1184.67 343.983 1194.1 315.806 1211.08 295.693C1228.05 275.581 1253.18 264.743 1275.97 272.203" fill="#263238"/>
<path d="M1265.43 325.03C1259.49 343.425 1257.51 363.394 1259.68 383.006C1261.85 402.619 1268.1 421.211 1277.82 436.984C1287.55 452.757 1300.42 465.179 1315.19 473.047C1329.96 480.914 1346.13 483.963 1362.14 481.897C1368.37 481.09 1374.93 479.578 1380.75 482.35C1386.57 485.123 1391.12 492.432 1394.85 499.388C1410.02 527.263 1426.05 556.247 1449.95 572.377C1473.85 588.508 1508.04 586.895 1524.03 559.725C1531.78 546.519 1534.07 529.733 1535.88 513.603C1541.94 459.314 1544.44 400.993 1523.37 352.703C1507.75 316.763 1480.29 290.098 1449.91 273.917C1419.53 257.737 1386.25 251.285 1353.16 248.714C1333.98 247.252 1314.1 247.202 1296.26 256.174C1278.43 265.146 1263.06 285.007 1262.03 308.648" fill="#263238"/>
<path d="M1531.65 528.926C1531.2 527.634 1530.81 526.303 1530.51 524.944C1529.85 522.323 1528.74 518.442 1527.31 513.552C1523.05 499.672 1517.62 486.376 1511.12 473.882C1501.44 455.425 1489.44 438.972 1475.57 425.138C1458.21 408.74 1439.04 395.467 1418.63 385.72C1397.15 374.63 1376.12 365.557 1357.71 354.921C1341.27 345.851 1325.83 334.248 1311.76 320.392C1302.33 310.971 1294.11 299.838 1287.41 287.376C1285.6 283.978 1283.97 280.442 1282.53 276.79C1281.94 275.579 1281.46 274.295 1281.09 272.959C1281.75 274.124 1282.36 275.336 1282.9 276.589C1284.48 280.055 1286.2 283.42 1288.06 286.67C1294.95 298.817 1303.23 309.668 1312.66 318.88C1326.72 332.447 1342.1 343.793 1358.45 352.653C1376.78 363.087 1397.81 372.16 1419.37 383.25C1439.96 393.114 1459.28 406.558 1476.76 423.172C1490.73 437.244 1502.75 454.013 1512.35 472.823C1518.77 485.511 1524.04 499.036 1528.05 513.149C1529.4 518.19 1530.38 522.071 1530.88 524.793C1531.23 526.141 1531.49 527.524 1531.65 528.926Z" fill="#455A64"/>
<path d="M1502.1 522.525C1501.47 521.485 1500.94 520.37 1500.5 519.198C1499.43 517.03 1497.87 513.804 1495.58 509.923C1489.02 499.074 1481.06 489.623 1472.01 481.947C1458.42 470.772 1443.91 461.394 1428.72 453.971C1420.23 449.485 1411.25 444.848 1402.15 439.504C1393.05 434.161 1383.75 428.213 1374.56 421.459C1357.17 408.867 1341.13 393.624 1326.84 376.092C1315.19 361.76 1305.15 345.569 1297 327.954C1291.54 316.068 1287.15 303.495 1283.88 290.451C1282.82 285.813 1282.04 282.184 1281.67 279.714C1281.38 278.463 1281.18 277.18 1281.09 275.883C1281.51 277.068 1281.82 278.301 1282.04 279.563C1282.57 282.033 1283.47 285.561 1284.66 290.148C1288.18 302.98 1292.74 315.342 1298.27 327.046C1306.51 344.395 1316.55 360.341 1328.16 374.479C1342.42 391.818 1358.36 406.936 1375.63 419.493C1384.73 426.197 1393.95 432.145 1403.01 437.539C1412.07 442.932 1420.97 447.62 1429.45 452.056C1444.73 459.603 1459.27 469.205 1472.83 480.687C1481.93 488.582 1489.85 498.354 1496.23 509.57C1497.94 512.63 1499.48 515.83 1500.83 519.148C1501.32 520.233 1501.74 521.362 1502.1 522.525Z" fill="#455A64"/>
<path d="M1180.7 505.79C1180.34 504.915 1180.04 504.004 1179.8 503.068C1179.26 501.303 1178.44 498.632 1177.54 495.154C1175.26 485.294 1173.88 475.148 1173.44 464.909C1172.19 430.509 1180.91 396.68 1198.04 369.439C1202.86 361.724 1208.36 354.691 1214.44 348.469C1220.38 342.521 1226.49 337.481 1232.31 332.742C1242.87 324.934 1252.79 315.867 1261.91 305.674C1267.96 298.709 1272.89 290.396 1276.42 281.176C1278.8 274.573 1279.33 270.54 1279.54 270.59C1279.53 271.581 1279.4 272.566 1279.17 273.514C1278.66 276.243 1277.99 278.922 1277.16 281.529C1273.81 290.997 1268.98 299.562 1262.93 306.732C1253.88 317.194 1243.98 326.484 1233.38 334.456C1227.28 339.331 1221.38 344.58 1215.71 350.183C1209.74 356.303 1204.32 363.199 1199.56 370.749C1190.32 385.379 1183.47 402.068 1179.39 419.896C1175.99 434.435 1174.45 449.537 1174.84 464.658C1175.16 474.855 1176.31 484.988 1178.28 494.902C1179.02 498.262 1179.63 500.934 1180.12 502.916C1180.41 503.841 1180.6 504.806 1180.7 505.79Z" fill="#455A64"/>
<path d="M1415.64 739.023C1393.29 739.319 1371.62 729.547 1354.72 711.551L1357.34 707.972C1371.8 723.992 1390.24 733.535 1409.66 735.053C1429.09 736.571 1448.36 729.975 1464.35 716.335C1480.34 702.695 1492.11 682.812 1497.76 659.91C1503.41 637.009 1502.59 612.434 1495.46 590.171L1499.1 588.407C1506 611.752 1506.55 637.214 1500.68 660.979C1494.81 684.743 1482.84 705.529 1466.55 720.221C1451.52 732.679 1433.77 739.235 1415.64 739.023Z" fill="#BA68C8"/>
<path d="M1365.05 741.745C1375.49 741.745 1383.95 731.341 1383.95 718.507C1383.95 705.674 1375.49 695.27 1365.05 695.27C1354.61 695.27 1346.15 705.674 1346.15 718.507C1346.15 731.341 1354.61 741.745 1365.05 741.745Z" fill="#BA68C8"/>
<path d="M1572.52 612.834C1578.09 570.427 1554.65 530.501 1520.16 523.655C1485.67 516.809 1453.2 545.637 1447.63 588.044C1442.06 630.451 1465.51 670.378 1500 677.223C1534.48 684.069 1566.96 655.241 1572.52 612.834Z" fill="#BA68C8"/>
<path d="M1499.88 589.617C1499.44 583.051 1499.55 576.445 1500.21 569.907L1500.95 546.871C1500.95 537.899 1501.28 527.666 1500.95 516.375C1500.95 510.73 1500.62 504.832 1500.38 498.733C1500.13 492.633 1499.6 486.232 1499.1 479.628C1498.61 473.025 1497.67 466.321 1496.97 459.466C1496.44 456.038 1495.91 452.51 1495.37 448.981C1494.84 445.453 1494.27 441.823 1493.49 438.244C1488.03 406.896 1476.69 377.551 1460.36 352.552C1443.42 328.173 1421.73 309.477 1397.31 298.214C1377.29 288.911 1356.47 282.483 1335.25 279.059C1317.05 275.934 1302.17 274.976 1291.92 274.018C1286.56 274.151 1281.2 273.611 1275.93 272.405C1281.22 271.33 1286.59 270.908 1291.96 271.145C1306.59 270.988 1321.22 271.846 1335.78 273.716C1357.5 276.461 1378.86 282.523 1399.36 291.761C1424.8 303.103 1447.41 322.384 1464.96 347.713C1481.88 373.629 1493.5 404.155 1498.86 436.732C1499.6 440.412 1500.17 444.092 1500.66 447.771C1501.15 451.451 1501.65 454.979 1502.14 458.508C1502.79 465.666 1503.7 472.521 1504.02 479.225C1504.35 485.929 1504.88 492.432 1504.93 498.632C1504.97 504.832 1505.25 510.83 1504.93 516.526C1504.93 527.969 1504.39 538.252 1503.98 547.275C1503.57 556.298 1502.83 564.01 1502.22 570.361C1501.95 576.857 1501.16 583.305 1499.88 589.617Z" fill="#BA68C8"/>
<g opacity="0.4">
<path d="M1528.6 649.977C1550.79 638.587 1561.26 607.236 1552 579.953C1542.74 552.67 1517.24 539.787 1495.05 551.177C1472.86 562.567 1462.39 593.918 1471.65 621.201C1480.91 648.484 1506.41 661.367 1528.6 649.977Z" fill="black"/>
</g>
<path d="M1497.51 550.551C1498.12 550.056 1498.78 549.65 1499.47 549.341C1501.41 548.339 1503.43 547.596 1505.5 547.123C1513.25 545.494 1521.22 547.166 1528.09 551.862C1532.88 555.08 1536.88 559.814 1539.69 565.572C1542.85 572.213 1544.46 579.804 1544.32 587.499C1544.22 594.206 1542.76 600.775 1540.07 606.612C1537.38 612.449 1533.55 617.37 1528.93 620.928C1524.31 624.487 1519.03 626.571 1513.59 626.992C1508.15 627.413 1502.7 626.157 1497.75 623.339C1491.49 619.572 1486.39 613.395 1483.24 605.747C1480.31 598.919 1479.02 591.212 1479.51 583.517C1480.07 576.865 1481.91 570.472 1484.88 564.867C1488.92 556.546 1495.36 550.394 1502.92 547.627C1504.96 546.932 1507.07 546.626 1509.19 546.72C1509.92 546.748 1510.65 546.883 1511.36 547.123C1508.59 547.132 1505.83 547.606 1503.16 548.535C1495.98 551.589 1489.94 557.729 1486.15 565.824C1483.1 571.56 1481.38 578.203 1481.17 585.047C1480.95 591.891 1482.25 598.679 1484.92 604.688C1487.93 611.832 1492.73 617.594 1498.61 621.121C1505.04 624.607 1512.22 625.39 1519.05 623.349C1525.87 621.307 1531.96 616.556 1536.37 609.83C1540.26 603.339 1542.41 595.515 1542.52 587.449C1542.74 580.178 1541.32 572.973 1538.42 566.631C1535.82 561.113 1532.07 556.553 1527.55 553.424C1520.99 548.731 1513.35 546.851 1505.83 548.081C1503.01 548.688 1500.23 549.513 1497.51 550.551Z" fill="#263238"/>
<path d="M1511.44 653.18C1509.96 649.224 1509.28 644.88 1509.48 640.528C1509.01 636.229 1509.39 631.855 1510.58 627.775C1511.37 631.918 1511.67 636.178 1511.48 640.427C1511.97 644.658 1511.96 648.954 1511.44 653.18Z" fill="#263238"/>
<path d="M1535.47 642.796C1531.86 635.949 1529.43 628.263 1528.33 620.214C1531.94 627.06 1534.37 634.747 1535.47 642.796Z" fill="#263238"/>
<path d="M1551.66 619.508C1551.29 620.012 1548.3 617.441 1544.98 613.761C1541.66 610.082 1539.32 606.654 1539.69 606.15C1540.06 605.646 1543.05 608.217 1546.37 611.896C1549.69 615.576 1552.03 619.004 1551.66 619.508Z" fill="#263238"/>
<path d="M1552.81 586.995C1552.6 587.651 1550.47 587.298 1547.97 586.189C1545.47 585.08 1543.62 583.669 1543.87 583.013C1544.12 582.358 1546.21 582.711 1548.71 583.82C1551.21 584.929 1553.01 586.34 1552.81 586.995Z" fill="#263238"/>
<path d="M1483.03 641.284C1484.17 632.669 1487.48 624.713 1492.5 618.55C1491.45 622.629 1489.98 626.525 1488.12 630.144C1486.81 634.102 1485.1 637.844 1483.03 641.284Z" fill="#263238"/>
<path d="M1470.04 613.913C1469.63 613.409 1472.13 609.628 1475.57 605.495C1479.02 601.361 1482.13 598.337 1482.54 598.841C1482.95 599.345 1480.45 603.126 1477.01 607.259C1473.56 611.392 1470.45 614.417 1470.04 613.913Z" fill="#263238"/>
<path d="M1480.21 576.813C1480.21 577.468 1478.57 578.628 1476.11 579.384C1473.65 580.14 1471.76 580.241 1471.64 579.384C1471.52 578.527 1473.24 577.519 1475.74 576.763C1478.24 576.007 1480.04 576.158 1480.21 576.813Z" fill="#263238"/>
<path d="M1811.07 1002.35C1806.97 973.869 1797.91 958.394 1791.15 950.279C1785.16 942.293 1778.43 935.189 1771.1 929.108C1761.92 922.202 1749.42 913.683 1741.42 911.516C1731.54 908.895 1729.13 893.117 1737.32 888.58C1745.52 884.044 1772.99 890.546 1799.35 914.338C1825.71 938.131 1812.35 877.844 1807.84 855.766C1803.33 833.687 1792.13 764.63 1796.23 757.673C1802.75 747.592 1813.04 754.447 1817.18 776.627C1821.32 798.806 1837.43 864.335 1846.82 861.109C1856.21 857.883 1831.78 745.878 1831.78 745.878C1831.78 745.878 1823.58 722.893 1834.2 718.759C1853.63 711.249 1872.32 832.528 1873.88 844.122C1874.94 852.136 1885.27 849.162 1883.76 840.543C1882.24 831.923 1857.36 729.395 1877.08 721.532C1892.2 715.533 1893.23 821.136 1907.99 839.182C1922.74 857.227 1900.52 758.984 1915.2 753.943C1920.65 752.078 1924.96 751.625 1931.07 810.097C1934.39 841.5 1932.25 884.8 1942.22 944.734" fill="#B78876"/>
<path d="M1761.92 1227.77L1851.54 1385.9L1808.53 978.104L1936.64 915.952C1936.64 915.952 2098.32 1678.11 1881.5 1688.79C1881.5 1688.79 1731.42 1683.75 1619.42 1364.37L1761.92 1227.77Z" fill="#B78876"/>
<path d="M1905.65 912.978C1905.9 913.381 1902.86 915.851 1898.88 921.295C1893.69 928.453 1890.08 937.131 1888.39 946.498L1887.9 949.472L1886.14 947.254C1884.07 944.68 1881.85 942.303 1879.49 940.147C1871.5 932.97 1862.11 928.487 1852.27 927.142C1844.69 926.134 1839.98 927.142 1839.98 926.587C1843.98 924.787 1848.28 924.166 1852.52 924.773C1866.09 925.541 1878.88 932.772 1888.19 944.936L1885.89 945.692C1887.69 935.719 1891.83 926.61 1897.78 919.48C1899.94 916.574 1902.64 914.345 1905.65 912.978Z" fill="#AA6550"/>
<path d="M1697.56 1557.43L1589.13 1388.32L1560.92 1561.31C1549.52 1631.37 1555.4 1704.03 1577.81 1769.95L1591.79 1811.13H1089.69L1102.23 1756.14C1109.33 1688.79 1099.86 1618.52 1101.5 1522.05L1087.56 1413.32L1011.6 1811.13H788.297C788.297 1811.13 910.748 1193.69 987.654 1071.51C1084.44 917.514 1253.59 937.828 1253.59 937.828L1357.18 1137.54L1458.4 957.437C1458.4 957.437 1632.3 912.07 1768.07 1199.39L1840.71 1352.48L1806.97 1037.28L1964.31 992.722C1964.31 992.722 2021.09 1302.37 2017.36 1468.21C2014.04 1616.31 1962.75 1693.98 1891.71 1701.65C1779.84 1713.64 1697.56 1557.43 1697.56 1557.43Z" fill="#BA68C8"/>
<path d="M1253.59 937.828L1255.35 912.927C1255.35 912.927 1332.09 933.896 1357.84 1098.68C1357.84 1098.68 1383.66 946.599 1466.31 931.326L1480.25 975.129L1429.5 1137.59L1340.37 1169.65L1253.63 1137.59L1214.11 1041.26L1253.59 937.828Z" fill="#BA68C8"/>
<path d="M1039.68 1003.36C1039.91 1004.75 1040.04 1006.17 1040.09 1007.59C1040.09 1010.62 1040.5 1014.7 1040.82 1019.89C1041.36 1030.53 1042.26 1045.9 1043.49 1064.95C1045.99 1102.96 1050.21 1155.44 1056.89 1213.05C1063.58 1270.67 1071.53 1322.53 1077.8 1359.89C1080.96 1378.59 1083.58 1393.66 1085.51 1404.09C1086.37 1409.13 1087.07 1413.17 1087.6 1416.09C1087.89 1417.48 1088.08 1418.89 1088.17 1420.32C1087.76 1419 1087.43 1417.63 1087.19 1416.24C1086.56 1413.32 1085.74 1409.34 1084.73 1404.29C1082.6 1393.96 1079.73 1379.09 1076.53 1360.29C1069.89 1322.99 1061.77 1271.12 1055.01 1213.4C1048.24 1155.69 1044.31 1103.16 1042.22 1065.06C1041.15 1046 1040.46 1030.58 1040.13 1019.94C1040.13 1014.9 1039.88 1010.67 1039.8 1007.64C1039.72 1004.62 1039.64 1003.36 1039.68 1003.36Z" fill="#263238"/>
<path d="M1478.36 951.589C1478.06 952.424 1477.69 953.218 1477.25 953.958L1473.81 960.511L1461.02 984.505C1450.28 1004.67 1435.81 1033.15 1420.72 1065.16C1420.15 1066.42 1419.53 1067.63 1419 1068.84L1418.02 1070.9L1417.2 1068.74C1414.58 1060.73 1410.85 1053.34 1406.17 1046.91C1404.03 1044.03 1401.36 1041.81 1398.39 1040.45C1395.42 1039.08 1392.23 1038.6 1389.07 1039.05C1383.39 1040.56 1378.36 1044.62 1374.97 1050.44C1371.85 1055.41 1369.46 1061.03 1367.92 1067.02C1365.05 1078.11 1363.37 1087.44 1361.2 1093.49C1360.44 1095.83 1359.55 1098.1 1358.53 1100.29C1357.8 1101.77 1357.39 1102.47 1357.3 1102.41C1357.3 1102.41 1358.7 1099.23 1360.5 1093.13C1362.31 1087.03 1363.82 1078.01 1366.61 1066.52C1368.08 1060.26 1370.47 1054.38 1373.66 1049.18C1377.24 1042.84 1382.65 1038.42 1388.79 1036.83C1392.23 1036.28 1395.72 1036.75 1398.98 1038.21C1402.24 1039.66 1405.17 1042.06 1407.52 1045.2C1412.43 1051.78 1416.33 1059.4 1419.04 1067.68H1417.24L1418.96 1064C1434.05 1031.94 1448.76 1003.51 1459.95 983.648C1465.49 973.567 1470.08 965.552 1473.28 960.058C1474.84 957.537 1476.07 955.42 1477.05 953.757C1477.42 952.98 1477.86 952.253 1478.36 951.589Z" fill="#263238"/>
<path d="M1405.27 1044.89C1405.27 1044.89 1405.06 1045.65 1404.45 1047.01L1401.74 1052.86L1391.45 1074.13L1375.96 1105.43L1366.73 1123.93C1365.09 1127.11 1363.45 1130.38 1361.77 1133.71C1361.26 1134.66 1360.61 1135.48 1359.85 1136.13C1359.39 1136.49 1358.87 1136.73 1358.33 1136.82C1357.79 1136.9 1357.25 1136.84 1356.73 1136.63C1354.95 1135.77 1353.49 1134.14 1352.63 1132.05C1338.24 1105.43 1327.5 1079.67 1319.1 1061.48C1315 1052.35 1311.51 1045.04 1309.13 1040C1307.79 1037.47 1306.58 1034.82 1305.53 1032.09C1305.53 1032.09 1306.02 1032.69 1306.72 1033.95C1307.41 1035.21 1308.52 1037.03 1309.79 1039.5C1312.41 1044.54 1316.02 1051.6 1320.33 1060.62C1329.06 1078.51 1340 1104.12 1354.35 1130.58C1355.21 1132.3 1356.03 1133.76 1357.14 1134.16C1358.25 1134.57 1359.11 1133.66 1359.97 1132.2L1364.89 1122.52L1374.19 1104.12L1390.06 1073.07L1400.88 1052.25C1402.11 1050.03 1403.09 1048.17 1403.96 1046.66C1404.33 1046 1404.77 1045.41 1405.27 1044.89Z" fill="#263238"/>
<path d="M1683.29 1059.66C1682.96 1060.79 1682.56 1061.88 1682.1 1062.94C1681.2 1065.26 1679.97 1068.33 1678.42 1072.16C1675.14 1080.13 1670.54 1091.72 1665.05 1106.14C1659.56 1120.55 1653.33 1137.94 1646.77 1157.4C1640.21 1176.86 1633.53 1198.53 1627.05 1221.52C1620.57 1244.5 1615.16 1266.89 1610.65 1287.05C1606.14 1307.21 1602.45 1325.76 1599.46 1341.29C1596.47 1356.81 1594.38 1369.46 1592.98 1378.18C1592.29 1382.37 1591.71 1385.69 1591.3 1388.27C1591.15 1389.45 1590.9 1390.62 1590.56 1391.74C1590.57 1390.54 1590.68 1389.34 1590.89 1388.16C1591.22 1385.59 1591.67 1382.22 1592.2 1378.08C1593.35 1369.26 1595.36 1356.56 1598.07 1340.93C1600.77 1325.31 1604.38 1306.86 1608.85 1286.44C1613.32 1266.03 1618.89 1243.9 1625.25 1220.91C1631.6 1197.93 1638.57 1176.25 1645.13 1156.75C1651.69 1137.24 1658.2 1119.95 1663.9 1105.58C1669.6 1091.22 1674.36 1079.72 1677.84 1071.91L1681.94 1062.94C1682.29 1061.79 1682.75 1060.69 1683.29 1059.66Z" fill="#263238"/>
<path d="M1453.6 1685.92C1452.56 1685.99 1451.52 1685.99 1450.48 1685.92L1441.51 1685.06C1437.41 1684.66 1432.86 1684.15 1427.36 1683.3C1421.87 1682.44 1415.56 1681.68 1408.67 1680.37C1394.81 1678.06 1378.42 1674.53 1360.34 1669.94C1342.26 1665.35 1322.54 1659.2 1302.08 1651.79C1281.63 1644.38 1262.48 1635.97 1245.22 1627.85C1227.97 1619.73 1212.76 1611.47 1200.13 1604.11C1193.73 1600.58 1188.12 1597 1183.16 1594.03C1178.2 1591.05 1173.93 1588.28 1170.53 1585.96L1162.62 1580.67C1161.69 1580.1 1160.8 1579.44 1159.96 1578.7C1160.95 1579.09 1161.91 1579.6 1162.82 1580.22L1171.02 1585.26C1174.51 1587.42 1178.77 1590.3 1183.77 1592.92C1188.77 1595.54 1194.43 1599.27 1200.83 1602.65C1213.54 1609.8 1228.83 1617.77 1245.92 1625.83C1263.02 1633.9 1282.28 1642.01 1302.66 1649.52C1323.03 1657.04 1342.75 1662.93 1360.71 1667.82C1378.66 1672.71 1395.06 1676.24 1408.87 1678.76C1415.72 1680.22 1421.99 1681.13 1427.49 1682.04C1432.98 1682.94 1437.69 1683.7 1441.59 1684.2L1450.53 1685.57C1451.56 1685.57 1452.59 1685.69 1453.6 1685.92Z" fill="#263238"/>
<path d="M1431.38 1696.71C1430.71 1697.03 1430.01 1697.25 1429.29 1697.36L1423.31 1698.77C1418.1 1699.93 1410.51 1701.39 1401.13 1703.01C1352.22 1711.11 1302.79 1713.22 1253.55 1709.31C1244.08 1708.5 1236.45 1707.69 1231.2 1706.94L1225.14 1706.08C1224.43 1706 1223.73 1705.84 1223.05 1705.63C1223.75 1705.51 1224.47 1705.51 1225.18 1705.63L1231.24 1706.03C1236.53 1706.48 1244.16 1707.04 1253.63 1707.59C1272.49 1708.7 1298.72 1709.46 1327.42 1708.25C1356.11 1707.04 1382.27 1704.01 1401.21 1701.29C1410.6 1699.93 1418.18 1698.72 1423.43 1697.87L1429.5 1696.91C1430.11 1696.74 1430.75 1696.67 1431.38 1696.71Z" fill="#263238"/>
<path d="M1609.09 1419.47C1609.18 1418.24 1609.37 1417.02 1609.67 1415.84L1611.76 1405.76L1619.55 1368C1626.15 1336.14 1634.88 1292.04 1645.66 1243.65C1651.07 1219.45 1656.61 1196.52 1662.06 1175.8C1667.51 1155.08 1672.76 1136.63 1677.6 1121.31C1679.89 1113.55 1682.27 1106.69 1684.24 1100.64C1686.2 1094.59 1688.05 1089.45 1689.61 1085.27L1693.17 1075.64C1693.56 1074.49 1694.03 1073.37 1694.57 1072.31C1694.3 1073.52 1693.96 1074.7 1693.54 1075.84C1692.76 1078.26 1691.7 1081.54 1690.34 1085.62C1688.99 1089.7 1687.19 1095.1 1685.3 1101.2C1683.42 1107.3 1681.2 1114.15 1678.95 1121.91C1674.27 1137.29 1669.19 1155.84 1663.86 1176.51C1658.53 1197.17 1653.08 1220.16 1647.67 1244.3C1636.93 1292.64 1627.99 1336.7 1621.02 1368.46C1617.58 1384.33 1614.71 1397.19 1612.62 1406.01L1610.16 1416.09C1609.91 1417.26 1609.55 1418.39 1609.09 1419.47Z" fill="#263238"/>
<path d="M1084.93 1411.2C1084.17 1410.25 1083.46 1409.24 1082.8 1408.18C1081.49 1406.06 1079.4 1403.14 1077.1 1399.05C1070.35 1387.6 1064.36 1375.5 1059.19 1362.86C1051.51 1344.1 1045.21 1324.53 1040.37 1304.39C1034.51 1279.74 1030.15 1254.58 1027.34 1229.13C1021.35 1174.99 1020.37 1125.49 1018.56 1089.91C1017.74 1072.06 1016.97 1057.65 1016.39 1047.67C1016.1 1042.88 1015.86 1039.05 1015.69 1036.22C1015.61 1034.88 1015.61 1033.53 1015.69 1032.19C1015.97 1033.5 1016.14 1034.83 1016.23 1036.17C1016.47 1038.74 1016.88 1042.62 1017.29 1047.61C1018.15 1057.7 1019.14 1071.96 1020.12 1089.76C1022.3 1125.39 1023.48 1174.84 1029.47 1228.78C1032.26 1254.11 1036.55 1279.16 1042.3 1303.73C1046.96 1323.8 1053.04 1343.33 1060.46 1362.1C1065.5 1374.74 1071.27 1386.92 1077.72 1398.55C1079.93 1402.73 1081.82 1405.71 1083.13 1407.92C1083.82 1408.94 1084.42 1410.04 1084.93 1411.2Z" fill="#263238"/>
<path d="M1065.87 1300.2C1065.87 1300.96 1060.05 1302.52 1053.57 1307.16C1047.1 1311.8 1043.2 1317.24 1042.75 1316.74C1045.21 1311.91 1048.58 1307.88 1052.58 1305C1056.58 1302.12 1061.08 1300.48 1065.71 1300.2H1065.87Z" fill="#263238"/>
<path d="M1062.06 1235.48C1056.82 1237.26 1051.69 1239.51 1046.73 1242.24C1042.1 1245.73 1037.69 1249.64 1033.53 1253.93C1036.57 1248.02 1040.82 1243.21 1045.86 1239.97C1050.9 1236.73 1056.54 1235.18 1062.22 1235.48H1062.06Z" fill="#263238"/>
<path d="M1050.54 1176.3C1046.36 1177.68 1042.26 1179.36 1038.24 1181.34C1034.57 1184.03 1031.02 1186.97 1027.62 1190.17C1029.91 1185.38 1033.28 1181.52 1037.32 1179.06C1041.36 1176.6 1045.9 1175.64 1050.38 1176.3H1050.54Z" fill="#263238"/>
<path d="M1044.92 1115.11C1044.92 1115.82 1039.8 1117.08 1033.9 1120.15C1027.99 1123.23 1023.65 1127.01 1023.28 1126.45C1025.77 1122.44 1029.18 1119.43 1033.08 1117.83C1036.72 1115.51 1040.84 1114.56 1044.92 1115.11Z" fill="#263238"/>
<path d="M1041.69 1065.81C1041.69 1066.52 1036.52 1067.73 1030.62 1071.15C1024.71 1074.58 1020.61 1078.77 1020.25 1078.21C1022.52 1073.93 1025.86 1070.67 1029.76 1068.89C1033.37 1066.34 1037.54 1065.26 1041.69 1065.81Z" fill="#263238"/>
<path d="M1619.63 1343.96C1619.14 1344.41 1616.47 1339.98 1611.43 1337.61C1608.36 1336.49 1605.22 1335.7 1602.04 1335.24C1603.61 1334.24 1605.34 1333.72 1607.11 1333.72C1608.87 1333.72 1610.6 1334.24 1612.17 1335.24C1617.91 1338.06 1620.16 1343.76 1619.63 1343.96Z" fill="#263238"/>
<path d="M1634.88 1293.5C1632.77 1288.56 1629.67 1284.38 1625.86 1281.35C1622.05 1278.32 1617.68 1276.55 1613.15 1276.21C1613.15 1275.91 1614.67 1275.25 1617.25 1275.35C1620.7 1275.59 1624.03 1276.93 1626.93 1279.23C1629.83 1281.53 1632.2 1284.73 1633.77 1288.51C1634.96 1291.53 1635.12 1293.4 1634.88 1293.5Z" fill="#263238"/>
<path d="M1646.32 1238C1643.46 1234.1 1639.91 1231.06 1635.94 1229.13C1631.97 1227.2 1627.7 1226.42 1623.44 1226.86C1623.44 1226.61 1624.75 1225.7 1627.21 1225.3C1630.44 1224.81 1633.71 1225.33 1636.72 1226.81C1639.73 1228.28 1642.4 1230.66 1644.47 1233.72C1646.03 1236.09 1646.52 1237.9 1646.32 1238Z" fill="#263238"/>
<path d="M1659.8 1184.72C1659.27 1185.07 1657.14 1180.08 1652.38 1177.11C1649.4 1175.62 1646.29 1174.54 1643.12 1173.88C1643.12 1173.58 1644.18 1172.98 1646.11 1172.83C1648.63 1172.77 1651.11 1173.5 1653.33 1174.95C1655.55 1176.39 1657.44 1178.51 1658.82 1181.09C1659.8 1183.11 1660.01 1184.57 1659.8 1184.72Z" fill="#263238"/>
<path d="M1675.55 1135.78C1673.3 1132.26 1670.51 1129.31 1667.35 1127.11C1663.9 1125.54 1660.24 1124.79 1656.57 1124.89C1656.57 1124.64 1657.63 1123.68 1659.8 1123.23C1662.66 1122.8 1665.56 1123.36 1668.18 1124.85C1670.79 1126.33 1673.02 1128.69 1674.6 1131.64C1675.59 1133.96 1675.75 1135.68 1675.55 1135.78Z" fill="#263238"/>
<path d="M1417.85 1065.81C1417.63 1066.63 1417.33 1067.41 1416.95 1068.13L1414.08 1074.58C1411.54 1080.13 1407.77 1088.14 1403.01 1097.97C1398.26 1107.8 1392.52 1119.39 1385.96 1132.15C1382.64 1138.5 1379.15 1145.15 1375.38 1151.96C1371.61 1159.08 1367.5 1165.93 1363.08 1172.47C1361.92 1174.27 1360.54 1175.83 1358.98 1177.11C1358.44 1177.5 1357.81 1177.66 1357.18 1177.56C1356.64 1177.45 1356.12 1177.25 1355.62 1176.96C1354.8 1176.39 1354.02 1175.73 1353.29 1174.99C1350.68 1172.19 1348.28 1169.1 1346.11 1165.77C1342.01 1159.42 1337.91 1152.97 1334.51 1146.82C1327.46 1134.42 1321.47 1122.97 1316.51 1113.3C1311.55 1103.62 1307.7 1095.75 1305.08 1090.21L1302.12 1083.81C1301.73 1083.1 1301.42 1082.32 1301.22 1081.49C1301.68 1082.13 1302.09 1082.82 1302.45 1083.55L1305.73 1089.7C1308.73 1095.35 1312.78 1103.01 1317.7 1112.39C1322.62 1121.76 1328.94 1133.21 1336.03 1145.45C1339.59 1151.6 1343.41 1157.96 1347.63 1164.21C1349.74 1167.39 1352.05 1170.36 1354.56 1173.08C1355.79 1174.29 1357.34 1175.6 1358.12 1174.84C1359.46 1173.71 1360.66 1172.35 1361.69 1170.81C1366.09 1164.37 1370.19 1157.64 1373.99 1150.65C1377.76 1143.89 1381.29 1137.29 1384.61 1130.94C1391.25 1118.29 1397.11 1106.79 1402.03 1097.06C1406.95 1087.34 1410.76 1079.88 1413.63 1074.13L1416.87 1067.93C1417.36 1066.47 1417.77 1065.76 1417.85 1065.81Z" fill="#263238"/>
<path d="M1330.49 1137.54C1330.25 1137.54 1329.8 1135.83 1329.96 1132.9C1330.27 1129.11 1331.47 1125.5 1333.4 1122.52C1335.3 1119.49 1337.88 1117.21 1340.82 1115.97C1343.08 1115.11 1344.55 1115.26 1344.6 1115.56C1340.96 1117.58 1337.7 1120.48 1335 1124.08C1332.76 1128.13 1331.22 1132.72 1330.49 1137.54Z" fill="#263238"/>
<path d="M1357.59 1177.26C1355.05 1164.22 1354.97 1150.63 1357.34 1137.54C1357.85 1144.14 1357.95 1150.78 1357.63 1157.4C1358.03 1164.01 1358.01 1170.65 1357.59 1177.26Z" fill="#263238"/>
<path d="M1388.01 1126.65C1387.44 1126.65 1386.16 1121.26 1381.9 1116.97C1379.17 1114.65 1376.2 1112.75 1373.09 1111.33C1373.09 1111.03 1374.32 1110.67 1376.28 1111.08C1378.84 1111.64 1381.22 1113.02 1383.21 1115.06C1385.21 1117.09 1386.74 1119.73 1387.64 1122.72C1388.3 1125.19 1388.25 1126.55 1388.01 1126.65Z" fill="#263238"/>
<path d="M1407.97 1085.57C1406.65 1081.85 1404.96 1078.34 1402.93 1075.14C1400.43 1072.44 1397.68 1070.12 1394.73 1068.23C1394.73 1067.93 1396 1067.78 1397.89 1068.23C1400.35 1069.2 1402.57 1070.94 1404.32 1073.27C1406.1 1075.57 1407.34 1078.41 1407.93 1081.49C1408.42 1084.01 1408.22 1085.52 1407.97 1085.57Z" fill="#263238"/>
<path d="M1310.12 1099.99C1309.87 1099.99 1309.22 1098.12 1309.13 1094.95C1309.07 1090.52 1309.93 1086.15 1311.64 1082.24C1313.33 1078.33 1315.8 1075.01 1318.81 1072.57C1321.15 1070.8 1322.91 1070.4 1322.91 1070.65C1318.92 1073.84 1315.65 1078.22 1313.4 1083.39C1311.16 1088.55 1310.01 1094.33 1310.08 1100.19L1310.12 1099.99Z" fill="#263238"/>
<g opacity="0.4">
<path d="M1252.52 937.425C1261.29 978.86 1275.97 1046.35 1291.84 1099.13C1292.42 1101.62 1293.46 1103.91 1294.87 1105.83C1298.97 1110.52 1305.81 1107.65 1309.63 1102.66C1312.86 1097.52 1315.75 1092.08 1318.28 1086.38C1319.57 1083.55 1321.38 1081.12 1323.56 1079.29C1325.75 1077.46 1328.25 1076.28 1330.86 1075.84C1333.02 1075.91 1335.13 1076.56 1337.06 1077.74C1338.99 1078.93 1340.68 1080.62 1342.01 1082.7C1344.66 1086.89 1346.95 1091.4 1348.86 1096.16C1349.29 1097.47 1349.95 1098.66 1350.78 1099.64C1351.62 1100.62 1352.61 1101.38 1353.7 1101.85C1354.24 1102.06 1354.82 1102.06 1355.37 1101.86C1355.92 1101.66 1356.4 1101.27 1356.77 1100.73C1357.14 1100.19 1357.37 1099.54 1357.43 1098.84C1357.5 1098.14 1357.4 1097.44 1357.14 1096.81L1343.12 1052.05C1343.12 1052.05 1336.68 1019.24 1314.42 1024.33C1289.5 1030.02 1300.81 1080.43 1300.81 1080.43C1300.81 1080.43 1252.15 935.661 1252.52 937.425Z" fill="black"/>
</g>
<path d="M1357.84 1098.68C1357.33 1097.77 1356.93 1096.79 1356.65 1095.75C1355.91 1093.79 1354.88 1090.71 1353.61 1087.13C1351.11 1079.27 1347.59 1068.38 1343.28 1055.02C1342.18 1051.65 1340.99 1048.12 1339.72 1044.49C1338.52 1040.78 1336.78 1037.36 1334.59 1034.41C1332.08 1031.27 1329.04 1028.85 1325.68 1027.31C1322.32 1025.76 1318.73 1025.14 1315.16 1025.49C1311.36 1026.07 1307.79 1028.03 1304.91 1031.13C1302.25 1034.88 1300.36 1039.36 1299.38 1044.19C1298.24 1049.1 1297.95 1054.25 1298.52 1059.31C1299.02 1064.71 1299.8 1070.06 1300.85 1075.34C1301.22 1077.3 1301.63 1079.27 1302 1081.08L1300.03 1081.79C1294.29 1061.63 1287.74 1042.67 1281.67 1025.69C1275.6 1008.7 1270.07 993.377 1265.72 980.321C1261.38 967.266 1258.18 956.731 1256.25 949.271C1255.23 945.591 1254.61 942.667 1254.16 940.651C1253.87 939.675 1253.68 938.66 1253.59 937.627C1253.97 938.551 1254.28 939.512 1254.53 940.5C1255.1 942.466 1255.84 945.54 1256.99 948.968C1259.12 956.277 1262.52 966.812 1267.03 979.616C1271.54 992.419 1277.16 1007.64 1283.43 1024.63C1289.7 1041.62 1296.26 1060.47 1302.04 1080.88L1300.12 1081.64C1299.75 1079.77 1299.34 1077.81 1298.93 1075.84C1297.87 1070.45 1297.09 1064.98 1296.59 1059.46C1295.97 1053.99 1296.31 1048.42 1297.57 1043.13C1298.66 1037.93 1300.74 1033.13 1303.64 1029.12C1306.84 1025.67 1310.81 1023.5 1315.04 1022.92C1318.89 1022.54 1322.76 1023.22 1326.37 1024.91C1329.98 1026.61 1333.23 1029.26 1335.9 1032.69C1338.19 1035.89 1339.99 1039.56 1341.23 1043.53C1342.5 1047.21 1343.61 1050.79 1344.72 1054.17C1348.82 1067.63 1352.06 1078.61 1354.43 1086.58C1355.54 1090.21 1356.4 1093.13 1357.1 1095.35C1357.43 1096.43 1357.68 1097.54 1357.84 1098.68Z" fill="#263238"/>
<g opacity="0.4">
<path d="M1359.8 1097.47C1358.98 1098.17 1359.6 1100.04 1360.58 1100.29C1361.1 1100.35 1361.62 1100.28 1362.11 1100.07C1362.59 1099.86 1363.04 1099.52 1363.41 1099.08C1368.16 1093.47 1372.14 1086.97 1375.22 1079.82C1378.91 1073.07 1384.28 1066.62 1390.88 1066.62C1397.48 1066.62 1403.55 1073.78 1406.99 1081.29C1410.43 1088.8 1412.81 1097.27 1417.81 1103.31C1442.96 1057.98 1462.97 1008.65 1477.3 956.68C1469.1 963.687 1463.64 974.625 1458.52 985.16C1445.21 1012.48 1431.9 1039.78 1418.59 1067.07C1416.1 1058.92 1412.26 1051.48 1407.32 1045.25C1404.84 1042.14 1401.78 1039.82 1398.41 1038.49C1395.04 1037.15 1391.46 1036.84 1387.97 1037.58C1380.22 1039.85 1374.81 1048.47 1371.04 1057.14C1365.45 1069.8 1361.82 1083.63 1360.34 1097.92" fill="black"/>
</g>
<path d="M1883.35 1501.28C1882.3 1499.57 1881.41 1497.73 1880.68 1495.78C1879.08 1492.15 1876.87 1486.81 1874.29 1480.21C1867.57 1462.86 1861.56 1445.11 1856.29 1427.03C1851.03 1408.96 1846.51 1390.57 1842.76 1371.93C1841.33 1364.78 1840.3 1358.98 1839.65 1354.9C1839.24 1352.83 1838.97 1350.72 1838.87 1348.6C1839.56 1350.56 1840.08 1352.6 1840.43 1354.69C1841.41 1359.13 1842.68 1364.78 1844.16 1371.48C1847.35 1385.64 1852.07 1405.1 1858.22 1426.22C1864.37 1447.34 1870.76 1466.04 1875.6 1479.45C1877.94 1485.8 1879.7 1491.15 1881.38 1495.33C1882.2 1497.22 1882.86 1499.22 1883.35 1501.28Z" fill="#263238"/>
<path d="M1844.36 1491.8C1843.67 1490.04 1843.12 1488.2 1842.72 1486.31C1841.78 1482.68 1840.59 1477.44 1839.28 1470.88C1832.57 1436.58 1830.3 1401.2 1832.56 1366.04C1833.01 1359.33 1833.5 1353.89 1833.99 1350.16C1834.09 1348.2 1834.41 1346.27 1834.93 1344.41C1835.1 1346.35 1835.1 1348.32 1834.93 1350.26C1834.69 1353.99 1834.44 1359.43 1834.15 1366.14C1832.73 1401.13 1834.98 1436.19 1840.84 1470.48C1841.98 1477.08 1842.93 1482.38 1843.67 1486.05C1844.1 1487.93 1844.33 1489.86 1844.36 1491.8Z" fill="#263238"/>
<path d="M1969.64 1050.54C1970.72 1050.88 1971.77 1051.37 1972.76 1052L1973.37 1052.35L1972.76 1052.66C1947.23 1063.17 1921.12 1071.4 1894.62 1077.25C1871.75 1082.29 1850.8 1085.42 1835.63 1086.93C1828.05 1087.69 1821.9 1088.14 1817.63 1088.29C1815.42 1088.53 1813.2 1088.53 1810.99 1088.29C1813.16 1087.77 1815.35 1087.43 1817.55 1087.29L1835.51 1085.12C1850.59 1083.15 1871.46 1080.08 1894.25 1074.73C1932.3 1066.21 1963.57 1054.87 1972.72 1051.95V1052.55C1971.63 1052.04 1970.6 1051.36 1969.64 1050.54Z" fill="#263238"/>
<path d="M1934.35 1028.66C1934.35 1028.66 1934.71 1027.86 1935.99 1027.4C1936.9 1027.17 1937.85 1027.18 1938.76 1027.43C1939.67 1027.68 1940.53 1028.17 1941.27 1028.86C1942.47 1029.81 1943.42 1031.16 1944.01 1032.75C1944.61 1034.34 1944.82 1036.1 1944.64 1037.84C1944.47 1038.9 1944.12 1039.9 1943.6 1040.77C1943.08 1041.64 1942.41 1042.36 1941.64 1042.88C1940.05 1043.99 1938.21 1044.41 1936.4 1044.09C1934.59 1043.8 1932.9 1042.83 1931.56 1041.31C1930.93 1040.56 1930.44 1039.65 1930.11 1038.66C1929.78 1037.66 1929.62 1036.59 1929.63 1035.52C1929.72 1033.79 1930.18 1032.13 1930.95 1030.68C1931.71 1029.23 1932.77 1028.05 1934.02 1027.25C1935.62 1026.11 1937.5 1025.74 1939.31 1026.19C1940.58 1026.59 1941.07 1027.3 1941.03 1027.4C1938.87 1026.84 1936.62 1027.33 1934.76 1028.76C1933.81 1029.48 1933.02 1030.47 1932.46 1031.65C1931.89 1032.82 1931.57 1034.15 1931.52 1035.52C1931.61 1037.13 1932.18 1038.64 1933.13 1039.76C1934.08 1040.87 1935.33 1041.52 1936.64 1041.57C1937.91 1041.95 1939.25 1041.72 1940.39 1040.94C1941.54 1040.15 1942.39 1038.86 1942.79 1037.33C1942.86 1036.2 1942.75 1035.06 1942.45 1033.98C1942.15 1032.91 1941.67 1031.92 1941.05 1031.08C1940.43 1030.24 1939.67 1029.56 1938.83 1029.09C1937.99 1028.63 1937.07 1028.38 1936.15 1028.36C1935 1028.46 1934.43 1028.91 1934.35 1028.66Z" fill="#263238"/>
<path d="M1325.16 1135.27C1324.46 1136.14 1323.7 1136.95 1322.91 1137.69C1321.35 1139.1 1319.22 1141.52 1316.15 1144.04C1307.61 1151.54 1298.48 1157.94 1288.88 1163.15C1274.63 1170.91 1259.56 1176.17 1244.12 1178.77C1235 1180.29 1225.8 1180.89 1216.61 1180.59C1206.74 1180.16 1196.91 1178.66 1187.26 1176.1C1167.42 1170.61 1149.54 1161.64 1132.69 1155.94C1124.79 1153.15 1116.72 1151.2 1108.55 1150.09C1101.39 1149.22 1094.17 1149.32 1087.03 1150.39C1076.69 1151.7 1066.76 1156 1058.04 1162.95C1054.96 1165.7 1051.99 1168.64 1049.15 1171.77C1051.57 1168.07 1054.41 1164.83 1057.59 1162.14C1066.3 1154.76 1076.35 1150.12 1086.86 1148.63C1094.07 1147.47 1101.35 1147.29 1108.59 1148.08C1116.91 1149.08 1125.14 1150.99 1133.19 1153.77C1150.2 1159.22 1168.07 1168.14 1187.67 1173.58C1197.22 1176.09 1206.93 1177.59 1216.69 1178.07C1225.77 1178.37 1234.86 1177.81 1243.87 1176.4C1259.18 1173.91 1274.13 1168.82 1288.31 1161.28C1297.89 1156.3 1307.07 1150.19 1315.69 1143.04C1318.85 1140.67 1321.02 1138.4 1322.66 1137.09C1323.44 1136.37 1324.28 1135.76 1325.16 1135.27Z" fill="#FAFAFA"/>
<path d="M1585.64 1342.65C1585.21 1342.47 1584.8 1342.23 1584.41 1341.94L1580.85 1339.67C1579.29 1338.72 1577.28 1337.71 1574.94 1336.4C1572.61 1335.09 1569.82 1333.93 1566.75 1332.92C1548.5 1327.11 1529.45 1326.27 1510.91 1330.45C1498.08 1333.03 1485.39 1336.56 1472.91 1341.03C1459.38 1345.57 1444.95 1350.86 1429.45 1354.74C1413.19 1359.14 1396.47 1360.39 1379.89 1358.47C1362.2 1355.85 1344.8 1350.78 1328.03 1343.35C1310.69 1336.19 1294.13 1328.23 1277.86 1321.53C1262.33 1314.81 1246.31 1309.97 1230.02 1307.06C1202.32 1302.56 1174.18 1304.44 1147.04 1312.6C1136.64 1315.83 1126.43 1319.89 1116.46 1324.75C1112.16 1327.07 1108.06 1329.14 1104.41 1331.31C1100.76 1333.47 1097.44 1335.44 1094.53 1337.45L1086.78 1342.75L1081.25 1346.98L1077.84 1349.5C1077.47 1349.86 1077.06 1350.13 1076.61 1350.31L1077.72 1349.3L1081.04 1346.53C1082.48 1345.37 1084.28 1343.81 1086.45 1342.14L1094.12 1336.6C1097.03 1334.53 1100.39 1332.57 1104 1330.25C1107.6 1327.93 1111.7 1325.86 1116.05 1323.44C1126.02 1318.43 1136.25 1314.24 1146.67 1310.89C1173.98 1302.41 1202.33 1300.34 1230.26 1304.79C1246.69 1307.65 1262.85 1312.48 1278.51 1319.21C1294.91 1325.86 1311.31 1333.83 1328.65 1340.98C1345.29 1348.36 1362.54 1353.44 1380.1 1356.11C1396.48 1358.08 1413.01 1356.89 1429.09 1352.58C1444.5 1348.8 1458.89 1343.6 1472.46 1339.12C1485.02 1334.71 1497.8 1331.26 1510.71 1328.79C1529.31 1324.7 1548.43 1325.75 1566.66 1331.86C1569.9 1332.97 1572.65 1334.48 1575.07 1335.59C1577.49 1336.7 1579.37 1338.01 1580.93 1339.07L1584.37 1341.59C1585.28 1342.29 1585.69 1342.6 1585.64 1342.65Z" fill="#FAFAFA"/>
<path d="M1379.07 1131.49C1382.52 1132.68 1386.03 1133.63 1389.57 1134.31C1399.26 1135.66 1409.07 1134.7 1418.47 1131.49C1432.34 1126.27 1445.93 1120.01 1459.18 1112.74C1467.2 1108.74 1475.52 1105.7 1484.02 1103.67C1493.17 1101.66 1502.49 1101 1511.77 1101.7C1529.68 1103.14 1547.26 1108.25 1563.79 1116.82C1577.23 1123.8 1590.2 1132.08 1602.58 1141.57C1613.19 1149.54 1621.51 1156.7 1627.17 1161.28C1629.92 1163.6 1632.09 1165.47 1633.73 1166.93C1634.52 1167.53 1635.26 1168.23 1635.94 1168.99C1635.09 1168.55 1634.28 1167.99 1633.53 1167.33L1626.76 1162.29C1620.86 1157.75 1612.45 1151.05 1601.76 1143.29C1589.33 1134.1 1576.39 1126.03 1563.02 1119.14C1546.65 1110.69 1529.27 1105.58 1511.57 1104.02C1502.44 1103.36 1493.28 1103.99 1484.26 1105.89C1475.86 1107.88 1467.62 1110.85 1459.67 1114.76C1444.42 1122.02 1430.97 1129.88 1418.67 1133.05C1409.1 1136.19 1399.12 1136.89 1389.32 1135.12C1385.78 1134.54 1382.32 1133.32 1379.07 1131.49Z" fill="#FAFAFA"/>
<path d="M1618.69 1005.07C1616.79 1005.98 1614.85 1006.7 1612.86 1007.24C1610.94 1007.89 1608.77 1008.6 1605.9 1009.25C1603.03 1009.91 1600.07 1010.82 1596.59 1011.42C1588.45 1013.1 1580.24 1014.2 1571.99 1014.7C1562.02 1015.32 1552.03 1015.18 1542.07 1014.3C1532.03 1013.18 1522.07 1011.3 1512.22 1008.65C1504.19 1006.45 1496.26 1003.69 1488.49 1000.38C1485.17 999.073 1482.26 997.51 1479.63 996.3C1477.01 995.091 1474.84 993.881 1473.07 992.873C1471.18 991.94 1469.36 990.81 1467.62 989.495C1469.59 990.118 1471.51 990.944 1473.36 991.965C1475.2 992.873 1477.46 993.931 1480.04 994.99C1482.62 996.048 1485.62 997.51 1488.94 998.72C1495.58 1001.34 1503.61 1004.01 1512.59 1006.43C1532.16 1011.55 1552.17 1013.63 1572.16 1012.63C1581.34 1012.13 1589.62 1011.17 1596.51 1009.96C1599.99 1009.46 1603.07 1008.7 1605.81 1008.15C1608.56 1007.59 1610.9 1007.04 1612.78 1006.53C1614.71 1005.81 1616.68 1005.32 1618.69 1005.07Z" fill="#FAFAFA"/>
<path d="M1041.36 1037.43C1041.9 1036.73 1042.49 1036.09 1043.12 1035.52C1044.35 1034.31 1046.15 1032.49 1048.53 1030.48C1053.25 1026.04 1060.13 1019.79 1069.03 1012.53C1091.87 993.159 1116.88 977.979 1143.27 967.468C1169.83 957.08 1198.03 954.66 1225.51 960.411C1233.77 962.278 1241.87 965.131 1249.69 968.929C1252.48 970.19 1254.53 971.551 1255.96 972.307C1256.7 972.667 1257.4 973.123 1258.06 973.668C1258.06 973.668 1254.98 972.307 1249.45 969.837C1241.59 966.387 1233.49 963.822 1225.26 962.175C1198 956.996 1170.14 959.618 1143.84 969.837C1117.73 980.36 1092.9 995.216 1070.05 1013.99C1061.16 1021.05 1054.11 1027.1 1049.27 1031.28L1043.65 1036.32C1042.93 1036.82 1042.16 1037.2 1041.36 1037.43Z" fill="#FAFAFA"/>
<path d="M1557.32 1566.05C1556.95 1566.26 1556.57 1566.4 1556.17 1566.45L1552.73 1567.36C1550.86 1567.88 1548.97 1568.23 1547.07 1568.42L1543.46 1568.92H1539.36C1527.6 1569.53 1510.66 1565.8 1490.7 1557.94C1480.7 1554.1 1469.88 1549.37 1458.11 1545.08C1445.6 1540.51 1432.77 1537.46 1419.78 1535.96C1392.27 1532.73 1361.85 1536.81 1330.53 1543.82C1299.21 1550.83 1269.45 1559.55 1241.9 1563.58C1217.52 1567.79 1192.78 1567.98 1168.36 1564.14C1151.89 1561.48 1135.88 1555.54 1120.97 1546.54L1114.08 1542.11L1109.16 1538.53L1106.21 1536.16L1105.27 1535.3C1105.65 1535.45 1106.01 1535.67 1106.33 1535.96L1109.37 1538.07L1114.29 1541.65L1121.22 1545.89C1136.16 1554.46 1152.11 1560.11 1168.48 1562.62C1192.78 1566.15 1217.35 1565.78 1241.58 1561.51C1269 1557.33 1298.6 1548.56 1330.08 1541.35C1361.57 1534.14 1392.11 1530.26 1419.86 1533.69C1432.96 1535.25 1445.89 1538.41 1458.48 1543.12C1470.29 1547.5 1481.11 1552.29 1491.03 1556.22C1506.5 1563.27 1522.79 1567.24 1539.28 1567.97H1543.38L1546.99 1567.56C1548.89 1567.47 1550.78 1567.2 1552.64 1566.76L1556.09 1566.1L1557.32 1566.05Z" fill="#FAFAFA"/>
<g opacity="0.3">
<path d="M1196.15 1600.78C1214.72 1657.79 1250.68 1698.27 1300.16 1706.64C1349.64 1715 1399.69 1701.09 1447.74 1684.96C1360.13 1669.84 1282.61 1654.97 1196.03 1600.78" fill="black"/>
</g>
<path d="M1569.86 1757.55L1568.67 1756.99L1565.19 1755.18L1551.95 1747.92C1540.39 1741.72 1523.87 1732.14 1503.24 1721.15C1492.03 1715.12 1480.41 1710.28 1468.52 1706.69C1454.88 1702.68 1440.75 1701.88 1426.87 1704.32C1419.37 1705.68 1411.97 1707.75 1404.73 1710.52C1397.21 1713.41 1389.81 1716.78 1382.56 1720.6C1367.76 1728.56 1353.04 1738.44 1337.87 1748.42C1323.2 1758.44 1307.96 1767.16 1292.29 1774.53C1277.62 1781.46 1262.12 1785.33 1246.41 1785.98C1232.15 1786.18 1218.01 1782.75 1204.89 1775.9C1193.6 1769.92 1182.65 1763.05 1172.09 1755.33C1162.29 1748.42 1153.48 1742.17 1145.48 1737.38C1138.66 1733.16 1131.57 1729.62 1124.29 1726.8C1121.6 1725.71 1118.86 1724.82 1116.09 1724.13C1114.12 1723.49 1112.12 1723.02 1110.11 1722.72L1106.38 1721.96C1105.94 1721.93 1105.52 1721.82 1105.1 1721.66C1105.53 1721.58 1105.95 1721.58 1106.38 1721.66L1110.15 1722.16C1112.19 1722.38 1114.22 1722.79 1116.21 1723.37C1118.98 1723.97 1121.72 1724.78 1124.41 1725.79C1131.77 1728.43 1138.94 1731.8 1145.85 1735.87C1154.05 1740.56 1162.87 1746.76 1172.66 1753.51C1183.23 1761.1 1194.18 1767.84 1205.46 1773.68C1218.44 1780.31 1232.4 1783.59 1246.45 1783.3C1261.9 1782.56 1277.14 1778.67 1291.55 1771.81C1307.05 1764.45 1322.12 1755.75 1336.64 1745.8C1351.77 1735.72 1366.53 1725.94 1381.45 1717.98C1388.77 1714.03 1396.26 1710.57 1403.87 1707.59C1411.23 1704.86 1418.74 1702.81 1426.34 1701.44C1440.44 1699.03 1454.78 1699.92 1468.6 1704.07C1480.59 1707.83 1492.28 1712.89 1503.53 1719.19C1524.03 1730.43 1540.43 1740.21 1551.99 1746.71L1565.06 1754.37L1568.47 1756.44C1569.49 1757.24 1569.9 1757.5 1569.86 1757.55Z" fill="#FAFAFA"/>
</g>
<defs>
<clipPath id="clip0_10_511">
<rect width="2523" height="2064" fill="white"/>
</clipPath>
</defs>
</svg>
