<svg width="2020" height="1582" viewBox="0 0 2020 1582" fill="none" xmlns="http://www.w3.org/2000/svg">
<path d="M1915.31 482.122C1915.9 483.076 1915.92 484.313 1915.26 485.284C1913.07 488.486 1910.78 491.697 1908.45 494.826C1907.49 496.112 1905.65 496.364 1904.33 495.388C1901.13 493.042 1904.44 490.614 1910.35 481.948C1911.25 480.624 1913.08 480.296 1914.44 481.219C1914.8 481.464 1915.09 481.774 1915.31 482.122Z" fill="#EAC4F9"/>
<path d="M1884.75 522.636C1879.55 527.996 1874.06 533.214 1868.43 538.146C1867.22 539.204 1865.36 539.076 1864.27 537.858C1861.31 534.522 1865.12 534.339 1880.46 518.543C1881.58 517.391 1883.45 517.375 1884.63 518.506C1885.83 519.653 1885.86 521.5 1884.75 522.636ZM1839.42 560.481C1833.17 564.689 1826.64 568.73 1820.22 572.35C1816.77 574.301 1813.91 569.125 1817.22 567.262C1823.61 563.649 1829.92 559.749 1836.04 555.63C1837.37 554.731 1839.21 555.09 1840.15 556.429C1841.09 557.784 1840.74 559.591 1839.42 560.481ZM1787.14 588.335C1780.17 591.165 1773 593.754 1765.82 596.031C1762.11 597.202 1760.23 591.632 1763.92 590.465C1770.96 588.234 1777.98 585.696 1784.81 582.925C1788.39 581.467 1790.72 586.882 1787.14 588.335ZM1732.28 601.51C1732.6 603.097 1731.57 604.618 1729.97 604.905C1722.54 606.249 1714.95 607.317 1707.41 608.079C1703.53 608.47 1702.82 602.659 1706.69 602.267C1714.08 601.521 1721.52 600.474 1728.8 599.159C1730.4 598.869 1731.95 599.924 1732.28 601.51ZM1673.32 606.63C1673.31 608.244 1671.98 609.517 1670.35 609.477C1662.76 609.287 1655.08 608.799 1647.52 608.026C1643.64 607.621 1644.12 601.819 1648.01 602.215C1655.42 602.972 1662.94 603.452 1670.38 603.637C1672.01 603.677 1673.32 605.017 1673.32 606.63ZM1613.92 597.615C1614.31 598.241 1614.47 599.005 1614.3 599.77C1613.97 601.34 1612.4 602.318 1610.81 601.951C1603.38 600.243 1595.93 598.228 1588.66 595.963C1587.09 595.475 1586.2 593.836 1586.66 592.296C1587.12 590.759 1588.76 589.907 1590.33 590.393C1597.45 592.615 1604.75 594.588 1612.03 596.263C1612.85 596.451 1613.51 596.955 1613.92 597.615ZM1557.5 578.532C1557.99 579.333 1558.1 580.346 1557.69 581.253C1557.04 582.718 1555.3 583.354 1553.81 582.678C1546.87 579.525 1539.95 576.062 1533.27 572.385C1531.83 571.599 1531.29 569.817 1532.06 568.409C1532.83 567.004 1534.61 566.503 1536.05 567.293C1542.6 570.895 1549.37 574.287 1556.18 577.376C1556.74 577.632 1557.19 578.043 1557.5 578.532ZM1505.84 551.784C1504.89 553.079 1503.05 553.347 1501.72 552.384C1495.55 547.908 1489.47 543.129 1483.65 538.182C1480.66 535.626 1484.46 531.249 1487.44 533.783C1493.14 538.63 1499.1 543.31 1505.15 547.696C1506.47 548.656 1506.78 550.486 1505.84 551.784ZM1394.25 386.864C1399.94 408.233 1403.25 410.493 1399.03 411.872C1397.49 412.377 1395.81 411.539 1395.27 410.009C1392.75 402.873 1390.49 395.551 1388.55 388.244C1387.55 384.496 1393.25 383.105 1394.25 386.864ZM1460.96 512.537C1459.76 513.608 1457.9 513.498 1456.79 512.29C1451.65 506.677 1446.66 500.792 1441.95 494.798C1439.54 491.716 1444.17 488.195 1446.58 491.272C1451.19 497.145 1456.09 502.914 1461.12 508.415C1462.24 509.637 1462.14 511.478 1460.96 512.537ZM1415.04 441.619C1424.98 461.417 1428.71 463.021 1424.86 465.239C1422.43 466.646 1420.52 463.961 1420.81 464.167C1416.88 457.64 1413.17 450.899 1409.77 444.134C1409.04 442.677 1409.63 440.935 1411.08 440.241C1412.47 439.578 1414.25 440.088 1415.04 441.619Z" fill="#EAC4F9"/>
<path d="M1385.89 339.714C1386.79 349.521 1388.61 354.012 1384.64 354.448C1383.03 354.627 1381.54 353.477 1381.33 351.866C1379.99 341.76 1378.86 337.271 1382.69 337.004C1383.84 336.924 1385.75 338.109 1385.89 339.714Z" fill="#EAC4F9"/>
<path d="M1454.84 126.056C1455.5 127.126 1455.43 128.53 1454.56 129.503C1452.02 132.359 1449.51 135.299 1447.1 138.242C1446.08 139.483 1444.23 139.653 1442.95 138.622C1441.69 137.59 1441.47 135.752 1442.49 134.509C1444.94 131.505 1447.5 128.506 1450.1 125.591C1451.16 124.394 1453.03 124.299 1454.26 125.378C1454.49 125.58 1454.68 125.81 1454.84 126.056Z" fill="#EAC4F9"/>
<path d="M1924.56 178.9C1928.68 185.974 1932.55 193.296 1936.06 200.666C1936.76 202.136 1936.14 203.866 1934.67 204.529C1930.52 206.396 1931.53 202.439 1919.47 181.743C1918.65 180.333 1919.12 178.555 1920.53 177.77C1922.99 176.399 1924.85 179.108 1924.56 178.9ZM1901.63 149.797C1898.02 152.518 1898.03 148.338 1881.88 130.724C1880.76 129.521 1880.84 127.671 1882.04 126.601C1883.23 125.53 1885.1 125.639 1886.21 126.844C1891.74 132.871 1897.1 139.218 1902.14 145.708C1903.15 147.01 1902.9 148.835 1901.63 149.797ZM1950.72 237.77C1953.19 245.523 1955.35 253.479 1957.15 261.413C1957.51 262.993 1956.51 264.537 1954.92 264.86C1950.44 265.773 1952.32 262.151 1945.1 239.421C1944.61 237.873 1945.47 236.249 1947.02 235.793C1948.57 235.338 1950.23 236.223 1950.72 237.77ZM1857.77 99.8631C1858.42 100.909 1858.37 102.276 1857.55 103.252C1856.51 104.479 1854.65 104.623 1853.39 103.575C1847.2 98.4186 1840.72 93.4643 1834.14 88.8521C1832.79 87.9086 1832.45 86.0869 1833.38 84.7766C1834.3 83.4649 1836.13 83.1656 1837.48 84.1056C1844.2 88.8142 1850.81 93.8711 1857.14 99.135C1857.39 99.3484 1857.6 99.5954 1857.77 99.8631ZM1804.29 64.4C1804.81 65.2444 1804.9 66.3234 1804.42 67.2573C1803.69 68.6825 1801.92 69.2297 1800.46 68.4768C1793.32 64.7819 1785.93 61.3382 1778.49 58.2414C1776.98 57.611 1776.25 55.8974 1776.85 54.4122C1777.46 52.9278 1779.17 52.2348 1780.68 52.8638C1788.27 56.024 1795.82 59.5399 1803.11 63.3105C1803.61 63.5707 1804.01 63.9526 1804.29 64.4ZM1744.48 41.2568C1744.88 41.9127 1745.04 42.7192 1744.83 43.5141C1744.44 45.0707 1742.84 45.9895 1741.26 45.5669C1733.5 43.49 1725.55 41.711 1717.65 40.2795C1716.04 39.9857 1714.95 38.4662 1715.21 36.8792C1715.48 35.2929 1716.99 34.2428 1718.6 34.5346C1726.66 35.9963 1734.77 37.8117 1742.69 39.9307C1743.46 40.1371 1744.09 40.6278 1744.48 41.2568ZM1681.25 31.4742C1681.55 31.9469 1681.71 32.5064 1681.7 33.0976C1681.66 34.7093 1680.3 35.955 1678.67 35.8807C1670.67 35.5159 1662.56 35.4849 1654.57 35.785C1652.95 35.8469 1651.55 34.5923 1651.46 32.9779C1651.36 31.3661 1652.6 30.0097 1654.23 29.9491C1662.38 29.6415 1670.66 29.6731 1678.82 30.0448C1679.86 30.0922 1680.75 30.6573 1681.25 31.4742ZM1618.05 36.5193C1618.94 40.987 1615.31 38.9651 1592.3 45.0501C1588.55 46.0425 1586.92 40.3965 1590.67 39.4049C1598.52 37.3286 1606.57 35.5606 1614.59 34.1519C1616.18 33.8732 1617.73 34.922 1618.05 36.5193ZM1556.99 53.7385C1558.85 57.9227 1554.91 56.7239 1533.9 67.7143C1530.49 69.496 1527.63 64.3284 1531.06 62.5384C1538.23 58.7871 1545.64 55.3014 1553.1 52.1763C1554.61 51.5425 1556.36 52.2809 1556.99 53.7385ZM1501.68 84.0905C1502.48 85.385 1502.17 87.0765 1500.93 87.9615C1494.47 92.5683 1488.15 97.4813 1482.16 102.564C1480.94 103.603 1479.07 103.444 1478 102.211C1476.93 100.967 1477.05 99.1343 1478.27 98.0945C1484.38 92.9076 1490.83 87.8955 1497.42 83.1965C1498.73 82.2626 1500.58 82.573 1501.55 83.8902C1501.6 83.9556 1501.64 84.023 1501.68 84.0905Z" fill="#EAC4F9"/>
<path d="M1963.28 300.827C1964.14 310.99 1965.07 315.509 1961.22 315.598C1957.22 315.691 1958.28 311.608 1957.4 301.201C1957.26 299.591 1958.47 298.202 1960.09 298.1C1961.71 297.997 1963.14 299.218 1963.28 300.827Z" fill="#EAC4F9"/>
<path d="M1891.76 338.453L1855.03 316.866C1854.22 297.293 1850.24 277.645 1842.95 258.695C1866.88 226.059 1870.92 225.433 1868.37 221.663L1839.83 179.505C1839 178.273 1837.48 177.685 1836.05 178.041L1795.22 188.178C1780.25 174.237 1763.34 163.03 1745.28 154.71L1739.23 113.106C1739.02 111.648 1737.9 110.465 1736.44 110.16L1686.56 99.7302C1685.11 99.4254 1683.63 100.066 1682.9 101.326L1661.84 137.26C1642.09 137.674 1622.32 141.212 1603.33 148.052L1569.45 122.291C1568.26 121.387 1566.64 121.319 1565.42 122.119L1523.42 149.528C1522.19 150.329 1521.63 151.823 1522.01 153.249L1533.08 193.897C1519.31 208.442 1508.33 224.962 1500.29 242.683C1459.49 248.56 1456.33 246.166 1455.48 250.536C1447.01 298.944 1443.63 301.027 1447.65 303.392L1484.37 324.98C1485.18 344.553 1489.16 364.2 1496.45 383.151C1472.53 415.766 1468.48 416.41 1471.03 420.183C1500.12 461.591 1498.96 464.895 1503.35 463.805L1544.18 453.667C1559.15 467.608 1576.06 478.815 1594.12 487.136C1600.8 527.177 1598.46 530.745 1602.96 531.685C1652.5 541.154 1654.23 544.4 1656.5 540.519L1677.56 504.585C1697.31 504.172 1717.08 500.633 1736.07 493.794C1768.93 517.735 1770.15 522.23 1773.99 519.726C1815.03 491.881 1818.58 492.995 1817.39 488.597L1806.32 447.949C1820.09 433.405 1831.07 416.884 1839.11 399.163C1879.77 393.306 1883.07 395.701 1883.92 391.311C1892.4 342.902 1895.78 340.818 1891.76 338.453Z" fill="url(#paint0_linear_10_8)"/>
<path d="M1706.7 354.238C1688.56 374.073 1657.21 375.265 1636.8 356.896C1616.41 338.521 1614.56 307.444 1632.7 287.608C1650.84 267.774 1682.19 266.58 1702.6 284.949C1723 303.323 1724.83 334.407 1706.7 354.238ZM1642.68 350.466C1659.24 365.377 1684.97 364.82 1700.09 348.284C1714.98 331.994 1713.48 306.461 1696.72 291.379C1679.96 276.293 1654.21 277.272 1639.31 293.562C1624.39 309.876 1625.96 335.41 1642.68 350.466Z" fill="white"/>
<path d="M1776.46 256.634C1780.32 262.863 1783.65 269.396 1786.37 276.116C1787.19 278.137 1786.4 280.373 1784.61 281.442C1784.4 281.569 1784.17 281.68 1783.93 281.771C1781.66 282.633 1779.08 281.492 1778.17 279.238C1775.03 271.509 1771.04 264.043 1766.31 257.041C1730.62 204.322 1659.76 188.378 1606.32 220.205C1604.96 221.018 1603.6 221.863 1602.26 222.737C1548.07 258.102 1534.42 330.545 1570.95 384.535C1607.43 438.436 1680.93 454.087 1734.99 418.839C1767.16 397.841 1773.97 372.425 1777.42 370.37C1781.15 368.149 1785.61 372.164 1783.77 376.058C1773.72 397.327 1757.29 415.987 1735.6 428.906C1642 484.649 1523.28 401.454 1543.94 294.713C1550.3 261.865 1569.24 233.694 1597.29 215.392C1598.74 214.444 1600.21 213.53 1601.69 212.646C1628.83 196.478 1660.85 191.205 1692.43 197.809C1725.73 204.774 1754.57 224.115 1773.63 252.266C1774.6 253.704 1775.54 255.162 1776.46 256.634Z" fill="white"/>
<path d="M1363.19 204.677C1361.96 193.795 1358.94 183.027 1354.09 172.813L1367.05 153.124C1368.49 150.94 1366.03 150.532 1349.21 128.777C1347.63 126.803 1346.58 128.802 1324.44 135.824C1315.46 128.786 1305.5 123.369 1295 119.619L1289.95 96.7022C1289.39 94.1573 1287.36 95.5736 1259.77 91.8443C1258.94 91.7466 1258.13 92.1774 1257.77 92.9158L1247.33 114.01C1236.23 115.218 1225.24 118.171 1214.81 122.927C1195.35 111.184 1194.5 108.752 1192.44 110.332C1170.41 127.919 1168.39 127.46 1169.23 129.85L1177.07 151.986C1169.89 160.784 1164.36 170.546 1160.53 180.833L1137.15 185.779C1134.55 186.327 1135.99 188.316 1132.19 215.353C1131.88 217.835 1133.98 217.114 1154.81 227.545C1156.04 238.428 1159.05 249.194 1163.91 259.408L1150.95 279.098C1149.51 281.285 1151.97 281.69 1168.78 303.445C1170.36 305.409 1171.31 303.456 1193.56 296.397C1202.54 303.437 1212.5 308.854 1223 312.603L1228.05 335.519C1228.22 336.322 1228.9 336.927 1229.73 337.025L1258.23 340.378C1259.06 340.475 1259.86 340.045 1260.23 339.306L1270.67 318.212C1281.77 317.004 1292.76 314.051 1303.18 309.295C1322.64 321.037 1323.5 323.471 1325.55 321.889C1347.58 304.309 1349.61 304.764 1348.76 302.371L1340.93 280.236C1348.11 271.438 1353.64 261.676 1357.47 251.389C1379.7 246.209 1382.08 247.338 1382.39 244.79L1385.81 216.869C1386.11 214.373 1383.91 215.055 1363.19 204.677Z" fill="url(#paint1_linear_10_8)"/>
<path d="M1282.7 234.046C1272.58 246.881 1253.8 249.249 1240.7 239.333C1227.6 229.424 1225.18 211.013 1235.3 198.177C1245.39 185.372 1264.23 182.999 1277.3 192.887C1290.37 202.779 1292.79 221.238 1282.7 234.046ZM1275.63 228.702C1282.72 219.709 1281.01 206.749 1271.85 199.81C1257.12 188.664 1235.77 200.582 1238.15 218.736C1240.52 236.808 1264.19 243.23 1275.63 228.702Z" fill="white"/>
<path d="M1408.67 262.002C1407.47 265.763 1406.1 269.529 1404.6 273.198C1403.99 274.693 1402.26 275.419 1400.74 274.82C1396.9 273.313 1399.9 269.96 1402.99 260.264C1403.48 258.726 1405.15 257.87 1406.72 258.351C1408.28 258.828 1409.16 260.459 1408.67 262.002Z" fill="#EAC4F9"/>
<path d="M1385.24 307.238C1380.55 313.47 1375.18 319.631 1369.22 325.413C1366.42 328.133 1362.25 323.977 1365.04 321.271C1380.47 306.289 1380.6 300.264 1384.61 303.162C1385.94 304.126 1386.21 305.949 1385.24 307.238ZM1338.72 345.112C1339.54 346.505 1339.06 348.288 1337.64 349.096C1330.59 353.098 1323.15 356.588 1315.53 359.467C1311.86 360.851 1309.71 355.416 1313.39 354.026C1320.72 351.257 1327.87 347.902 1334.65 344.05C1337.15 342.635 1339.01 345.316 1338.72 345.112ZM1279.13 364.366C1279.35 364.715 1279.49 365.113 1279.54 365.544C1279.73 367.144 1278.56 368.589 1276.93 368.775C1268.82 369.691 1260.58 369.99 1252.44 369.664C1250.8 369.597 1249.52 368.237 1249.59 366.632C1249.66 365.024 1251.04 363.772 1252.68 363.839C1260.52 364.153 1268.45 363.864 1276.25 362.982C1277.44 362.849 1278.54 363.424 1279.13 364.366ZM1216.66 358.847C1217.08 359.532 1217.22 360.385 1216.96 361.212C1216.48 362.752 1214.82 363.621 1213.25 363.15C1205.45 360.824 1197.78 357.869 1190.44 354.367C1188.96 353.66 1188.35 351.916 1189.07 350.468C1189.79 349.022 1191.57 348.42 1193.05 349.125C1200.1 352.493 1207.48 355.337 1214.98 357.575C1215.71 357.79 1216.29 358.257 1216.66 358.847ZM1161.38 332.692C1160.32 333.917 1158.44 334.065 1157.19 333.021C1150.96 327.822 1145.12 322.12 1139.82 316.071C1137.26 313.165 1141.77 309.34 1144.34 312.275C1149.43 318.093 1155.05 323.58 1161.05 328.581C1162.32 329.655 1162.42 331.49 1161.38 332.692Z" fill="#EAC4F9"/>
<path d="M1118.6 270.345C1122.59 280.298 1125.52 282.986 1121.91 284.706C1120.43 285.41 1118.66 284.843 1117.93 283.357C1116.18 279.826 1114.54 276.165 1113.06 272.477C1112.46 270.979 1113.21 269.287 1114.74 268.698C1116.25 268.118 1117.98 268.819 1118.6 270.345Z" fill="#EAC4F9"/>
<path d="M1124.1 149.807C1119.18 159.399 1119.11 163.299 1115.39 161.807C1113.87 161.197 1113.14 159.495 1113.76 158.006C1115.28 154.368 1116.97 150.729 1118.79 147.189C1119.53 145.751 1121.31 145.17 1122.78 145.893C1124.24 146.613 1124.84 148.366 1124.1 149.807Z" fill="#EAC4F9"/>
<path d="M1382.6 126.287C1378.69 129.251 1378.47 123.397 1362.87 108.913C1360.01 106.274 1364.09 102.021 1366.96 104.68C1372.79 110.096 1378.23 115.991 1383.13 122.198C1384.12 123.448 1383.91 125.29 1382.6 126.287ZM1336.62 85.9299C1335.81 87.3331 1334 87.8348 1332.57 87.0461C1313.66 76.66 1308.05 78.3123 1309.78 73.7551C1310.35 72.2459 1312.07 71.4772 1313.6 72.0381C1321.12 74.7757 1328.48 78.1127 1335.48 81.9611C1336.91 82.7498 1337.42 84.5246 1336.62 85.9299ZM1278.19 66.4968C1277.67 71.3251 1273.27 67.4279 1251.74 68.4505C1247.81 68.6329 1247.52 62.8122 1251.45 62.6257C1259.47 62.2465 1267.58 62.4695 1275.54 63.2925C1277.17 63.4611 1278.36 64.8947 1278.19 66.4968ZM1216.65 71.1441C1218.1 75.7977 1212.48 73.8859 1193.09 83.0856C1189.56 84.7655 1186.95 79.5214 1190.5 77.8381C1197.71 74.4151 1205.26 71.5123 1212.94 69.2089C1214.51 68.7375 1216.17 69.6088 1216.65 71.1441ZM1161.56 103.192C1145.03 116.907 1144.63 122.655 1140.87 119.463C1139.63 118.408 1139.5 116.568 1140.57 115.351C1145.85 109.393 1151.61 103.805 1157.71 98.7413C1158.97 97.7014 1160.85 97.8528 1161.91 99.0826C1162.97 100.31 1162.82 102.15 1161.56 103.192Z" fill="#EAC4F9"/>
<path d="M1403.03 155.358C1404.62 158.986 1406.08 162.717 1407.38 166.447C1407.91 167.971 1407.08 169.627 1405.52 170.147C1401.61 171.452 1401.66 167.011 1397.56 157.659C1396.92 156.179 1397.61 154.466 1399.12 153.83C1400.66 153.186 1402.4 153.905 1403.03 155.358Z" fill="#EAC4F9"/>
<path d="M1324.61 184.338C1325.86 186.818 1324.72 189.342 1322.63 190.34C1320.41 191.399 1317.73 190.48 1316.66 188.325C1314.66 184.295 1312.19 180.441 1309.33 176.87C1308.6 176.248 1294.85 156.479 1266.11 153.058C1209.07 146.351 1171.91 210.996 1207.45 255.307C1227.89 280.802 1264.41 286.801 1292 270.362C1319.8 253.807 1315.63 232.89 1324.66 236.276C1326.96 237.136 1328.11 239.663 1327.23 241.921C1322.49 254.092 1314.43 264.798 1303.92 272.885C1272.03 297.452 1225.58 292.073 1200.43 260.709C1173.37 226.962 1182.06 177.016 1220.23 154.282C1251.02 135.944 1292.65 141.899 1316.35 171.468C1316.35 171.468 1316.35 171.468 1316.35 171.469C1319.56 175.471 1322.34 179.802 1324.61 184.338Z" fill="white"/>
<path d="M24.9667 11.2881C22.8107 2.29418 35.722 -3.68483 43.6275 2.59835C123.911 66.3943 316.806 257.434 268.733 591.291C208.417 1010.16 311.534 1163.01 439.888 1256.24C439.888 1256.24 263.615 1212.39 152.712 1057.3C-119.579 676.515 63.3031 171.209 24.9667 11.2881Z" fill="url(#paint2_linear_10_8)"/>
<path d="M86.063 142.119C96.1062 188.75 105.058 235.523 111.975 282.507C119.183 329.452 124.706 376.56 128.486 423.746C132.051 470.941 134.57 518.185 134.713 565.449C135.107 612.71 133.102 659.933 130.893 707.339C128.997 754.729 126.77 802.46 130.31 850.529C133.792 898.5 144.096 946.891 164.544 992.253C169.656 1003.56 175.031 1014.83 181.137 1025.72C187.007 1036.71 193.454 1047.48 200.126 1058.16C213.599 1079.45 228.766 1100.02 245.667 1119.55C279.591 1158.53 320.506 1193.11 365.578 1222.38C370.322 1225.46 377.119 1224.7 380.76 1220.69C384.335 1216.75 383.536 1211.13 379.015 1208.01L378.983 1207.99C368.258 1200.61 357.646 1193.13 347.465 1185.28C342.299 1181.43 337.347 1177.38 332.306 1173.42C327.449 1169.3 322.401 1165.34 317.7 1161.1C298.561 1144.4 280.83 1126.59 264.744 1107.76C232.387 1070.27 206.485 1028.5 186.86 985.195C177.333 963.442 169.718 941.132 164.159 918.404C158.618 895.669 155.134 872.54 153.207 849.225C149.348 802.567 151.091 755.309 152.584 707.911C154.004 660.501 155.046 612.849 153.769 565.237C153.207 541.432 152.139 517.639 150.568 493.874C149.864 481.988 148.887 470.115 147.936 458.244C146.85 446.38 145.687 434.522 144.411 422.676C139.199 375.293 132.282 328.069 123.611 281.095C114.674 234.157 104.267 187.434 91.7521 141.13C91.394 139.806 89.837 138.979 88.2731 139.282C86.754 139.576 85.7891 140.835 86.063 142.119Z" fill="white"/>
<path d="M218.373 1036.07C208.529 1046.31 191.218 1043.37 185.297 1030.55C152.622 959.866 78.683 751.818 200.796 512.136C303.915 309.735 340.203 190.382 352.845 135.081C355.518 123.388 371.872 121.835 376.808 132.799C431.268 253.763 575.065 665.216 218.373 1036.07Z" fill="url(#paint3_linear_10_8)"/>
<path d="M200.493 1028.62C200.142 1028.68 199.783 1028.71 199.413 1028.7C196.319 1028.65 193.849 1026.16 193.896 1023.13C193.95 1019.69 200.777 676.096 331.183 388.324C332.439 385.556 335.749 384.306 338.579 385.535C341.408 386.766 342.682 390.01 341.427 392.783C211.969 678.46 205.155 1019.88 205.1 1023.29C205.06 1025.96 203.079 1028.16 200.493 1028.62Z" fill="white"/>
<path d="M169.82 1404.03C169.82 1420.81 183.837 1434.53 200.968 1434.53H1885.34C1902.47 1434.53 1916.49 1420.81 1916.49 1404.03L1930.5 455.483C1930.5 438.712 1910.34 405.968 1873.38 408.429L227.23 366.689C205.735 366.144 184.952 374.252 169.73 389.119C154.509 403.987 146.18 424.315 146.688 445.36L169.82 1404.03Z" fill="url(#paint4_linear_10_8)"/>
<path d="M200.571 1374.78C200.571 1390.66 213.832 1403.66 230.039 1403.66H1844.72C1860.93 1403.66 1874.19 1390.66 1874.19 1374.78L1887.41 513.676C1885.86 461.856 1839.49 443.233 1811.39 444.332L233.704 402.854C218.603 402.457 204.002 408.159 193.306 418.613C182.611 429.068 176.729 443.375 177.107 458.174L200.571 1374.78Z" fill="url(#paint5_linear_10_8)"/>
<path d="M1856.74 965.695C1856.72 965.695 1856.7 965.695 1856.67 965.695C1854.29 965.661 1852.38 963.739 1852.42 961.399L1853.47 891.565C1853.5 889.25 1855.43 887.396 1857.78 887.396C1857.8 887.396 1857.82 887.396 1857.84 887.396C1860.23 887.429 1862.14 889.352 1862.1 891.691L1861.05 961.526C1861.02 963.84 1859.09 965.695 1856.74 965.695Z" fill="white"/>
<path d="M1859.3 794.565C1859.28 794.565 1859.26 794.565 1859.24 794.565C1856.85 794.531 1854.95 792.605 1854.99 790.269L1858.99 522.803C1858.92 506.916 1854 494.231 1844.36 485.187C1826.38 468.307 1797.84 469.169 1796.64 469.224L1292.37 455.973C1289.99 455.914 1288.11 453.966 1288.17 451.631C1288.23 449.295 1290.07 447.305 1292.6 447.516L1796.57 460.767C1799.7 460.585 1830.1 460.07 1850.34 479.075C1861.72 489.766 1867.54 504.496 1867.63 522.846L1863.62 790.397C1863.58 792.71 1861.66 794.565 1859.3 794.565Z" fill="white"/>
<path d="M37.146 1513.27H2015.01C2017.2 1513.27 2018.98 1511.52 2018.98 1509.38V1433.82C2018.98 1431.68 2017.2 1429.93 2015.01 1429.93H37.146C34.9626 1429.93 33.1753 1431.68 33.1753 1433.82V1509.38C33.176 1511.52 34.9626 1513.27 37.146 1513.27Z" fill="url(#paint6_linear_10_8)"/>
<path d="M1293.4 1309.93L1664.19 613.83H1588.22C1574.21 613.83 1566.51 597.87 1575.39 587.258L1970.58 115.269C1987.7 94.8124 2021.54 107.787 2019.95 134.201L1992.17 595.749C1990.58 622.17 1966.67 641.863 1939.83 638.853L1886.87 632.914L1518.98 1413.66C1509.4 1433.99 1488.64 1447 1465.79 1447H1338.29L1293.4 1309.93Z" fill="url(#paint7_linear_10_8)"/>
<path d="M1645.47 564.602C1644.69 564.602 1643.91 564.36 1643.24 563.859C1641.64 562.654 1641.35 560.407 1642.58 558.839L1968.9 143.331C1972.74 138.431 1979.01 136.765 1984.86 139.083C1990.7 141.401 1994.02 146.867 1993.31 153.008L1987.55 202.814C1987.33 204.778 1985.52 206.177 1983.51 205.968C1981.51 205.746 1980.07 203.972 1980.29 202.007L1986.05 152.201C1986.45 148.732 1984.28 146.58 1982.12 145.721C1979.95 144.862 1976.86 144.933 1974.69 147.699L1648.37 563.207C1647.65 564.123 1646.56 564.602 1645.47 564.602Z" fill="white"/>
<path d="M1927.92 841.215C1830.82 883.401 1572.89 1029.38 1461.53 1422.88C1461.53 1422.88 1611.75 1425.35 1724.46 1189.27C1820.84 987.38 1876.27 905.814 1935.3 852.115C1940.89 847.025 1934.89 838.182 1927.92 841.215Z" fill="url(#paint8_linear_10_8)"/>
<path opacity="0.51" d="M1479.39 1400.55C1479.39 1400.55 1479.56 1399.98 1479.9 1398.89C1480.24 1397.79 1480.76 1396.18 1481.46 1394.08C1482.84 1389.88 1484.96 1383.75 1487.83 1376.02C1490.64 1368.26 1494.37 1358.96 1498.69 1348.31C1503.08 1337.68 1508.28 1325.8 1514.13 1312.9C1520.09 1300.07 1526.74 1286.23 1534.1 1271.76C1541.64 1257.38 1549.55 1242.17 1558.4 1226.8C1560.6 1222.95 1562.83 1219.07 1565.07 1215.16C1567.38 1211.29 1569.71 1207.4 1572.05 1203.48C1576.69 1195.61 1581.65 1187.8 1586.61 1179.91C1591.63 1172.05 1596.81 1164.2 1601.98 1156.3C1607.31 1148.51 1612.51 1140.58 1617.99 1132.84C1623.48 1125.1 1628.82 1117.27 1634.57 1109.75C1637.4 1105.96 1640.22 1102.18 1643.03 1098.41C1645.86 1094.65 1648.79 1090.97 1651.65 1087.27C1654.52 1083.59 1657.39 1079.92 1660.24 1076.27C1663.16 1072.67 1666.08 1069.09 1668.97 1065.54C1674.67 1058.36 1680.67 1051.55 1686.52 1044.82C1692.29 1038.03 1698.26 1031.59 1704.05 1025.25C1709.78 1018.86 1715.62 1012.81 1721.37 1006.98C1724.24 1004.07 1727.02 1001.14 1729.86 998.357C1732.72 995.595 1735.54 992.875 1738.32 990.2C1741.09 987.527 1743.81 984.899 1746.49 982.32C1749.16 979.747 1751.93 977.348 1754.56 974.933C1759.93 970.205 1764.92 965.525 1769.93 961.355C1774.94 957.179 1779.68 953.218 1784.14 949.495C1786.34 947.603 1788.56 945.876 1790.74 944.244C1792.9 942.595 1794.98 941.005 1796.97 939.478C1800.97 936.427 1804.63 933.625 1807.95 931.094C1821.65 921.583 1829.48 916.148 1829.48 916.148C1830.26 915.61 1831.33 915.79 1831.88 916.549C1832.39 917.261 1832.27 918.23 1831.61 918.791L1831.55 918.842C1831.55 918.842 1824.35 924.954 1811.74 935.65C1808.68 938.415 1805.29 941.476 1801.6 944.808C1799.75 946.473 1797.84 948.204 1795.85 950.001C1794.85 950.898 1793.84 951.812 1792.81 952.742C1791.81 953.704 1790.79 954.683 1789.76 955.677C1785.61 959.639 1781.21 963.855 1776.56 968.3C1771.91 972.73 1767.3 977.683 1762.34 982.682C1759.88 985.2 1757.29 987.695 1754.79 990.37C1752.29 993.049 1749.75 995.779 1747.16 998.556C1744.57 1001.33 1741.94 1004.15 1739.27 1007.02C1736.63 1009.9 1734.05 1012.93 1731.37 1015.94C1726.07 1022.01 1720.48 1028.11 1715.1 1034.64C1709.65 1041.1 1704.02 1047.65 1698.6 1054.56C1695.85 1057.98 1693.08 1061.44 1690.29 1064.91C1687.5 1068.39 1684.81 1071.99 1682.02 1075.54C1679.25 1079.1 1676.46 1082.69 1673.66 1086.3C1670.94 1089.96 1668.2 1093.65 1665.45 1097.34C1662.72 1101.05 1659.92 1104.73 1657.22 1108.5C1654.53 1112.28 1651.84 1116.08 1649.14 1119.88C1643.71 1127.45 1638.45 1135.19 1633.1 1142.87C1627.76 1150.54 1622.69 1158.41 1617.49 1166.14C1612.44 1173.97 1607.39 1181.76 1602.5 1189.56C1592.77 1205.19 1583.21 1220.59 1574.29 1235.69C1565.29 1250.74 1556.69 1265.37 1548.77 1279.37C1540.88 1293.38 1533.28 1306.58 1526.65 1318.96C1519.77 1331.22 1513.74 1342.61 1508.32 1352.67C1502.89 1362.73 1498.32 1371.59 1494.46 1378.85C1486.9 1393.44 1482.59 1401.78 1482.59 1401.78L1482.58 1401.8C1482.14 1402.64 1481.11 1402.97 1480.26 1402.54C1479.5 1402.17 1479.15 1401.32 1479.39 1400.55Z" fill="white"/>
<path d="M1464.45 1431.39C1464.45 1431.39 1507.33 1266.64 1741.86 1244.49C1898.37 1229.7 1948.12 1192.2 1962.73 1175.69C1964.44 1173.77 1967.64 1175.2 1967.25 1177.72C1962.38 1208.82 1935.98 1304.93 1793.85 1361.07C1622.56 1428.73 1536.75 1375.53 1464.45 1431.39Z" fill="url(#paint9_linear_10_8)"/>
<path opacity="0.51" d="M1476.54 1399.28C1476.54 1399.28 1477.82 1397.87 1480.36 1395.42C1482.89 1392.95 1486.64 1389.36 1491.65 1385.05C1496.6 1380.68 1502.83 1375.61 1510.17 1370.02C1517.47 1364.37 1526.05 1358.45 1535.6 1352.21C1545.16 1346.01 1555.86 1339.76 1567.49 1333.67C1579.13 1327.6 1591.74 1321.75 1605.16 1316.49C1618.57 1311.21 1632.83 1306.62 1647.61 1302.97C1662.39 1299.32 1677.72 1296.66 1693.2 1295.17C1697.09 1294.89 1700.95 1294.44 1704.84 1294.31C1708.73 1294.17 1712.61 1294.03 1716.49 1293.9C1720.37 1293.95 1724.24 1294.01 1728.1 1294.06C1731.96 1294.16 1735.81 1294.51 1739.64 1294.73C1746.99 1295.19 1754.27 1295.65 1761.48 1296.1C1768.86 1296.81 1775.57 1296.37 1782.42 1296.52C1784.13 1296.53 1785.82 1296.54 1787.51 1296.55L1790.04 1296.56L1792.57 1296.4C1795.93 1296.16 1799.27 1295.93 1802.57 1295.71C1804.22 1295.59 1805.86 1295.48 1807.49 1295.37L1809.94 1295.21C1810.74 1295.12 1811.54 1294.98 1812.33 1294.87C1815.52 1294.4 1818.67 1293.93 1821.77 1293.47C1834.24 1291.78 1845.7 1288.71 1856.08 1285.3C1857.41 1284.94 1858.63 1284.38 1859.87 1283.89C1861.11 1283.39 1862.33 1282.91 1863.54 1282.43C1865.94 1281.42 1868.4 1280.61 1870.62 1279.51C1872.83 1278.39 1874.99 1277.31 1877.1 1276.25C1878.14 1275.72 1879.2 1275.23 1880.2 1274.67C1881.17 1274.07 1882.12 1273.48 1883.06 1272.9C1884.96 1271.75 1886.79 1270.63 1888.56 1269.55C1890.25 1268.37 1891.84 1267.18 1893.4 1266.06C1896.61 1263.91 1899.11 1261.45 1901.58 1259.41C1903.86 1257.21 1905.94 1255.25 1907.6 1253.42C1909.23 1251.56 1910.65 1249.99 1911.63 1248.61C1912.69 1247.27 1913.41 1246.2 1913.9 1245.47C1914.4 1244.75 1914.59 1244.39 1914.59 1244.39C1914.91 1243.78 1915.68 1243.55 1916.3 1243.87C1916.87 1244.16 1917.11 1244.81 1916.91 1245.38L1916.9 1245.4C1916.9 1245.4 1916.72 1245.9 1916.32 1246.73C1915.93 1247.57 1915.36 1248.84 1914.45 1250.38C1912.73 1253.52 1909.8 1257.88 1905.48 1263.03C1903.18 1265.45 1900.81 1268.37 1897.73 1271.01C1896.23 1272.37 1894.69 1273.83 1893.03 1275.28C1891.29 1276.62 1889.48 1278 1887.61 1279.43C1886.67 1280.14 1885.71 1280.86 1884.74 1281.6C1883.74 1282.29 1882.67 1282.91 1881.62 1283.59C1879.49 1284.92 1877.31 1286.29 1875.06 1287.7C1872.8 1289.1 1870.32 1290.2 1867.86 1291.51C1865.36 1292.73 1862.88 1294.2 1860.16 1295.25C1849.42 1299.7 1837.42 1303.9 1824.37 1306.64C1821.1 1307.3 1817.78 1307.97 1814.42 1308.64C1813.58 1308.81 1812.74 1309 1811.89 1309.14L1809.33 1309.45C1807.62 1309.66 1805.9 1309.88 1804.16 1310.09C1800.69 1310.51 1797.18 1310.94 1793.64 1311.37L1790.97 1311.69L1788.26 1311.82C1786.44 1311.91 1784.62 1312 1782.79 1312.09C1775.52 1312.39 1767.86 1312.97 1760.72 1312.57C1757.08 1312.47 1753.42 1312.38 1749.75 1312.28C1746.02 1312.15 1742.26 1312.03 1738.5 1311.9C1724.19 1311.13 1709.58 1311.61 1695.08 1313.21C1680.57 1314.75 1666.16 1317.38 1652.15 1320.76C1638.15 1324.17 1624.51 1328.25 1611.53 1332.89C1585.53 1342.12 1562.02 1353.04 1542.25 1363.22C1532.32 1368.26 1523.5 1373.38 1515.59 1377.84C1507.73 1382.37 1501 1386.52 1495.43 1389.95C1489.9 1393.42 1485.59 1396.22 1482.67 1398.15C1479.76 1400.1 1478.21 1401.14 1478.21 1401.14C1477.63 1401.53 1476.84 1401.39 1476.44 1400.82C1476.1 1400.33 1476.16 1399.7 1476.54 1399.28Z" fill="white"/>
<path d="M986.843 821.724L1248.61 1391.55C1264.11 1425.3 1298.37 1447 1336.14 1447H1471.09C1489 1447 1505.49 1437.48 1514.18 1422.14L1518.98 1413.66C1504.48 1413.66 1491.2 1405.7 1484.61 1393.04L1135.84 723.376L986.843 821.724Z" fill="url(#paint10_linear_10_8)"/>
<path d="M1171.07 791.016C1144.82 770.703 1106.47 776.675 1087.93 803.96L703.063 1370.6C672.238 1415.99 620.292 1443.25 564.659 1443.25H510.503L466.43 1318.84C466.43 1318.84 824.227 781.224 916.447 699.898C916.447 699.898 1008.29 618.787 1098.84 680.113C1122.76 696.315 1140.92 719.438 1152.02 745.78L1171.07 791.016Z" fill="url(#paint11_linear_10_8)"/>
<path d="M71.3412 961.457C100.337 937.141 155.955 901.013 237.097 893.034C237.097 893.034 296.39 912.83 414.517 1120.25C532.644 1327.68 611.053 1422.27 703.062 1370.6L695.445 1383C670.341 1423.84 625.239 1448.82 576.582 1448.82H525.692C469.665 1448.82 417.07 1422.42 384.352 1377.85C302.877 1266.86 145.877 1058.73 71.8911 999.258C59.7649 989.511 59.425 971.451 71.3412 961.457Z" fill="url(#paint12_linear_10_8)"/>
<path d="M1975.36 280.123C1975.22 280.123 1975.08 280.116 1974.94 280.1C1972.94 279.877 1971.5 278.105 1971.72 276.14L1974.33 253.603C1974.56 251.638 1976.36 250.214 1978.37 250.45C1980.38 250.672 1981.82 252.445 1981.59 254.409L1978.98 276.946C1978.77 278.773 1977.19 280.123 1975.36 280.123Z" fill="white"/>
<path d="M905.169 1000.2C904.466 1000.2 903.756 999.999 903.13 999.585C901.457 998.479 901.015 996.254 902.144 994.615L1070.91 749.471C1076.96 740.68 1087.02 735.923 1097.8 736.716C1108.59 737.517 1117.8 743.718 1122.43 753.302C1123.29 755.088 1122.51 757.223 1120.69 758.069C1118.86 758.915 1116.68 758.149 1115.82 756.364C1112.33 749.137 1105.39 744.461 1097.25 743.854C1089.11 743.254 1081.53 746.847 1076.97 753.475L908.202 998.618C907.496 999.644 906.343 1000.2 905.169 1000.2Z" fill="white"/>
<path d="M861.313 1063.9C860.61 1063.9 859.9 1063.7 859.274 1063.29C857.6 1062.18 857.159 1059.96 858.288 1058.32L869.109 1042.6C870.239 1040.96 872.508 1040.53 874.181 1041.63C875.854 1042.74 876.296 1044.97 875.167 1046.6L864.346 1062.32C863.639 1063.35 862.487 1063.9 861.313 1063.9Z" fill="white"/>
<path d="M1203.17 613.88C1203.17 613.88 1181.1 624.401 1177.04 636.488C1173.78 646.186 1149.37 647.435 1146.96 666.508C1145.72 676.355 1138.28 684.242 1128.27 685.745C1103.35 689.489 1064.93 702.174 1058.78 744.586C1054.09 776.96 1070.93 789.235 1088.61 793.484C1101.59 796.605 1110.21 808.978 1107.59 821.82C1105.07 834.138 1108.83 848.379 1130.6 859.639C1179.4 884.873 1228.14 799.857 1228.14 799.857L1238.13 651.414L1203.17 613.88Z" fill="url(#paint13_linear_10_8)"/>
<path d="M1468.71 578.688C1468.71 578.688 1371.27 729.717 1255.41 758.888C1255.41 758.888 1277.98 821.901 1295.41 829.114C1295.41 829.114 1437.96 712.56 1474.59 600.15L1468.71 578.688Z" fill="url(#paint14_linear_10_8)"/>
<path d="M1002.58 1544.67L999.42 1570.11C998.821 1574.93 994.944 1578.75 990.015 1579.3C981.692 1580.23 968.337 1581.19 955.27 1579.83C949.535 1579.24 945.812 1573.55 947.559 1568.16C950.744 1558.34 956.572 1543.6 964.974 1534.92H993.773C999.096 1534.92 1003.22 1539.49 1002.58 1544.67Z" fill="url(#paint15_linear_10_8)"/>
<path d="M1228.14 1246.65L1233 1274.67C1233 1274.67 1216.72 1436.24 1213.83 1500.87C1213.37 1511.01 1216.05 1521.02 1221.48 1529.66L1249.78 1574.7L1177.85 1533.1L1176.41 1524.5L1188.19 1508.63L1172.77 1327.63C1171.86 1317 1174.1 1306.33 1179.21 1296.91L1194.09 1269.52L1228.14 1246.65Z" fill="url(#paint16_linear_10_8)"/>
<path d="M1254.52 1581.22H1231.56C1227.26 1581.22 1223.21 1579.29 1220.59 1575.95C1213.44 1566.84 1198.61 1549.06 1191.52 1548.6C1181.97 1547.97 1183.19 1581.22 1183.19 1581.22H1177.84L1171.07 1539.91C1169.36 1529.51 1174.64 1519.21 1184.17 1514.34C1184.17 1514.34 1186.35 1530.15 1198.18 1537.15C1210.01 1544.14 1246.32 1569.19 1246.32 1569.19C1246.32 1569.19 1250.76 1568.56 1255.65 1569.43C1262.89 1570.71 1261.88 1581.22 1254.52 1581.22Z" fill="url(#paint17_linear_10_8)"/>
<path d="M1129.61 1259.96C1129.61 1259.96 1034.25 1437.22 1019.09 1477.69C1003.94 1518.16 998.625 1551.93 998.422 1555.12C998.104 1560.12 991.763 1564.91 974.285 1564.91C965.265 1564.91 960.847 1561.37 958.684 1557.94C956.838 1555.01 956.742 1551.35 958.298 1548.27C963.814 1537.33 981.319 1502.37 987.803 1486.51C995.543 1467.58 1012.19 1381.78 1021.32 1351.95C1030.46 1322.12 1040.78 1289.76 1080.54 1259.96C1080.54 1259.96 1107.84 1233.76 1129.61 1259.96Z" fill="url(#paint18_linear_10_8)"/>
<path d="M1189.85 969.506C1214.45 867.362 1152.14 809.592 1152.14 809.592C1191.46 772.606 1263.1 755.776 1263.1 755.776C1263.1 755.776 1331.46 804.752 1323.35 843.085C1318.6 865.553 1275.3 977.662 1275.3 977.662C1275.3 977.662 1235.26 996.231 1189.85 969.506Z" fill="url(#paint19_linear_10_8)"/>
<path d="M1135.32 1020.07C1145.33 990.521 1189.85 969.506 1189.85 969.506C1235.26 996.231 1275.3 977.663 1275.3 977.663C1275.3 977.663 1284.28 1011.29 1278.08 1042.55C1271.88 1073.8 1233 1274.67 1233 1274.67C1171.74 1286.83 1077.52 1262.43 1077.52 1262.43C1116.54 1194.54 1125.3 1049.63 1135.32 1020.07Z" fill="url(#paint20_linear_10_8)"/>
<path d="M1218.41 688.276L1198.41 776.307C1196.49 784.06 1203.71 782.791 1211.71 781.314C1224.81 778.893 1241.69 773.908 1247.34 763.918C1247.91 762.902 1248.2 761.753 1248.36 760.601L1256.95 699.559C1257.63 694.716 1254.96 690.016 1250.4 688.034L1233.82 680.829C1227.44 678.055 1220.05 681.625 1218.41 688.276Z" fill="url(#paint21_linear_10_8)"/>
<path d="M1152.14 809.592C1152.14 809.592 1012.55 907.454 1134.29 1010.29C1134.29 1010.29 1138.93 1015.43 1148.06 1018.11C1152.67 1019.46 1166.31 1029.57 1173.22 1034.84C1175.44 1036.54 1178.65 1035.96 1180.15 1033.62C1181.32 1031.79 1181.46 1029.5 1180.51 1027.54L1163.23 991.732C1158.43 987.344 1151.09 987.032 1145.92 990.998C1142.62 993.528 1137.79 992.468 1135.95 988.785C1126.54 970.003 1108.77 914.764 1181.5 852.347C1184.23 850 1184.92 846.119 1183.25 842.961C1178.14 833.341 1166.45 814.239 1152.14 809.592Z" fill="url(#paint22_linear_10_8)"/>
<path d="M1256.71 608.027C1256.71 608.027 1278 622.15 1287.15 658.117C1296.3 694.085 1281.43 706.986 1266.19 706.196C1250.95 705.405 1228.86 700.787 1209.71 674.984C1190.56 649.181 1228.81 590.768 1256.71 608.027Z" fill="url(#paint23_linear_10_8)"/>
<path d="M1229.02 660.476C1229.02 660.476 1221.22 608.939 1264.88 616.822L1273.71 625.83C1273.71 625.83 1295.08 602.242 1271.43 584.413C1247.78 566.583 1214.96 571.149 1196.8 603.609C1178.64 636.068 1172.05 658.876 1187.27 679.047C1202.49 699.217 1213.94 681.918 1213.94 681.918C1213.94 681.918 1206.96 664.46 1212.75 656.969C1218.54 649.479 1226.01 661.326 1226.01 661.326L1229.02 660.476Z" fill="url(#paint24_linear_10_8)"/>
<path d="M1223.05 664.89C1223.05 664.89 1219.2 638.374 1205.38 645.954C1191.56 653.534 1210.36 670.724 1217.9 676.573L1223.05 664.89Z" fill="url(#paint25_linear_10_8)"/>
<path d="M1468.04 609.78C1468.34 612.896 1456.51 615.049 1452.75 601.768C1453.79 596.001 1455.62 570.751 1460.13 566.828C1484.16 545.935 1527.01 522.432 1527.01 522.432C1531.8 529.601 1525.52 534.324 1525.52 534.324L1504.13 548.469C1506.36 555.71 1509.62 562.113 1509.99 570.381C1510.26 576.642 1507.9 582.771 1503.66 587.521C1499.41 592.287 1493.68 598.441 1488.51 603.113C1478.73 611.956 1468.04 609.78 1468.04 609.78Z" fill="url(#paint26_linear_10_8)"/>
<path d="M1479.66 599.487L1476.39 598.169C1476.82 597.133 1487.09 572.691 1492.05 567.606C1493.94 565.677 1494.85 564.026 1494.77 562.694C1494.72 561.973 1494.36 561.261 1493.67 560.536L1476.36 569.606L1468.72 581.335L1465.74 579.468L1473.88 566.975L1494.15 556.353L1495.06 557.083C1497.11 558.726 1498.18 560.491 1498.3 562.481C1498.45 564.852 1497.24 567.311 1494.61 570.004C1490.87 573.833 1482.55 592.584 1479.66 599.487Z" fill="url(#paint27_linear_10_8)"/>
<defs>
<linearGradient id="paint0_linear_10_8" x1="1340.06" y1="-47.3865" x2="1884.49" y2="585.965" gradientUnits="userSpaceOnUse">
<stop stop-color="#A737D5"/>
<stop offset="1" stop-color="#EF497A"/>
</linearGradient>
<linearGradient id="paint1_linear_10_8" x1="1160.95" y1="106.576" x2="1705.38" y2="739.928" gradientUnits="userSpaceOnUse">
<stop stop-color="#A737D5"/>
<stop offset="1" stop-color="#EF497A"/>
</linearGradient>
<linearGradient id="paint2_linear_10_8" x1="-168.118" y1="464.533" x2="631.591" y2="802.142" gradientUnits="userSpaceOnUse">
<stop stop-color="#A737D5"/>
<stop offset="1" stop-color="#EF497A"/>
</linearGradient>
<linearGradient id="paint3_linear_10_8" x1="22.4954" y1="903.471" x2="536.739" y2="258.487" gradientUnits="userSpaceOnUse">
<stop stop-color="#CE1567"/>
<stop offset="1" stop-color="#7A1DBC"/>
</linearGradient>
<linearGradient id="paint4_linear_10_8" x1="1197" y1="1361.61" x2="813.463" y2="187.439" gradientUnits="userSpaceOnUse">
<stop stop-color="#2B3582"/>
<stop offset="1" stop-color="#150E42"/>
</linearGradient>
<linearGradient id="paint5_linear_10_8" x1="1410.25" y1="579.207" x2="-15.0225" y2="1856.17" gradientUnits="userSpaceOnUse">
<stop stop-color="#F895E7"/>
<stop offset="1" stop-color="#7A1DBC"/>
</linearGradient>
<linearGradient id="paint6_linear_10_8" x1="271.044" y1="1291.62" x2="2039.14" y2="1730.5" gradientUnits="userSpaceOnUse">
<stop stop-color="#2B3582"/>
<stop offset="1" stop-color="#150E42"/>
</linearGradient>
<linearGradient id="paint7_linear_10_8" x1="2106.42" y1="113.216" x2="1267.8" y2="1499.12" gradientUnits="userSpaceOnUse">
<stop stop-color="white"/>
<stop offset="1" stop-color="#A737D5"/>
</linearGradient>
<linearGradient id="paint8_linear_10_8" x1="1565.65" y1="1284.81" x2="2031.94" y2="693.537" gradientUnits="userSpaceOnUse">
<stop stop-color="#A737D5"/>
<stop offset="1" stop-color="#EF497A"/>
</linearGradient>
<linearGradient id="paint9_linear_10_8" x1="1460.71" y1="1423" x2="1974.76" y2="1193.53" gradientUnits="userSpaceOnUse">
<stop stop-color="#A737D5"/>
<stop offset="1" stop-color="#EF497A"/>
</linearGradient>
<linearGradient id="paint10_linear_10_8" x1="1371.37" y1="1378.52" x2="1025" y2="676.275" gradientUnits="userSpaceOnUse">
<stop stop-color="white"/>
<stop offset="1" stop-color="#F895E7"/>
</linearGradient>
<linearGradient id="paint11_linear_10_8" x1="1186.34" y1="1042.88" x2="388.879" y2="1058.48" gradientUnits="userSpaceOnUse">
<stop stop-color="white"/>
<stop offset="1" stop-color="#F895E7"/>
</linearGradient>
<linearGradient id="paint12_linear_10_8" x1="647.555" y1="1487.39" x2="-128.583" y2="612.937" gradientUnits="userSpaceOnUse">
<stop stop-color="#FF8855" stop-opacity="0.247059"/>
<stop offset="0.2814" stop-color="#EAC4F9"/>
<stop offset="1" stop-color="#D93C65"/>
</linearGradient>
<linearGradient id="paint13_linear_10_8" x1="1241.99" y1="527.302" x2="1178.77" y2="689.132" gradientUnits="userSpaceOnUse">
<stop stop-color="#2B3582"/>
<stop offset="1" stop-color="#150E42"/>
</linearGradient>
<linearGradient id="paint14_linear_10_8" x1="1273.24" y1="807.71" x2="1506.88" y2="512.074" gradientUnits="userSpaceOnUse">
<stop stop-color="#F9B776"/>
<stop offset="1" stop-color="#F47960"/>
</linearGradient>
<linearGradient id="paint15_linear_10_8" x1="1008.29" y1="2026.4" x2="985.284" y2="1689.95" gradientUnits="userSpaceOnUse">
<stop stop-color="#CE1567"/>
<stop offset="1" stop-color="#7A1DBC"/>
</linearGradient>
<linearGradient id="paint16_linear_10_8" x1="1237.25" y1="1772.27" x2="1160.5" y2="856.923" gradientUnits="userSpaceOnUse">
<stop stop-color="#F9B776"/>
<stop offset="1" stop-color="#F47960"/>
</linearGradient>
<linearGradient id="paint17_linear_10_8" x1="1248" y1="2010.01" x2="1225" y2="1673.56" gradientUnits="userSpaceOnUse">
<stop stop-color="#CE1567"/>
<stop offset="1" stop-color="#7A1DBC"/>
</linearGradient>
<linearGradient id="paint18_linear_10_8" x1="1076.53" y1="1785.88" x2="999.76" y2="870.298" gradientUnits="userSpaceOnUse">
<stop stop-color="#F9B776"/>
<stop offset="1" stop-color="#F47960"/>
</linearGradient>
<linearGradient id="paint19_linear_10_8" x1="1578.36" y1="588.836" x2="1027.57" y2="1068.03" gradientUnits="userSpaceOnUse">
<stop stop-color="#CB236D"/>
<stop offset="1" stop-color="#4C246D"/>
</linearGradient>
<linearGradient id="paint20_linear_10_8" x1="1404.44" y1="900.738" x2="526.589" y2="1911.21" gradientUnits="userSpaceOnUse">
<stop stop-color="#2B3582"/>
<stop offset="1" stop-color="#150E42"/>
</linearGradient>
<linearGradient id="paint21_linear_10_8" x1="1227.58" y1="1038.5" x2="1227.58" y2="662.999" gradientUnits="userSpaceOnUse">
<stop stop-color="#F9B776"/>
<stop offset="1" stop-color="#F47960"/>
</linearGradient>
<linearGradient id="paint22_linear_10_8" x1="1202.82" y1="914.396" x2="1690.41" y2="804.637" gradientUnits="userSpaceOnUse">
<stop stop-color="#F9B776"/>
<stop offset="1" stop-color="#F47960"/>
</linearGradient>
<linearGradient id="paint23_linear_10_8" x1="1256.79" y1="704.895" x2="1222.99" y2="560.645" gradientUnits="userSpaceOnUse">
<stop stop-color="#F9B776"/>
<stop offset="1" stop-color="#F47960"/>
</linearGradient>
<linearGradient id="paint24_linear_10_8" x1="1284.54" y1="540.245" x2="1191.12" y2="687.386" gradientUnits="userSpaceOnUse">
<stop stop-color="#2B3582"/>
<stop offset="1" stop-color="#150E42"/>
</linearGradient>
<linearGradient id="paint25_linear_10_8" x1="1224.7" y1="712.417" x2="1190.89" y2="568.166" gradientUnits="userSpaceOnUse">
<stop stop-color="#F9B776"/>
<stop offset="1" stop-color="#F47960"/>
</linearGradient>
<linearGradient id="paint26_linear_10_8" x1="1284.71" y1="816.769" x2="1518.34" y2="521.133" gradientUnits="userSpaceOnUse">
<stop stop-color="#F9B776"/>
<stop offset="1" stop-color="#F47960"/>
</linearGradient>
<linearGradient id="paint27_linear_10_8" x1="1507.01" y1="416.507" x2="1422.6" y2="961.505" gradientUnits="userSpaceOnUse">
<stop stop-color="#F9B776"/>
<stop offset="1" stop-color="#F47960"/>
</linearGradient>
</defs>
</svg>
